<?xml version="1.0" encoding="UTF-8" standalone="no"?>
<svg
   xmlns:dc="http://purl.org/dc/elements/1.1/"
   xmlns:cc="http://creativecommons.org/ns#"
   xmlns:rdf="http://www.w3.org/1999/02/22-rdf-syntax-ns#"
   xmlns:svg="http://www.w3.org/2000/svg"
   xmlns="http://www.w3.org/2000/svg"
   xmlns:sodipodi="http://sodipodi.sourceforge.net/DTD/sodipodi-0.dtd"
   xmlns:inkscape="http://www.inkscape.org/namespaces/inkscape"
   width="515.13275pt"
   height="237.1987pt"
   viewBox="0 0 515.13275 237.1987"
   version="1.2"
   id="svg351"
   sodipodi:docname="CrossSectionSketch_a.svg"
   inkscape:version="0.92.5 (2060ec1f9f, 2020-04-08)">
  <metadata
     id="metadata355">
    <rdf:RDF>
      <cc:Work
         rdf:about="">
        <dc:format>image/svg+xml</dc:format>
        <dc:type
           rdf:resource="http://purl.org/dc/dcmitype/StillImage" />
        <dc:title></dc:title>
      </cc:Work>
    </rdf:RDF>
  </metadata>
  <sodipodi:namedview
     pagecolor="#ffffff"
     bordercolor="#666666"
     borderopacity="1"
     objecttolerance="10"
     gridtolerance="10"
     guidetolerance="10"
     inkscape:pageopacity="0"
     inkscape:pageshadow="2"
     inkscape:window-width="1848"
     inkscape:window-height="1016"
     id="namedview353"
     showgrid="false"
     inkscape:zoom="1.4289461"
     inkscape:cx="293.31312"
     inkscape:cy="129.83216"
     inkscape:window-x="72"
     inkscape:window-y="27"
     inkscape:window-maximized="1"
     inkscape:current-layer="surface973" />
  <defs
     id="defs8">
    <clipPath
       id="clip1">
      <path
         d="m 504,181 h 11.13281 v 9 H 504 Z m 0,0"
         id="path2"
         inkscape:connector-curvature="0" />
    </clipPath>
    <clipPath
       id="clip2">
      <path
         d="m 202,235 h 13 v 15.32031 h -13 z m 0,0"
         id="path5"
         inkscape:connector-curvature="0" />
    </clipPath>
  </defs>
  <g
     id="surface973"
     transform="translate(0,-5.3302132e-5)">
    <path
       style="fill:#3d85e8;fill-opacity:1;fill-rule:nonzero;stroke:none"
       d="m 23.289062,171.5625 v -13.09375 l 2.277344,-0.29688 c 7.050782,-0.92187 78.363284,-6.65625 78.660154,-6.32421 0.19532,0.21875 5.72657,7.38671 12.29297,15.93359 6.5625,8.54297 12.16797,15.83594 12.45313,16.20312 0.41406,0.53516 -10.1836,0.67188 -52.582035,0.67188 H 23.289062 Z m 0,0"
       id="path10"
       inkscape:connector-curvature="0" />
    <path
       style="fill:#3d85e8;fill-opacity:1;fill-rule:nonzero;stroke:none"
       d="m 125.21094,176.48437 c -14.19531,-18.3125 -20.375,-26.44921 -21.01172,-27.66406 l -0.67188,-1.27734 19.1836,0.39844 19.17968,0.39843 8.47657,8.08203 c 4.66406,4.44532 8.41015,8.2461 8.33203,8.44922 -0.0781,0.19922 -4.9375,4.73438 -10.80078,10.07422 l -10.65625,9.71094 h -5.69922 z m 0,0"
       id="path12"
       inkscape:connector-curvature="0" />
    <path
       style="fill:#ee2828;fill-opacity:1;fill-rule:nonzero;stroke:none"
       d="m 153.46484,157.25391 c -5.86328,-5.63672 -6.07031,-5.90235 -4.28515,-5.625 1.03125,0.16406 6.47265,0.58984 12.09375,0.94921 l 10.21875,0.65235 -5.39844,4.99219 c -2.96484,2.75 -5.63672,4.98437 -5.92969,4.97265 -0.29687,-0.0117 -3.30859,-2.6875 -6.69922,-5.9414 z m 0,0"
       id="path14"
       inkscape:connector-curvature="0" />
    <path
       style="fill:#8ab300;fill-opacity:1;fill-rule:nonzero;stroke:none"
       d="m 23.289062,140.29297 v -16.64453 l 2.277344,-0.27735 c 1.25,-0.14843 14.660156,-0.65234 29.800782,-1.10937 26.230468,-0.79688 27.554687,-0.79297 28.242187,0.10937 3.320313,4.35157 18.410155,25.3086 18.898435,26.24219 0.55078,1.05078 0.48047,1.22266 -0.59375,1.45313 -0.66797,0.14453 -17.246091,1.60546 -36.839841,3.24218 -19.59375,1.64063 -37.011719,3.12891 -38.707031,3.30469 l -3.078126,0.32422 z m 0,0"
       id="path16"
       inkscape:connector-curvature="0" />
    <path
       style="fill:#8ab300;fill-opacity:1;fill-rule:nonzero;stroke:none"
       d="m 111.29688,146.10156 -8.6836,-0.28515 -5.906249,-8.17188 c -3.25,-4.49219 -5.847656,-8.19141 -5.777343,-8.22266 0.07031,-0.0312 7.238281,-0.71484 15.929692,-1.52343 l 15.80468,-1.47266 1.27344,1.125 c 1.27734,1.125 15.02344,17.14453 15.78906,18.39844 0.4375,0.71094 -9.91406,0.76953 -28.42968,0.15234 z m 0,0"
       id="path18"
       inkscape:connector-curvature="0" />
    <path
       style="fill:#8ab300;fill-opacity:1;fill-rule:nonzero;stroke:none"
       d="m 158.41406,150.92187 c -11.78515,-0.86718 -12.53906,-0.98828 -13.86328,-2.20703 -0.76953,-0.71093 -4.75781,-5.26953 -8.86328,-10.13281 l -7.46875,-8.83984 2.04297,-0.38282 c 2.44922,-0.46093 68.97265,-3.82421 69.85156,-3.53124 0.33984,0.11328 -3.33984,3.93359 -8.17578,8.48828 -15.21484,14.33984 -19,17.66406 -20.05078,17.59375 -0.55469,-0.0391 -6.61719,-0.48047 -13.47266,-0.98829 z m 0,0"
       id="path20"
       inkscape:connector-curvature="0" />
    <path
       style="fill:#8ab300;fill-opacity:1;fill-rule:nonzero;stroke:none"
       d="m 228.07422,148.55859 c -4.11719,-4.99609 -12.44531,-13.72656 -13.09766,-13.72656 -1.02344,0 -0.28906,1.45313 1.81641,3.59766 l 2.2539,2.29687 H 187.5 l 2.13672,-2.10156 c 1.17187,-1.15625 5.625,-5.37109 9.89453,-9.36719 l 7.76172,-7.26953 3.21875,3.17578 c 2.97265,2.92578 3.5625,3.25781 7.59765,4.27735 3.05079,0.76953 6.13282,1.10937 10.17969,1.125 l 5.80078,0.0156 3.3711,4.40234 c 1.85547,2.42188 6.38281,7.17579 10.0664,10.5625 l 6.69532,6.16016 -3.90625,0.34375 c -2.14844,0.1875 -7.22266,0.46094 -11.28125,0.60156 l -7.375,0.26172 z m 0,0"
       id="path22"
       inkscape:connector-curvature="0" />
    <path
       style="fill:#8ab300;fill-opacity:1;fill-rule:nonzero;stroke:none"
       d="m 269.17969,162.73047 c -8.10157,-7.00781 -17.25782,-15.14844 -20.34766,-18.09375 l -5.61328,-5.35547 32.9375,-0.36719 c 22.81641,-0.25781 38.28516,-0.70312 50.34766,-1.44531 l 17.41015,-1.07031 1.9961,2.29687 c 1.09765,1.26563 3.87109,4.51563 6.16015,7.22266 4.04297,4.78515 4.53906,5.16406 17.15235,13.125 7.14453,4.51172 12.99218,8.32031 12.99218,8.46875 0,0.14844 -2.95312,1.42187 -6.5625,2.83203 -6.08203,2.37891 -18.16015,5.20312 -22.25,5.20312 -1.55078,0 -11.84375,-9.42968 -18.32812,-16.78906 -3.73828,-4.24609 -5.35938,-5.46875 -5.35938,-4.05469 0,0.32032 1.92578,2.67188 4.27344,5.22266 l 4.27344,4.64063 -9.36328,0.14453 c -5.14844,0.082 -13.60157,0.082 -18.78907,0 l -9.42968,-0.14453 6.72265,-3.92969 c 6.95703,-4.06641 8.75,-5.44531 7.07032,-5.44531 -0.50391,0 -4.32813,2.01562 -8.50391,4.48437 -4.17578,2.46484 -9.28516,5.33203 -11.35156,6.37109 -2.92969,1.47266 -4.46875,2.72266 -6.96485,5.66016 -1.76172,2.07813 -3.32422,3.77344 -3.47265,3.76953 -0.14453,0 -6.89453,-5.73828 -15,-12.74609 z m 0,0"
       id="path24"
       inkscape:connector-curvature="0" />
    <path
       style="fill:#e8b86e;fill-opacity:1;fill-rule:nonzero;stroke:none"
       d="M 23.289062,108.58203 V 95.191406 l 21.292969,0.01563 21.296875,0.01563 1.0625,1.457032 c 2.476563,3.394532 14.691406,22.843752 14.476563,23.058592 -0.175781,0.17578 -24.960938,1.13281 -57.460938,2.21485 -0.519531,0.0195 -0.667969,-3 -0.667969,-13.3711 z m 0,0"
       id="path26"
       inkscape:connector-curvature="0" />
    <path
       style="fill:#e8b86e;fill-opacity:1;fill-rule:nonzero;stroke:none"
       d="M 86.617188,123.71875 C 83.96875,120.22266 70.964844,100.30859 70.964844,99.75 c 0,-0.273438 6.78125,-0.738281 15.855468,-1.082031 l 8.089844,-0.308594 3,3.511715 c 1.648438,1.9336 7.609374,7.90625 13.242184,13.27344 5.63282,5.36328 10.04297,9.8125 9.80469,9.88672 -0.3789,0.11328 -30.01953,2.83594 -30.874999,2.83594 -0.175781,0 -1.734375,-1.86719 -3.464843,-4.14844 z m 0,0"
       id="path28"
       inkscape:connector-curvature="0" />
    <path
       style="fill:#e8b86e;fill-opacity:1;fill-rule:nonzero;stroke:none"
       d="m 218.0625,127.85547 c -3.24609,-0.86328 -4.10547,-1.37891 -6.85547,-4.13281 l -3.14844,-3.14844 1.0586,-2.46484 c 0.98437,-2.30079 0.99218,-3.09766 0.0195,-3.09766 -0.22266,0 -0.80469,1.05469 -1.30078,2.34766 -0.49219,1.28906 -1.89844,3.3125 -3.1211,4.49218 L 202.48437,124 l -37.91406,1.97656 -37.91797,1.97657 -11.51171,-11.10547 c -6.33204,-6.10938 -11.42969,-11.1875 -11.32813,-11.28907 0.22266,-0.22265 96.82031,-2.86328 104.88672,-2.86718 h 5.67969 l 6.10546,8.69531 c 3.35938,4.78125 7.50391,10.6875 9.21485,13.125 l 3.10547,4.42969 -5.51563,-0.0508 c -3.51953,-0.0312 -6.86328,-0.40625 -9.22656,-1.03515 z m 0,0"
       id="path30"
       inkscape:connector-curvature="0" />
    <path
       style="fill:#e8b86e;fill-opacity:1;fill-rule:nonzero;stroke:none"
       d="m 236.91797,131.77344 c -2.57031,-3.47266 -8.14844,-11.25781 -12.39453,-17.29688 l -7.72266,-10.98437 2.21875,-0.13281 c 2.68359,-0.16016 101.44531,-2.81641 104.66797,-2.8125 h 2.27734 l 17.125,34.24218 -1.73047,0.26172 c -5.1914,0.78516 -34.23828,1.9375 -55.03515,2.18359 -13.11328,0.15625 -28.53906,0.41407 -34.28516,0.57032 l -10.44922,0.28125 z m 0,0"
       id="path32"
       inkscape:connector-curvature="0" />
    <path
       style="fill:#917da6;fill-opacity:1;fill-rule:nonzero;stroke:none"
       d="m 424.26953,109.8125 c -9.72266,-1.02344 -17.96484,-2.09766 -18.31641,-2.38672 -0.34765,-0.28906 -2.27734,-3.15625 -4.28515,-6.375 -2.00391,-3.214842 -3.94922,-5.851561 -4.31641,-5.855468 -1.13281,-0.01172 -0.77734,0.863282 2.27735,5.597658 1.61718,2.51172 2.94531,4.6875 2.94531,4.83984 0,0.14844 -7.77344,0.27344 -17.27735,0.27344 -19.63281,0 -37.08593,0.72266 -45.55468,1.88281 -8.82813,1.21094 -7.8086,1.71094 -11.23047,-5.5 -1.64453,-3.460935 -4.47656,-9.85156 -6.29688,-14.19531 -2.19922,-5.246094 -3.58593,-7.902344 -4.12109,-7.902344 -0.44922,0 -0.69531,0.300782 -0.55078,0.667969 0.14453,0.367187 1.87109,4.492187 3.83984,9.164063 1.96875,4.667968 3.48438,8.585937 3.36719,8.703124 -0.11719,0.117188 -22.25,0.808594 -49.1875,1.535158 -26.93359,0.72656 -51.46484,1.39844 -54.51563,1.48828 l -5.54296,0.16797 -5.84375,-7.382814 c -5.37891,-6.792968 -6.90625,-8.304687 -6.90625,-6.824218 0,0.308593 2.19531,3.332031 4.88281,6.722656 2.68359,3.394531 4.79297,6.249996 4.6875,6.347656 -0.19922,0.17578 -14.71485,0.60547 -76.51563,2.24609 l -33.99609,0.90235 -2.605469,-2.89453 C 96.226562,97.714844 86.960938,84.910156 87.300781,84.570312 c 0.125,-0.125 19.460939,-0.910156 42.972659,-1.746093 23.51172,-0.839844 62.63672,-2.609375 86.9414,-3.9375 59.17969,-3.230469 86.38282,-3.765625 168.48438,-3.324219 34.76562,0.191406 70.38672,0.503906 79.15234,0.695312 l 15.9375,0.355469 v 34.046879 l -2.27734,0.28125 c -1.25391,0.15625 -9.16406,0.43359 -17.57813,0.61718 l -15.30468,0.33594 -2.375,-2.96875 c -2.32422,-2.90625 -3.71485,-3.76172 -3.71485,-2.28515 0,0.40625 0.3711,1.05078 0.82813,1.42578 1.5039,1.25 3.05468,3.73437 2.28906,3.66797 -0.39063,-0.0312 -8.66406,-0.89844 -18.38672,-1.92188 z m 0,0"
       id="path34"
       inkscape:connector-curvature="0" />
    <path
       style="fill:#917da6;fill-opacity:1;fill-rule:nonzero;stroke:none"
       d="M 68.234375,96.011719 66.949219,94.125 45.117188,94.121094 23.289062,94.117188 V 79.324219 l 20.757813,-0.660157 c 11.417969,-0.363281 24.148437,-0.804687 28.289063,-0.984374 l 7.527343,-0.324219 6.828125,9.578125 c 6.402344,8.984375 6.75,9.597656 5.59375,9.902344 -0.675781,0.179687 -6.074218,0.492187 -12,0.695312 l -10.769531,0.367188 z m 0,0"
       id="path36"
       inkscape:connector-curvature="0" />
    <path
       style="fill:#00dede;fill-opacity:1;fill-rule:nonzero;stroke:none"
       d="m 83.316406,79.570312 c -1.929687,-2.734374 -2.675781,-4.578124 -4.351562,-10.761718 -1.109375,-4.105469 -2.160156,-7.601563 -2.332032,-7.773438 -1.097656,-1.097656 -0.863281,1.378906 0.699219,7.433594 0.984375,3.824219 1.675781,7.074219 1.535157,7.214844 C 78.722656,75.824219 68.632812,76.285156 56.4375,76.703125 44.246094,77.117188 31.800781,77.589844 28.777344,77.75 l -5.488282,0.285156 V 49.65625 H 480.78906 V 75.007812 L 456.81641,74.652344 C 399.85547,73.808594 329.51172,73.625 297.03906,74.242188 265.84375,74.832031 247.15625,75.644531 190.42969,78.875 c -11.52344,0.65625 -97.195315,3.96875 -103.152346,3.988281 -1.398438,0.0039 -1.976563,-0.476562 -3.960938,-3.292969 z m 0,0"
       id="path38"
       inkscape:connector-curvature="0" />
    <path
       style="fill:#3d85e8;fill-opacity:1;fill-rule:nonzero;stroke:none"
       d="m 249.76172,169.54687 c -9.0586,-8.28906 -16.41016,-15.125 -16.33985,-15.1875 0.0742,-0.0625 5.19532,-0.28515 11.38282,-0.49218 l 11.25,-0.375 13.96093,11.96484 c 7.67579,6.58203 15.875,13.38672 18.21485,15.12109 2.33984,1.73438 4.48437,3.36329 4.76172,3.61719 0.28515,0.25781 -5.48828,0.45313 -13.125,0.44141 l -13.63282,-0.0156 z m 0,0"
       id="path40"
       inkscape:connector-curvature="0" />
    <path
       style="fill:#3d85e8;fill-opacity:1;fill-rule:nonzero;stroke:none"
       d="m 291.03125,180.75391 c -2.86328,-2.125 -5.21094,-4.02735 -5.22266,-4.22266 -0.0117,-0.19531 1.2461,-1.83984 2.79297,-3.65625 1.85547,-2.17578 3.85156,-3.83203 5.875,-4.86719 l 3.06641,-1.5664 h 42.51172 l 5.67968,5.2539 c 3.1211,2.89063 7.72657,6.78516 10.23047,8.65235 2.50782,1.87109 4.78516,3.60546 5.0625,3.85156 0.28125,0.25 -14.18359,0.44922 -32.14062,0.4414 l -32.65235,-0.0156 z m 0,0"
       id="path42"
       inkscape:connector-curvature="0" />
    <path
       style="fill:#3d85e8;fill-opacity:1;fill-rule:nonzero;stroke:none"
       d="m 359.21484,180.92969 c -4.40234,-3.29688 -4.82812,-3.75782 -3.71093,-4.01563 0.69531,-0.16015 4.15234,-0.79687 7.67968,-1.41406 4.69922,-0.82031 8.3711,-1.90625 13.73438,-4.05078 l 7.32422,-2.92969 31.99218,16.07813 -26.02343,0.0273 -26.02344,0.0312 z m 0,0"
       id="path44"
       inkscape:connector-curvature="0" />
    <path
       style="fill:#8ab300;fill-opacity:1;fill-rule:nonzero;stroke:none"
       d="m 402.23828,175.92187 c -12.3125,-6.21093 -20.71484,-10.88671 -29.55078,-16.44531 -6.78516,-4.27344 -12.25391,-7.85547 -12.14844,-7.96484 0.10547,-0.10547 5.20703,-0.41406 11.33594,-0.6836 6.12891,-0.26953 18.21875,-1.32421 26.86719,-2.34765 13.26562,-1.57031 17.49609,-1.86328 27.0625,-1.86328 h 11.34375 l 0.79297,1.30468 c 0.4375,0.71485 10.19531,8.01563 21.6875,16.22266 l 20.89062,14.92188 0.16406,2.79296 0.16016,2.79688 -30.69922,-0.0312 -30.69531,-0.0273 z m 0,0"
       id="path46"
       inkscape:connector-curvature="0" />
    <path
       style="fill:#8ab300;fill-opacity:1;fill-rule:nonzero;stroke:none"
       d="m 461.01953,163.22656 -19.50391,-13.92969 h 32.21094 l 3.54297,3.95704 3.54297,3.96093 -0.14453,9.96875 -0.14844,9.97266 z m 0,0"
       id="path48"
       inkscape:connector-curvature="0" />
    <path
       style="fill:#e8b86e;fill-opacity:1;fill-rule:nonzero;stroke:none"
       d="m 351.40625,142.73437 c -6.14453,-7.01562 -6.28906,-7.24218 -12.58594,-19.76562 l -6.37109,-12.66406 2.51562,-0.37891 c 11.05078,-1.66015 16.35157,-1.94531 41.75,-2.24609 22.53907,-0.26953 27.05078,-0.19922 27.8086,0.42578 1.11328,0.91797 30.73047,36.20703 30.73047,36.61328 0,0.16016 -4.48438,0.29297 -9.96094,0.29297 -8.0586,0 -12.97656,0.36328 -25.80469,1.89453 -13.37109,1.60156 -30.58203,2.86719 -39.61328,2.91406 -2.22266,0.0117 -2.32813,-0.0781 -8.46875,-7.08594 z m 0,0"
       id="path50"
       inkscape:connector-curvature="0" />
    <path
       style="fill:#e8b86e;fill-opacity:1;fill-rule:nonzero;stroke:none"
       d="m 438.46094,146.07422 c -0.63282,-0.88672 -7.64453,-9.35938 -15.57813,-18.83203 -7.9375,-9.46875 -14.34375,-17.30469 -14.23437,-17.41406 0.10937,-0.10938 8.23047,0.64062 18.05078,1.66406 16.67969,1.73828 17.92969,1.9414 19.02734,3.08984 1.3086,1.375 25.49219,31.38281 26.14063,32.4375 0.32812,0.53125 -2.99219,0.67188 -15.92188,0.67188 h -16.33594 z m 0,0"
       id="path52"
       inkscape:connector-curvature="0" />
    <path
       style="fill:#e8b86e;fill-opacity:1;fill-rule:nonzero;stroke:none"
       d="M 476.94531,150.50391 C 474.98047,148.21875 467.46484,139 460.24219,130.01172 l -13.13282,-16.33984 5.72266,-0.33985 c 3.14844,-0.1914 10.72656,-0.47265 16.83984,-0.63281 l 11.11719,-0.28906 v 21.12109 c 0,11.61719 -0.0625,21.125 -0.13672,21.125 -0.0742,0 -1.74218,-1.87109 -3.70703,-4.15234 z m 0,0"
       id="path54"
       inkscape:connector-curvature="0" />
    <path
       style="fill:#3d85e8;fill-opacity:1;fill-rule:nonzero;stroke:none"
       d="m 139.4375,184.46875 c 0.24219,-0.23438 5.39453,-4.94141 11.44531,-10.46484 6.05469,-5.52344 13.95313,-12.75782 17.55078,-16.07813 3.59766,-3.32031 7.53907,-6.96094 8.76172,-8.08984 l 2.22266,-2.04688 23.125,0.004 23.12109,0.004 2.59766,3.1211 2.59375,3.11719 16.80859,15.37109 c 9.2461,8.45312 16.8086,15.39844 16.8086,15.42969 0,0.0352 -28.23047,0.0586 -62.73438,0.0586 H 139 Z m 0,0"
       id="path56"
       inkscape:connector-curvature="0" />
    <path
       style="fill:#3d85e8;fill-opacity:0.39215698;fill-rule:nonzero;stroke:none"
       d="m 181.20703,146.23828 c 0.12891,-0.12109 1.1875,-1.08203 2.34766,-2.14062 l 2.10937,-1.92188 17.64063,0.004 17.63672,0.004 1.38671,1.67969 c 0.75782,0.92188 1.53125,1.88281 1.71094,2.13281 0.31641,0.44141 -0.46484,0.45703 -21.37109,0.45703 -12.125,0 -21.59766,-0.0937 -21.46094,-0.21484 z m 0,0"
       id="path58"
       inkscape:connector-curvature="0" />
    <path
       style="fill:#3d85e8;fill-opacity:0.39215698;fill-rule:evenodd;stroke:none"
       d="m 181.61328,145.35937 -0.40625,1.10157 -0.40234,-1.10157 c 0.23828,0.17579 0.5625,0.17579 0.80859,0 z m 0,0"
       id="path60"
       inkscape:connector-curvature="0" />
    <path
       style="fill:none;stroke:#000000;stroke-width:1;stroke-linecap:round;stroke-linejoin:round;stroke-miterlimit:10;stroke-opacity:1"
       d="m 131.28516,185.66797 -27,-35"
       id="path62"
       inkscape:connector-curvature="0" />
    <path
       style="fill:none;stroke:#000000;stroke-width:1;stroke-linecap:round;stroke-linejoin:round;stroke-miterlimit:10;stroke-opacity:1"
       d="m 104.28516,150.66797 -82.000004,7"
       id="path64"
       inkscape:connector-curvature="0" />
    <path
       style="fill:none;stroke:#000000;stroke-width:1;stroke-linecap:round;stroke-linejoin:round;stroke-miterlimit:10;stroke-opacity:1"
       d="m 137.28516,185.66797 23,-21"
       id="path66"
       inkscape:connector-curvature="0" />
    <path
       style="fill:none;stroke:#000000;stroke-width:1;stroke-linecap:round;stroke-linejoin:round;stroke-miterlimit:10;stroke-opacity:1"
       d="m 160.28516,164.66797 -15,-14"
       id="path68"
       inkscape:connector-curvature="0" />
    <path
       style="fill:none;stroke:#000000;stroke-width:1;stroke-linecap:round;stroke-linejoin:round;stroke-miterlimit:10;stroke-opacity:1"
       d="m 145.28516,150.66797 -3,-3"
       id="path70"
       inkscape:connector-curvature="0" />
    <path
       style="fill:none;stroke:#000000;stroke-width:1;stroke-linecap:round;stroke-linejoin:round;stroke-miterlimit:10;stroke-opacity:1"
       d="m 142.28516,147.66797 -40,-1"
       id="path72"
       inkscape:connector-curvature="0" />
    <path
       style="fill:none;stroke:#000000;stroke-width:1;stroke-linecap:round;stroke-linejoin:round;stroke-miterlimit:10;stroke-opacity:1"
       d="m 102.28516,146.66797 2,4"
       id="path74"
       inkscape:connector-curvature="0" />
    <path
       style="fill:none;stroke:#000000;stroke-width:1;stroke-linecap:round;stroke-linejoin:round;stroke-miterlimit:10;stroke-opacity:1"
       d="m 160.28516,164.66797 13,-12"
       id="path76"
       inkscape:connector-curvature="0" />
    <path
       style="fill:none;stroke:#000000;stroke-width:1;stroke-linecap:round;stroke-linejoin:round;stroke-miterlimit:10;stroke-opacity:1"
       d="m 173.28516,152.66797 -28,-2"
       id="path78"
       inkscape:connector-curvature="0" />
    <path
       style="fill:none;stroke:#000000;stroke-width:1;stroke-linecap:round;stroke-linejoin:round;stroke-miterlimit:10;stroke-opacity:1"
       d="m 266.28516,185.66797 -35,-32"
       id="path80"
       inkscape:connector-curvature="0" />
    <path
       style="fill:none;stroke:#000000;stroke-width:1;stroke-linecap:round;stroke-linejoin:round;stroke-miterlimit:10;stroke-opacity:1"
       d="m 231.28516,153.66797 -10,-12"
       id="path82"
       inkscape:connector-curvature="0" />
    <path
       style="fill:none;stroke:#000000;stroke-width:1;stroke-linecap:round;stroke-linejoin:round;stroke-miterlimit:10;stroke-opacity:1"
       d="m 221.28516,141.66797 h -36"
       id="path84"
       inkscape:connector-curvature="0" />
    <path
       style="fill:none;stroke:#000000;stroke-width:1;stroke-linecap:round;stroke-linejoin:round;stroke-miterlimit:10;stroke-opacity:1"
       d="m 185.28516,141.66797 -12,11"
       id="path86"
       inkscape:connector-curvature="0" />
    <path
       style="fill:none;stroke:#000000;stroke-width:1;stroke-linecap:round;stroke-linejoin:round;stroke-miterlimit:10;stroke-opacity:1"
       d="m 296.28516,185.66797 -12,-9"
       id="path88"
       inkscape:connector-curvature="0" />
    <path
       style="fill:none;stroke:#000000;stroke-width:1;stroke-linecap:round;stroke-linejoin:round;stroke-miterlimit:10;stroke-opacity:1"
       d="m 284.28516,176.66797 -28,-24"
       id="path90"
       inkscape:connector-curvature="0" />
    <path
       style="fill:none;stroke:#000000;stroke-width:1;stroke-linecap:round;stroke-linejoin:round;stroke-miterlimit:10;stroke-opacity:1"
       d="m 256.28516,152.66797 -25,1"
       id="path92"
       inkscape:connector-curvature="0" />
    <path
       style="fill:none;stroke:#000000;stroke-width:1;stroke-linecap:round;stroke-linejoin:round;stroke-miterlimit:10;stroke-opacity:1"
       d="m 364.28516,185.66797 -12,-9"
       id="path94"
       inkscape:connector-curvature="0" />
    <path
       style="fill:none;stroke:#000000;stroke-width:1;stroke-linecap:round;stroke-linejoin:round;stroke-miterlimit:10;stroke-opacity:1"
       d="m 352.28516,176.66797 -12,-11"
       id="path96"
       inkscape:connector-curvature="0" />
    <path
       style="fill:none;stroke:#000000;stroke-width:1;stroke-linecap:round;stroke-linejoin:round;stroke-miterlimit:10;stroke-opacity:1"
       d="m 340.28516,165.66797 h -43"
       id="path98"
       inkscape:connector-curvature="0" />
    <path
       style="fill:none;stroke:#000000;stroke-width:1;stroke-linecap:round;stroke-linejoin:round;stroke-miterlimit:10;stroke-opacity:1"
       d="m 297.28516,165.66797 -6,3"
       id="path100"
       inkscape:connector-curvature="0" />
    <path
       style="fill:none;stroke:#000000;stroke-width:1;stroke-linecap:round;stroke-linejoin:round;stroke-miterlimit:10;stroke-opacity:1"
       d="m 291.28516,168.66797 -7,8"
       id="path102"
       inkscape:connector-curvature="0" />
    <path
       style="fill:none;stroke:#000000;stroke-width:1;stroke-linecap:round;stroke-linejoin:round;stroke-miterlimit:10;stroke-opacity:1"
       d="m 420.28516,185.66797 -36,-18"
       id="path104"
       inkscape:connector-curvature="0" />
    <path
       style="fill:none;stroke:#000000;stroke-width:1;stroke-linecap:round;stroke-linejoin:round;stroke-miterlimit:10;stroke-opacity:1"
       d="m 384.28516,167.66797 -15,6"
       id="path106"
       inkscape:connector-curvature="0" />
    <path
       style="fill:none;stroke:#000000;stroke-width:1;stroke-linecap:round;stroke-linejoin:round;stroke-miterlimit:10;stroke-opacity:1"
       d="m 369.28516,173.66797 -17,3"
       id="path108"
       inkscape:connector-curvature="0" />
    <path
       style="fill:none;stroke:#000000;stroke-width:1;stroke-linecap:round;stroke-linejoin:round;stroke-miterlimit:10;stroke-opacity:1"
       d="m 481.28516,178.66797 -42,-30"
       id="path110"
       inkscape:connector-curvature="0" />
    <path
       style="fill:none;stroke:#000000;stroke-width:1;stroke-linecap:round;stroke-linejoin:round;stroke-miterlimit:10;stroke-opacity:1"
       d="m 439.28516,148.66797 -2,-3"
       id="path112"
       inkscape:connector-curvature="0" />
    <path
       style="fill:none;stroke:#000000;stroke-width:1;stroke-linecap:round;stroke-linejoin:round;stroke-miterlimit:10;stroke-opacity:1"
       d="m 437.28516,145.66797 h -21"
       id="path114"
       inkscape:connector-curvature="0" />
    <path
       style="fill:none;stroke:#000000;stroke-width:1;stroke-linecap:round;stroke-linejoin:round;stroke-miterlimit:10;stroke-opacity:1"
       d="m 416.28516,145.66797 -34,4"
       id="path116"
       inkscape:connector-curvature="0" />
    <path
       style="fill:none;stroke:#000000;stroke-width:1;stroke-linecap:round;stroke-linejoin:round;stroke-miterlimit:10;stroke-opacity:1"
       d="m 382.28516,149.66797 -25,1"
       id="path118"
       inkscape:connector-curvature="0" />
    <path
       style="fill:none;stroke:#000000;stroke-width:1;stroke-linecap:round;stroke-linejoin:round;stroke-miterlimit:10;stroke-opacity:1"
       d="m 357.28516,150.66797 27,17"
       id="path120"
       inkscape:connector-curvature="0" />
    <path
       style="fill:none;stroke:#000000;stroke-width:1;stroke-linecap:round;stroke-linejoin:round;stroke-miterlimit:10;stroke-opacity:1"
       d="m 340.28516,165.66797 -10,-11"
       id="path122"
       inkscape:connector-curvature="0" />
    <path
       style="fill:none;stroke:#000000;stroke-width:1;stroke-linecap:round;stroke-linejoin:round;stroke-miterlimit:10;stroke-opacity:1"
       d="m 297.28516,165.66797 17,-10"
       id="path124"
       inkscape:connector-curvature="0" />
    <path
       style="fill:none;stroke:#000000;stroke-width:1;stroke-linecap:round;stroke-linejoin:round;stroke-miterlimit:10;stroke-opacity:1"
       d="m 102.28516,146.66797 -13.000004,-18"
       id="path126"
       inkscape:connector-curvature="0" />
    <path
       style="fill:none;stroke:#000000;stroke-width:1;stroke-linecap:round;stroke-linejoin:round;stroke-miterlimit:10;stroke-opacity:1"
       d="m 89.285156,128.66797 -6,-8"
       id="path128"
       inkscape:connector-curvature="0" />
    <path
       style="fill:none;stroke:#000000;stroke-width:1;stroke-linecap:round;stroke-linejoin:round;stroke-miterlimit:10;stroke-opacity:1"
       d="m 83.285156,120.66797 -61,2"
       id="path130"
       inkscape:connector-curvature="0" />
    <path
       style="fill:none;stroke:#000000;stroke-width:1;stroke-linecap:round;stroke-linejoin:round;stroke-miterlimit:10;stroke-opacity:1"
       d="m 142.28516,147.66797 -16,-19"
       id="path132"
       inkscape:connector-curvature="0" />
    <path
       style="fill:none;stroke:#000000;stroke-width:1;stroke-linecap:round;stroke-linejoin:round;stroke-miterlimit:10;stroke-opacity:1"
       d="m 126.28516,128.66797 -3,-3"
       id="path134"
       inkscape:connector-curvature="0" />
    <path
       style="fill:none;stroke:#000000;stroke-width:1;stroke-linecap:round;stroke-linejoin:round;stroke-miterlimit:10;stroke-opacity:1"
       d="m 123.28516,125.66797 -34.000004,3"
       id="path136"
       inkscape:connector-curvature="0" />
    <path
       style="fill:none;stroke:#000000;stroke-width:1;stroke-linecap:round;stroke-linejoin:round;stroke-miterlimit:10;stroke-opacity:1"
       d="m 185.28516,141.66797 18,-17"
       id="path138"
       inkscape:connector-curvature="0" />
    <path
       style="fill:none;stroke:#000000;stroke-width:1;stroke-linecap:round;stroke-linejoin:round;stroke-miterlimit:10;stroke-opacity:1"
       d="m 203.28516,124.66797 -77,4"
       id="path140"
       inkscape:connector-curvature="0" />
    <path
       style="fill:none;stroke:#000000;stroke-width:1;stroke-linecap:round;stroke-linejoin:round;stroke-miterlimit:10;stroke-opacity:1"
       d="m 215.28516,135.66797 6,6"
       id="path142"
       inkscape:connector-curvature="0" />
    <path
       style="fill:none;stroke:#000000;stroke-width:1;stroke-linecap:round;stroke-linejoin:round;stroke-miterlimit:10;stroke-opacity:1"
       d="m 256.28516,152.66797 -15,-14"
       id="path144"
       inkscape:connector-curvature="0" />
    <path
       style="fill:none;stroke:#000000;stroke-width:1;stroke-linecap:round;stroke-linejoin:round;stroke-miterlimit:10;stroke-opacity:1"
       d="m 241.28516,138.66797 -7,-9"
       id="path146"
       inkscape:connector-curvature="0" />
    <path
       style="fill:none;stroke:#000000;stroke-width:1;stroke-linecap:round;stroke-linejoin:round;stroke-miterlimit:10;stroke-opacity:1"
       d="m 234.28516,129.66797 h -12"
       id="path148"
       inkscape:connector-curvature="0" />
    <path
       style="fill:none;stroke:#000000;stroke-width:1;stroke-linecap:round;stroke-linejoin:round;stroke-miterlimit:10;stroke-opacity:1"
       d="m 222.28516,129.66797 -8,-2"
       id="path150"
       inkscape:connector-curvature="0" />
    <path
       style="fill:none;stroke:#000000;stroke-width:1;stroke-linecap:round;stroke-linejoin:round;stroke-miterlimit:10;stroke-opacity:1"
       d="m 214.28516,127.66797 -7,-7"
       id="path152"
       inkscape:connector-curvature="0" />
    <path
       style="fill:none;stroke:#000000;stroke-width:1;stroke-linecap:round;stroke-linejoin:round;stroke-miterlimit:10;stroke-opacity:1"
       d="m 207.28516,120.66797 -4,4"
       id="path154"
       inkscape:connector-curvature="0" />
    <path
       style="fill:none;stroke:#000000;stroke-width:1;stroke-linecap:round;stroke-linejoin:round;stroke-miterlimit:10;stroke-opacity:1"
       d="m 207.28516,120.66797 2,-5"
       id="path156"
       inkscape:connector-curvature="0" />
    <path
       style="fill:none;stroke:#000000;stroke-width:1;stroke-linecap:round;stroke-linejoin:round;stroke-miterlimit:10;stroke-opacity:1"
       d="m 357.28516,150.66797 -13,-15"
       id="path158"
       inkscape:connector-curvature="0" />
    <path
       style="fill:none;stroke:#000000;stroke-width:1;stroke-linecap:round;stroke-linejoin:round;stroke-miterlimit:10;stroke-opacity:1"
       d="m 344.28516,135.66797 -33,2"
       id="path160"
       inkscape:connector-curvature="0" />
    <path
       style="fill:none;stroke:#000000;stroke-width:1;stroke-linecap:round;stroke-linejoin:round;stroke-miterlimit:10;stroke-opacity:1"
       d="m 311.28516,137.66797 -70,1"
       id="path162"
       inkscape:connector-curvature="0" />
    <path
       style="fill:none;stroke:#000000;stroke-width:1;stroke-linecap:round;stroke-linejoin:round;stroke-miterlimit:10;stroke-opacity:1"
       d="m 481.28516,156.66797 -7,-8"
       id="path164"
       inkscape:connector-curvature="0" />
    <path
       style="fill:none;stroke:#000000;stroke-width:1;stroke-linecap:round;stroke-linejoin:round;stroke-miterlimit:10;stroke-opacity:1"
       d="m 474.28516,148.66797 h -35"
       id="path166"
       inkscape:connector-curvature="0" />
    <path
       style="fill:none;stroke:#000000;stroke-width:1;stroke-linecap:round;stroke-linejoin:round;stroke-miterlimit:10;stroke-opacity:1"
       d="m 83.285156,120.66797 -14,-22.000001"
       id="path168"
       inkscape:connector-curvature="0" />
    <path
       style="fill:none;stroke:#000000;stroke-width:1;stroke-linecap:round;stroke-linejoin:round;stroke-miterlimit:10;stroke-opacity:1"
       d="m 69.285156,98.667969 -3,-4"
       id="path170"
       inkscape:connector-curvature="0" />
    <path
       style="fill:none;stroke:#000000;stroke-width:1;stroke-linecap:round;stroke-linejoin:round;stroke-miterlimit:10;stroke-opacity:1"
       d="m 66.285156,94.667969 h -44"
       id="path172"
       inkscape:connector-curvature="0" />
    <path
       style="fill:none;stroke:#000000;stroke-width:1;stroke-linecap:round;stroke-linejoin:round;stroke-miterlimit:10;stroke-opacity:1"
       d="m 123.28516,125.66797 -22,-21"
       id="path174"
       inkscape:connector-curvature="0" />
    <path
       style="fill:none;stroke:#000000;stroke-width:1;stroke-linecap:round;stroke-linejoin:round;stroke-miterlimit:10;stroke-opacity:1"
       d="M 101.28516,104.66797 95.285156,97.667969"
       id="path176"
       inkscape:connector-curvature="0" />
    <path
       style="fill:none;stroke:#000000;stroke-width:1;stroke-linecap:round;stroke-linejoin:round;stroke-miterlimit:10;stroke-opacity:1"
       d="m 95.285156,97.667969 -26,1"
       id="path178"
       inkscape:connector-curvature="0" />
    <path
       style="fill:none;stroke:#000000;stroke-width:1;stroke-linecap:round;stroke-linejoin:round;stroke-miterlimit:10;stroke-opacity:1"
       d="m 234.28516,129.66797 -19,-27"
       id="path180"
       inkscape:connector-curvature="0" />
    <path
       style="fill:none;stroke:#000000;stroke-width:1;stroke-linecap:round;stroke-linejoin:round;stroke-miterlimit:10;stroke-opacity:1"
       d="m 215.28516,102.66797 -1,-1"
       id="path182"
       inkscape:connector-curvature="0" />
    <path
       style="fill:none;stroke:#000000;stroke-width:1;stroke-linecap:round;stroke-linejoin:round;stroke-miterlimit:10;stroke-opacity:1"
       d="m 214.28516,101.66797 -113,3"
       id="path184"
       inkscape:connector-curvature="0" />
    <path
       style="fill:none;stroke:#000000;stroke-width:1;stroke-linecap:round;stroke-linejoin:round;stroke-miterlimit:10;stroke-opacity:1"
       d="m 344.28516,135.66797 -13,-26"
       id="path186"
       inkscape:connector-curvature="0" />
    <path
       style="fill:none;stroke:#000000;stroke-width:1;stroke-linecap:round;stroke-linejoin:round;stroke-miterlimit:10;stroke-opacity:1"
       d="m 331.28516,109.66797 -5,-10.000001"
       id="path188"
       inkscape:connector-curvature="0" />
    <path
       style="fill:none;stroke:#000000;stroke-width:1;stroke-linecap:round;stroke-linejoin:round;stroke-miterlimit:10;stroke-opacity:1"
       d="m 326.28516,99.667969 -111,3.000001"
       id="path190"
       inkscape:connector-curvature="0" />
    <path
       style="fill:none;stroke:#000000;stroke-width:1;stroke-linecap:round;stroke-linejoin:round;stroke-miterlimit:10;stroke-opacity:1"
       d="m 437.28516,145.66797 -31,-37"
       id="path192"
       inkscape:connector-curvature="0" />
    <path
       style="fill:none;stroke:#000000;stroke-width:1;stroke-linecap:round;stroke-linejoin:round;stroke-miterlimit:10;stroke-opacity:1"
       d="m 406.28516,108.66797 -2,-2"
       id="path194"
       inkscape:connector-curvature="0" />
    <path
       style="fill:none;stroke:#000000;stroke-width:1;stroke-linecap:round;stroke-linejoin:round;stroke-miterlimit:10;stroke-opacity:1"
       d="m 404.28516,106.66797 h -35"
       id="path196"
       inkscape:connector-curvature="0" />
    <path
       style="fill:none;stroke:#000000;stroke-width:1;stroke-linecap:round;stroke-linejoin:round;stroke-miterlimit:10;stroke-opacity:1"
       d="m 369.28516,106.66797 -23,1"
       id="path198"
       inkscape:connector-curvature="0" />
    <path
       style="fill:none;stroke:#000000;stroke-width:1;stroke-linecap:round;stroke-linejoin:round;stroke-miterlimit:10;stroke-opacity:1"
       d="m 346.28516,107.66797 -15,2"
       id="path200"
       inkscape:connector-curvature="0" />
    <path
       style="fill:none;stroke:#000000;stroke-width:1;stroke-linecap:round;stroke-linejoin:round;stroke-miterlimit:10;stroke-opacity:1"
       d="m 474.28516,148.66797 -29,-36"
       id="path202"
       inkscape:connector-curvature="0" />
    <path
       style="fill:none;stroke:#000000;stroke-width:1;stroke-linecap:round;stroke-linejoin:round;stroke-miterlimit:10;stroke-opacity:1"
       d="m 445.28516,112.66797 -39,-4"
       id="path204"
       inkscape:connector-curvature="0" />
    <path
       style="fill:none;stroke:#000000;stroke-width:1;stroke-linecap:round;stroke-linejoin:round;stroke-miterlimit:10;stroke-opacity:1"
       d="m 445.28516,112.66797 -5,-6"
       id="path206"
       inkscape:connector-curvature="0" />
    <path
       style="fill:none;stroke:#000000;stroke-width:1;stroke-linecap:round;stroke-linejoin:round;stroke-miterlimit:10;stroke-opacity:1"
       d="m 481.28516,111.66797 -36,1"
       id="path208"
       inkscape:connector-curvature="0" />
    <path
       style="fill:none;stroke:#000000;stroke-width:1;stroke-linecap:round;stroke-linejoin:round;stroke-miterlimit:10;stroke-opacity:1"
       d="m 95.285156,97.667969 -10,-14"
       id="path210"
       inkscape:connector-curvature="0" />
    <path
       style="fill:none;stroke:#000000;stroke-width:1;stroke-linecap:round;stroke-linejoin:round;stroke-miterlimit:10;stroke-opacity:1"
       d="m 85.285156,83.667969 -5,-7"
       id="path212"
       inkscape:connector-curvature="0" />
    <path
       style="fill:none;stroke:#000000;stroke-width:1;stroke-linecap:round;stroke-linejoin:round;stroke-miterlimit:10;stroke-opacity:1"
       d="m 80.285156,76.667969 -58,2"
       id="path214"
       inkscape:connector-curvature="0" />
    <path
       style="fill:none;stroke:#000000;stroke-width:1;stroke-linecap:round;stroke-linejoin:round;stroke-miterlimit:10;stroke-opacity:1"
       d="m 214.28516,101.66797 -11,-14.000001"
       id="path216"
       inkscape:connector-curvature="0" />
    <path
       style="fill:none;stroke:#000000;stroke-width:1;stroke-linecap:round;stroke-linejoin:round;stroke-miterlimit:10;stroke-opacity:1"
       d="m 326.28516,99.667969 -8,-19"
       id="path218"
       inkscape:connector-curvature="0" />
    <path
       style="fill:none;stroke:#000000;stroke-width:1;stroke-linecap:round;stroke-linejoin:round;stroke-miterlimit:10;stroke-opacity:1"
       d="m 404.28516,106.66797 -7,-11.000001"
       id="path220"
       inkscape:connector-curvature="0" />
    <path
       style="fill:none;stroke:#000000;stroke-width:1;stroke-linecap:round;stroke-linejoin:round;stroke-miterlimit:10;stroke-opacity:1"
       d="m 481.28516,75.667969 -92,-1"
       id="path222"
       inkscape:connector-curvature="0" />
    <path
       style="fill:none;stroke:#000000;stroke-width:1;stroke-linecap:round;stroke-linejoin:round;stroke-miterlimit:10;stroke-opacity:1"
       d="m 389.28516,74.667969 h -73"
       id="path224"
       inkscape:connector-curvature="0" />
    <path
       style="fill:none;stroke:#000000;stroke-width:1;stroke-linecap:round;stroke-linejoin:round;stroke-miterlimit:10;stroke-opacity:1"
       d="m 316.28516,74.667969 -54,1"
       id="path226"
       inkscape:connector-curvature="0" />
    <path
       style="fill:none;stroke:#000000;stroke-width:1;stroke-linecap:round;stroke-linejoin:round;stroke-miterlimit:10;stroke-opacity:1"
       d="m 262.28516,75.667969 -92,5"
       id="path228"
       inkscape:connector-curvature="0" />
    <path
       style="fill:none;stroke:#000000;stroke-width:1;stroke-linecap:round;stroke-linejoin:round;stroke-miterlimit:10;stroke-opacity:1"
       d="m 170.28516,80.667969 -85.000004,3"
       id="path230"
       inkscape:connector-curvature="0" />
    <path
       style="fill:none;stroke:#000000;stroke-width:1;stroke-linecap:round;stroke-linejoin:round;stroke-miterlimit:10;stroke-opacity:1"
       d="m 80.285156,76.667969 -4,-15"
       id="path232"
       inkscape:connector-curvature="0" />
    <path
       style="fill:none;stroke:#000000;stroke-width:1;stroke-linecap:round;stroke-linejoin:round;stroke-miterlimit:4;stroke-opacity:1"
       d="m 179.28516,147.16797 h 46.58203"
       id="path234"
       inkscape:connector-curvature="0" />
    <path
       style="fill:none;stroke:#000000;stroke-width:1.5;stroke-linecap:butt;stroke-linejoin:miter;stroke-miterlimit:9.68421078;stroke-opacity:1"
       d="M 481.30078,76.023438 V 48.667969"
       id="path236"
       inkscape:connector-curvature="0" />
    <path
       style="fill:none;stroke:#000000;stroke-width:1.5;stroke-linecap:round;stroke-linejoin:round;stroke-miterlimit:9.68421078;stroke-opacity:1"
       d="M 22.285156,185.66797 H 131.28516"
       id="path238"
       inkscape:connector-curvature="0" />
    <path
       style="fill:none;stroke:#000000;stroke-width:1.5;stroke-linecap:round;stroke-linejoin:round;stroke-miterlimit:9.68421078;stroke-opacity:1"
       d="m 22.285156,157.66797 v 28"
       id="path240"
       inkscape:connector-curvature="0" />
    <path
       style="fill:none;stroke:#000000;stroke-width:1.5;stroke-linecap:round;stroke-linejoin:round;stroke-miterlimit:9.68421078;stroke-opacity:1"
       d="m 131.28516,185.66797 h 6"
       id="path242"
       inkscape:connector-curvature="0" />
    <path
       style="fill:none;stroke:#000000;stroke-width:1.5;stroke-linecap:round;stroke-linejoin:round;stroke-miterlimit:9.68421078;stroke-opacity:1"
       d="m 137.28516,185.66797 h 129"
       id="path244"
       inkscape:connector-curvature="0" />
    <path
       style="fill:none;stroke:#000000;stroke-width:1.5;stroke-linecap:round;stroke-linejoin:round;stroke-miterlimit:9.68421078;stroke-opacity:1"
       d="m 266.28516,185.66797 h 30"
       id="path246"
       inkscape:connector-curvature="0" />
    <path
       style="fill:none;stroke:#000000;stroke-width:1.5;stroke-linecap:round;stroke-linejoin:round;stroke-miterlimit:9.68421078;stroke-opacity:1"
       d="m 296.28516,185.66797 h 68"
       id="path248"
       inkscape:connector-curvature="0" />
    <path
       style="fill:none;stroke:#000000;stroke-width:1.5;stroke-linecap:round;stroke-linejoin:round;stroke-miterlimit:9.68421078;stroke-opacity:1"
       d="m 364.28516,185.66797 h 56"
       id="path250"
       inkscape:connector-curvature="0" />
    <path
       style="fill:none;stroke:#000000;stroke-width:1.5;stroke-linecap:round;stroke-linejoin:round;stroke-miterlimit:9.68421078;stroke-opacity:1"
       d="m 420.28516,185.66797 h 61"
       id="path252"
       inkscape:connector-curvature="0" />
    <path
       style="fill:none;stroke:#000000;stroke-width:1.5;stroke-linecap:round;stroke-linejoin:round;stroke-miterlimit:9.68421078;stroke-opacity:1"
       d="m 481.28516,185.66797 v -7"
       id="path254"
       inkscape:connector-curvature="0" />
    <path
       style="fill:none;stroke:#000000;stroke-width:1.5;stroke-linecap:round;stroke-linejoin:round;stroke-miterlimit:9.68421078;stroke-opacity:1"
       d="m 22.285156,122.66797 v 35"
       id="path256"
       inkscape:connector-curvature="0" />
    <path
       style="fill:none;stroke:#000000;stroke-width:1.5;stroke-linecap:round;stroke-linejoin:round;stroke-miterlimit:9.68421078;stroke-opacity:1"
       d="m 481.28516,178.66797 v -22"
       id="path258"
       inkscape:connector-curvature="0" />
    <path
       style="fill:none;stroke:#000000;stroke-width:1.5;stroke-linecap:round;stroke-linejoin:round;stroke-miterlimit:9.68421078;stroke-opacity:1"
       d="M 22.285156,94.667969 V 122.66797"
       id="path260"
       inkscape:connector-curvature="0" />
    <path
       style="fill:none;stroke:#000000;stroke-width:1.5;stroke-linecap:round;stroke-linejoin:round;stroke-miterlimit:9.68421078;stroke-opacity:1"
       d="m 481.28516,156.66797 v -45"
       id="path262"
       inkscape:connector-curvature="0" />
    <path
       style="fill:none;stroke:#000000;stroke-width:1.5;stroke-linecap:round;stroke-linejoin:round;stroke-miterlimit:9.68421078;stroke-opacity:1"
       d="m 22.285156,78.667969 v 16"
       id="path264"
       inkscape:connector-curvature="0" />
    <path
       style="fill:none;stroke:#000000;stroke-width:1.5;stroke-linecap:round;stroke-linejoin:round;stroke-miterlimit:9.68421078;stroke-opacity:1"
       d="M 481.28516,111.66797 V 75.667969"
       id="path266"
       inkscape:connector-curvature="0" />
    <path
       style="fill:none;stroke:#000000;stroke-width:1.5;stroke-linecap:round;stroke-linejoin:round;stroke-miterlimit:9.68421078;stroke-opacity:1"
       d="m 481.28516,75.667969 v -27"
       id="path268"
       inkscape:connector-curvature="0" />
    <path
       style="fill:none;stroke:#000000;stroke-width:1.5;stroke-linecap:round;stroke-linejoin:round;stroke-miterlimit:9.68421078;stroke-opacity:1"
       d="M 481.28516,48.667969 H 22.285156"
       id="path270"
       inkscape:connector-curvature="0" />
    <path
       style="fill:none;stroke:#000000;stroke-width:1.5;stroke-linecap:round;stroke-linejoin:round;stroke-miterlimit:9.68421078;stroke-opacity:1"
       d="m 22.285156,48.667969 v 30"
       id="path272"
       inkscape:connector-curvature="0" />
    <path
       style="fill:none;stroke:#000000;stroke-width:1.5;stroke-linecap:round;stroke-linejoin:round;stroke-miterlimit:4;stroke-opacity:1"
       d="M 22.285156,48.667969 V 2.269531"
       id="path274"
       inkscape:connector-curvature="0" />
    <path
       style="fill:#000000;fill-opacity:1;fill-rule:evenodd;stroke:#000000;stroke-width:0.5625;stroke-linecap:butt;stroke-linejoin:round;stroke-miterlimit:4;stroke-opacity:1"
       d="m 10.113281,-18.652344 -9.832031,-3.617187 9.832031,-3.617188 c -1.570312,2.136719 -1.5625,5.054688 0,7.234375 z m 0,0"
       transform="rotate(90)"
       id="path276"
       inkscape:connector-curvature="0" />
    <path
       style="fill:none;stroke:#000000;stroke-width:1.5;stroke-linecap:round;stroke-linejoin:round;stroke-miterlimit:4;stroke-opacity:1"
       d="m 480.80078,185.66797 h 32.06641"
       id="path278"
       inkscape:connector-curvature="0" />
    <path
       style="fill:#000000;fill-opacity:1;fill-rule:evenodd;stroke:none"
       d="m 505.01953,182.03516 9.83203,3.61718 -9.83203,3.61719 c 1.57031,-2.13672 1.5625,-5.05469 0,-7.23437 z m 0,0"
       id="path280"
       inkscape:connector-curvature="0" />
    <g
       clip-path="url(#clip1)"
       id="g284"
       style="clip-rule:nonzero">
      <path
         style="fill:none;stroke:#000000;stroke-width:0.5625;stroke-linecap:butt;stroke-linejoin:round;stroke-miterlimit:4;stroke-opacity:1"
         d="m -505.01953,-182.03516 -9.83203,-3.61718 9.83203,-3.61719 c -1.57031,2.13672 -1.5625,5.05469 0,7.23437 z m 0,0"
         transform="scale(-1)"
         id="path282"
         inkscape:connector-curvature="0" />
    </g>
    <path
       style="fill:#000000;fill-opacity:1;fill-rule:nonzero;stroke:none"
       d="m 509.53906,208.94141 c -0.17187,0.20703 -0.27734,0.34765 -0.48828,0.59375 -0.48828,0.69921 -0.76953,0.90625 -1.01172,0.90625 -0.3164,0 -0.52734,-0.27735 -0.69922,-0.90625 -0.0351,-0.17579 -0.0703,-0.31641 -0.0703,-0.38672 -0.55859,-2.26953 -0.80469,-3.28125 -0.80469,-3.59766 0.98047,-1.74609 1.78125,-2.72656 2.16797,-2.72656 0.14063,0 0.3125,0.0703 0.5586,0.17578 0.24218,0.17578 0.41796,0.21094 0.59375,0.21094 0.45312,0 0.76953,-0.31641 0.76953,-0.80469 0,-0.45313 -0.38672,-0.80469 -0.91016,-0.80469 -0.97656,0 -1.81641,0.80469 -3.35547,3.17969 l -0.24219,-1.22266 c -0.3164,-1.53515 -0.55859,-1.95703 -1.1875,-1.95703 -0.49218,0 -1.22265,0.17578 -2.58593,0.62891 l -0.2461,0.10547 0.0703,0.3164 c 0.875,-0.17578 1.04687,-0.24609 1.25781,-0.24609 0.55859,0 0.69922,0.21094 1.01172,1.53906 l 0.6289,2.75781 -1.8164,2.58594 c -0.45313,0.69922 -0.90625,1.08594 -1.15235,1.08594 -0.10547,0 -0.34765,-0.0703 -0.55859,-0.21094 -0.28125,-0.14062 -0.52344,-0.21094 -0.73438,-0.21094 -0.41796,0 -0.73437,0.31641 -0.73437,0.76954 0,0.59375 0.45703,0.94531 1.12109,0.94531 0.66407,0 0.94141,-0.21094 2.0586,-1.57422 0.59375,-0.69922 1.08593,-1.29297 1.99218,-2.58594 l 0.69922,2.65625 c 0.28125,1.15235 0.5586,1.50391 1.29297,1.50391 0.83985,0 1.39844,-0.52735 2.69141,-2.55078 z m 0,0"
       id="path286"
       inkscape:connector-curvature="0" />
    <path
       style="fill:#000000;fill-opacity:1;fill-rule:nonzero;stroke:none"
       d="M 1.851562,10.300781 C 2.304688,9.179688 2.585938,8.972656 3.632812,8.972656 H 6.917969 L 0,17.289062 0.175781,17.460938 c 0.382813,-0.277344 0.664063,-0.382813 1.046875,-0.382813 0.523438,0 1.257813,0.277344 2.304688,0.941406 C 4.648438,18.683594 5.414062,19 6.042969,19 c 1.121093,0 2.097656,-0.804688 2.097656,-1.710938 0,-0.457031 -0.3125,-0.804687 -0.804687,-0.804687 -0.417969,0 -0.730469,0.3125 -0.730469,0.699219 0,0.207031 0.035156,0.417968 0.171875,0.664062 0.070312,0.136719 0.140625,0.277344 0.140625,0.347656 0,0.175782 -0.277344,0.316407 -0.628907,0.316407 -0.558593,0 -0.804687,-0.175781 -1.535156,-1.121094 C 3.773438,16.132812 3.320312,15.855469 2.027344,15.539062 L 8.492188,7.886719 V 7.644531 H 2.167969 L 1.46875,10.195312 Z m 0,0"
       id="path288"
       inkscape:connector-curvature="0" />
    <path
       style="fill:#000000;fill-opacity:1;fill-rule:nonzero;stroke:none"
       d="m 247.42084,232.62063 -6.22266,-15.09375 h -0.38281 l -6.64063,15.09375 z m -2.58594,-0.94141 h -9.19141 l 4.78907,-10.83203 z m 0,0"
       id="path290"
       inkscape:connector-curvature="0" />
    <g
       clip-path="url(#clip2)"
       id="g294"
       transform="translate(45.663025,-13.121559)"
       style="clip-rule:nonzero">
      <path
         style="fill:#000000;fill-opacity:1;fill-rule:nonzero;stroke:none"
         d="m 205.24219,236.72656 h 0.48828 c 0,0 0.0703,0 0.0703,0 0.31641,-0.13672 0.875,0.28125 0.875,0.59375 0,0.21094 -0.80469,3.39063 -1.57422,6.32422 -0.59375,2.23828 -1.15234,4.33594 -1.29297,5 -0.24218,1.01172 -0.52343,1.29297 -1.5,1.32422 v 0.35156 h 4.57813 v -0.35156 c -1.05078,0 -1.4336,-0.20703 -1.4336,-0.66406 0,-0.3125 0.38282,-2.0586 0.83985,-3.70313 0.55859,0.28125 0.9414,0.38672 1.46484,0.38672 3.25,0 6.67578,-3.73828 6.67578,-7.30469 0,-1.71093 -0.98047,-2.75781 -2.55078,-2.75781 -1.46875,0 -2.51562,0.69531 -3.80859,2.51563 l 0.6289,-2.23829 0.0703,-0.21093 c 0,0 0,0 -0.0352,-0.0664 h -0.0352 c 0,-0.0352 -0.0352,-0.0352 -0.0352,-0.0352 l -0.0352,0.0352 -3.46094,0.48828 z m 5.80078,0.14063 c 0.97656,0.0352 1.39844,0.6289 1.39844,1.92187 0,1.46875 -0.66407,3.39063 -1.60938,4.75391 -0.94141,1.32422 -2.02344,2.02344 -3.17969,2.02344 -0.6289,0 -1.04687,-0.34766 -1.04687,-0.83594 0,-0.73438 0.80469,-3.67188 1.43359,-5.3125 0.59375,-1.53906 1.88672,-2.6211 3.00391,-2.55078 z m 0,0"
         id="path292"
         inkscape:connector-curvature="0" />
    </g>
    <path
       style="fill:none;stroke:#000000;stroke-width:0.79499203;stroke-linecap:butt;stroke-linejoin:miter;stroke-miterlimit:4;stroke-dasharray:2.384977, 0.794992;stroke-opacity:1"
       d="m 203.44141,144.91016 c 7.28906,1.52343 13.58593,0.70312 18.98046,8.75781 14.11719,21.07422 -36.97265,23.22265 -15.12109,47.69531 7.53125,8.43359 16.42969,17.02344 24.38281,24.65234"
       id="path310"
       inkscape:connector-curvature="0" />
    <path
       style="fill:#000000;fill-opacity:1;fill-rule:evenodd;stroke:#000000;stroke-width:0.29181099;stroke-linecap:butt;stroke-linejoin:round;stroke-miterlimit:4;stroke-opacity:1"
       d="m 228.02393,99.963816 -5.10288,-1.874374 5.10011,-1.875047 c -0.8152,1.107961 -0.80722,2.621917 0.003,3.749421 z m 0,0"
       transform="matrix(1,0.209104,-0.209104,1,0,0)"
       id="path312"
       inkscape:connector-curvature="0" />
    <path
       style="fill:#dcdcdc;fill-opacity:1;fill-rule:nonzero;stroke:#000000;stroke-width:0.69973701;stroke-linecap:butt;stroke-linejoin:miter;stroke-miterlimit:10;stroke-opacity:1"
       d="m 25.582031,186.61668 c 0,1.8216 -1.476562,3.30166 -3.296875,3.30166 -1.824218,0 -3.300781,-1.48006 -3.300781,-3.30166 0,-1.82161 1.476563,-3.30167 3.300781,-3.30167 1.820313,0 3.296875,1.48006 3.296875,3.30167 z m 0,0"
       transform="scale(1,0.995)"
       id="path314"
       inkscape:connector-curvature="0" />
    <path
       style="fill:#dcdcdc;fill-opacity:1;fill-rule:nonzero;stroke:#000000;stroke-width:0.69798499;stroke-linecap:butt;stroke-linejoin:miter;stroke-miterlimit:10;stroke-opacity:1"
       d="m 484.59766,48.667969 c 0,1.8125 -1.47657,3.285156 -3.29688,3.285156 -1.82031,0 -3.29687,-1.472656 -3.29687,-3.285156 0,-1.8125 1.47656,-3.285157 3.29687,-3.285157 1.82031,0 3.29688,1.472657 3.29688,3.285157 z m 0,0"
       id="path316"
       inkscape:connector-curvature="0" />
    <path
       style="fill:#000000;fill-opacity:1;fill-rule:nonzero;stroke:none"
       d="m 421.97656,23.152344 c -1.64453,1.046875 -2.30859,1.640625 -3.14453,2.65625 -1.57422,1.957031 -2.34375,4.191406 -2.34375,6.777344 0,2.832031 0.80469,5.03125 2.76172,7.304687 0.94141,1.046875 1.50391,1.570313 2.65625,2.269531 l 0.27734,-0.347656 c -1.78125,-1.398438 -2.41015,-2.203125 -3.0039,-3.878906 -0.52344,-1.46875 -0.80469,-3.179688 -0.80469,-5.417969 0,-2.339844 0.31641,-4.15625 0.91016,-5.554687 0.6289,-1.363282 1.29296,-2.167969 2.89843,-3.460938 z m 0,0"
       id="path318"
       inkscape:connector-curvature="0" />
    <path
       style="fill:#000000;fill-opacity:1;fill-rule:nonzero;stroke:none"
       d="m 429.32422,23.152344 -4.01953,2.027344 v 0.3125 c 0.24609,-0.105469 0.49218,-0.207032 0.59375,-0.242188 0.42187,-0.175781 0.76953,-0.246094 1.01562,-0.246094 0.45313,0 0.66406,0.316406 0.66406,1.046875 v 10.101563 c 0,0.730468 -0.17578,1.222656 -0.52343,1.429687 -0.35157,0.210938 -0.66407,0.28125 -1.60938,0.28125 v 0.347657 h 6.14844 v -0.347657 c -1.74609,0 -2.09375,-0.246093 -2.09375,-1.292969 V 23.1875 Z m 0,0"
       id="path320"
       inkscape:connector-curvature="0" />
    <path
       style="fill:#000000;fill-opacity:1;fill-rule:nonzero;stroke:none"
       d="m 439.625,23.152344 c -1.22266,0 -2.16797,0.382812 -2.96875,1.152344 -1.29297,1.257812 -2.16797,3.808593 -2.16797,6.429687 0,2.410156 0.73438,5.03125 1.78125,6.289063 0.83984,0.980468 1.95703,1.503906 3.28516,1.503906 1.11718,0 2.0625,-0.386719 2.86718,-1.152344 1.29297,-1.222656 2.16407,-3.808594 2.16407,-6.535156 0,-4.542969 -2.02735,-7.6875 -4.96094,-7.6875 z m -0.0703,0.558594 c 1.88672,0 2.86718,2.515624 2.86718,7.199218 0,4.644532 -0.98046,7.023438 -2.86718,7.023438 -1.92188,0 -2.89844,-2.378906 -2.89844,-7.023438 0,-4.71875 0.97656,-7.199218 2.89844,-7.199218 z m 0,0"
       id="path322"
       inkscape:connector-curvature="0" />
    <path
       style="fill:#000000;fill-opacity:1;fill-rule:nonzero;stroke:none"
       d="m 450.8125,24.339844 c 0.31641,-0.03516 0.52344,-0.07031 0.73437,-0.07031 0.73438,0 0.94532,0.316407 0.94532,1.363281 v 10.761719 c 0,1.152344 -0.0703,1.222657 -1.67969,1.46875 v 0.347657 h 5.24219 v -0.347657 h -0.45313 c -0.91015,-0.03516 -1.22265,-0.351562 -1.22265,-1.152343 v -4.089844 l 3.10937,4.160156 0.0703,0.101562 c 0.0352,0.07031 0.10157,0.140626 0.17188,0.175782 0.17578,0.246094 0.24609,0.386718 0.24609,0.488281 0,0.210937 -0.21094,0.316406 -0.48828,0.316406 h -0.42187 v 0.347657 h 4.85937 v -0.347657 c -0.98047,-0.03516 -1.67969,-0.488281 -2.58594,-1.609375 l -3.42578,-4.332031 0.62891,-0.59375 c 1.60937,-1.46875 2.97265,-2.515625 3.63672,-2.691406 0.3125,-0.07031 0.6289,-0.136719 1.01172,-0.136719 h 0.17578 v -0.316406 h -4.54297 V 28.5 c 0.87109,0 1.11719,0.101562 1.11719,0.417969 0,0.175781 -0.21094,0.488281 -0.52344,0.769531 l -3.03906,2.6875 v -9.328125 l -0.10547,-0.07031 c -0.83985,0.28125 -1.46875,0.457032 -2.76172,0.804688 l -0.69922,0.175781 z m 0,0"
       id="path324"
       inkscape:connector-curvature="0" />
    <path
       style="fill:#000000;fill-opacity:1;fill-rule:nonzero;stroke:none"
       d="m 462.23047,29.335938 c 0.28125,-0.07031 0.49219,-0.07031 0.73437,-0.07031 0.5586,0 0.76953,0.351563 0.76953,1.398437 v 5.660157 c 0,1.1875 -0.3125,1.539062 -1.57031,1.539062 v 0.347657 h 4.96094 v -0.347657 c -1.1875,-0.03516 -1.53906,-0.28125 -1.53906,-1.152343 v -6.289063 c 0,-0.03516 0.21093,-0.246094 0.35156,-0.421875 0.55859,-0.488281 1.5,-0.871094 2.30469,-0.871094 0.97656,0 1.46875,0.765625 1.46875,2.339844 v 4.820312 c 0,1.257813 -0.2461,1.503907 -1.53907,1.574219 v 0.347657 h 4.9961 v -0.347657 c -1.25781,0 -1.60547,-0.386719 -1.60547,-1.78125 v -5.59375 c 0.69922,-0.976562 1.43359,-1.359375 2.44531,-1.359375 1.25781,0 1.67578,0.59375 1.67578,2.445313 v 4.679687 c 0,1.292969 -0.17187,1.46875 -1.46484,1.609375 v 0.347657 h 4.85547 v -0.347657 l -0.5586,-0.03516 c -0.66406,-0.03516 -0.98046,-0.453125 -0.98046,-1.292969 v -4.613281 c 0,-2.621094 -0.83594,-3.949219 -2.58594,-3.949219 -1.28906,0 -2.41016,0.5625 -3.63281,1.855469 -0.38282,-1.261719 -1.15235,-1.855469 -2.33985,-1.855469 -0.98047,0 -1.60937,0.28125 -3.46094,1.714844 v -1.679688 l -0.17187,-0.03516 c -1.12109,0.421875 -1.88672,0.664063 -3.11328,0.980469 z m 0,0"
       id="path326"
       inkscape:connector-curvature="0" />
    <path
       style="fill:#000000;fill-opacity:1;fill-rule:nonzero;stroke:none"
       d="m 480.99609,41.355469 c 1.50391,-0.730469 2.48438,-2.09375 2.48438,-3.421875 0,-1.117188 -0.76953,-1.992188 -1.78516,-1.992188 -0.76562,0 -1.29297,0.523438 -1.29297,1.257813 0,0.734375 0.49219,1.152343 1.29297,1.152343 0.14063,0 0.31641,-0.03516 0.42188,-0.03516 0.17187,-0.07031 0.17187,-0.07031 0.20703,-0.07031 0.17578,0 0.3164,0.140625 0.3164,0.316406 0,0.734375 -0.6289,1.535156 -1.85156,2.375 z m 0,0"
       id="path328"
       inkscape:connector-curvature="0" />
    <path
       style="fill:#000000;fill-opacity:1;fill-rule:nonzero;stroke:none"
       d="m 495.94531,23.152344 c -1.22265,0 -2.16406,0.382812 -2.96875,1.152344 -1.29297,1.257812 -2.16797,3.808593 -2.16797,6.429687 0,2.410156 0.73438,5.03125 1.78125,6.289063 0.83985,0.980468 1.95703,1.503906 3.28516,1.503906 1.12109,0 2.0625,-0.386719 2.86719,-1.152344 1.29297,-1.222656 2.16406,-3.808594 2.16406,-6.535156 0,-4.542969 -2.02344,-7.6875 -4.96094,-7.6875 z m -0.0703,0.558594 c 1.88672,0 2.86719,2.515624 2.86719,7.199218 0,4.644532 -0.98047,7.023438 -2.86719,7.023438 -1.92188,0 -2.89844,-2.378906 -2.89844,-7.023438 0,-4.71875 0.97656,-7.199218 2.89844,-7.199218 z m 0,0"
       id="path330"
       inkscape:connector-curvature="0" />
    <path
       style="fill:#000000;fill-opacity:1;fill-rule:nonzero;stroke:none"
       d="m 502.26172,42.160156 c 1.64453,-1.082031 2.34375,-1.640625 3.14844,-2.691406 1.60546,-1.921875 2.375,-4.15625 2.375,-6.777344 0,-2.832031 -0.83985,-4.996094 -2.79688,-7.269531 -0.90625,-1.082031 -1.5,-1.570313 -2.65625,-2.269531 L 502.08984,23.5 c 1.78125,1.398438 2.375,2.167969 3.00391,3.84375 0.52344,1.503906 0.76953,3.214844 0.76953,5.417969 0,2.339843 -0.28125,4.191406 -0.91016,5.554687 -0.59375,1.398438 -1.29296,2.203125 -2.86328,3.496094 z m 0,0"
       id="path332"
       inkscape:connector-curvature="0" />
    <path
       style="fill:#000000;fill-opacity:1;fill-rule:nonzero;stroke:none"
       d="m 7.535156,192.42578 c -1.640625,1.04688 -2.304687,1.64063 -3.144531,2.65625 -1.570313,1.95703 -2.339844,4.19141 -2.339844,6.77734 0,2.83204 0.804688,5.03125 2.761719,7.30469 0.941406,1.04688 1.5,1.57031 2.652344,2.26953 l 0.28125,-0.34765 C 5.964844,209.6875 5.335938,208.88281 4.742188,207.20703 4.21875,205.73828 3.9375,204.02734 3.9375,201.78906 c 0,-2.33984 0.3125,-4.15625 0.910156,-5.55469 0.628906,-1.36328 1.292969,-2.16796 2.898438,-3.46093 z m 0,0"
       id="path334"
       inkscape:connector-curvature="0" />
    <path
       style="fill:#000000;fill-opacity:1;fill-rule:nonzero;stroke:none"
       d="m 14.046875,192.42578 c -1.222656,0 -2.167969,0.38281 -2.96875,1.15234 -1.292969,1.25782 -2.167969,3.8086 -2.167969,6.42969 0,2.41016 0.734375,5.03125 1.78125,6.28906 0.839844,0.98047 1.957032,1.50391 3.285156,1.50391 1.117188,0 2.0625,-0.38672 2.867188,-1.15234 1.292969,-1.22266 2.164062,-3.8086 2.164062,-6.53516 0,-4.54297 -2.027343,-7.6875 -4.960937,-7.6875 z m -0.07031,0.55859 c 1.886719,0 2.867188,2.51563 2.867188,7.19922 0,4.64453 -0.980469,7.02344 -2.867188,7.02344 -1.921874,0 -2.898437,-2.37891 -2.898437,-7.02344 0,-4.71875 0.976563,-7.19922 2.898437,-7.19922 z m 0,0"
       id="path336"
       inkscape:connector-curvature="0" />
    <path
       style="fill:#000000;fill-opacity:1;fill-rule:nonzero;stroke:none"
       d="m 21.378906,210.62891 c 1.5,-0.73438 2.480469,-2.09375 2.480469,-3.42188 0,-1.12109 -0.769531,-1.99219 -1.78125,-1.99219 -0.769531,0 -1.292969,0.52344 -1.292969,1.25782 0,0.73437 0.488282,1.15234 1.292969,1.15234 0.136719,0 0.3125,-0.0352 0.417969,-0.0352 0.175781,-0.0703 0.175781,-0.0703 0.210937,-0.0703 0.171875,0 0.3125,0.14063 0.3125,0.31641 0,0.73437 -0.628906,1.53515 -1.851562,2.375 z m 0,0"
       id="path338"
       inkscape:connector-curvature="0" />
    <path
       style="fill:#000000;fill-opacity:1;fill-rule:nonzero;stroke:none"
       d="m 31.539062,201.75391 h 5.484376 v 1.39843 h -5.484376 z m 0,0"
       id="path340"
       inkscape:connector-curvature="0" />
    <path
       style="fill:#000000;fill-opacity:1;fill-rule:nonzero;stroke:none"
       d="m 41.507812,200.11328 c 1.292969,0 1.816407,0.0703 2.339844,0.24219 1.398438,0.52734 2.273438,1.78515 2.273438,3.32031 0,1.85156 -1.292969,3.32031 -2.9375,3.32031 -0.59375,0 -1.046875,-0.17578 -1.851563,-0.69922 -0.699219,-0.38281 -1.046875,-0.55859 -1.429687,-0.55859 -0.527344,0 -0.875,0.31641 -0.875,0.80469 0,0.76953 0.976562,1.25781 2.550781,1.25781 1.710937,0 3.460937,-0.59375 4.507813,-1.50391 1.046874,-0.90625 1.640624,-2.19921 1.640624,-3.70312 0,-1.11719 -0.382812,-2.16797 -1.011718,-2.86719 -0.453125,-0.48828 -0.875,-0.76562 -1.851563,-1.1875 1.535157,-1.04687 2.097657,-1.85156 2.097657,-3.07422 0,-1.8164 -1.433594,-3.03906 -3.496094,-3.03906 -1.117188,0 -2.097656,0.38281 -2.898438,1.08203 -0.664062,0.59375 -0.980468,1.1875 -1.46875,2.51563 l 0.3125,0.10547 c 0.910156,-1.64063 1.921875,-2.375 3.320313,-2.375 1.46875,0 2.480469,0.97656 2.480469,2.375 0,0.80468 -0.347657,1.60937 -0.90625,2.16796 -0.664063,0.66407 -1.292969,1.01172 -2.796876,1.53516 z m 0,0"
       id="path342"
       inkscape:connector-curvature="0" />
    <path
       style="fill:#000000;fill-opacity:1;fill-rule:nonzero;stroke:none"
       d="m 54.933594,193.61328 c 0.3125,-0.0352 0.523437,-0.0703 0.734375,-0.0703 0.734375,0 0.941406,0.3164 0.941406,1.36328 v 10.76172 c 0,1.15234 -0.07031,1.22265 -1.675781,1.46875 v 0.34765 h 5.242187 v -0.34765 H 59.71875 c -0.90625,-0.0352 -1.222656,-0.35156 -1.222656,-1.15235 v -4.08984 l 3.109375,4.16016 0.07031,0.10156 c 0.03516,0.0703 0.105469,0.14062 0.175781,0.17578 0.175782,0.24609 0.246094,0.38281 0.246094,0.48828 0,0.21094 -0.210937,0.31641 -0.492187,0.31641 H 61.1875 v 0.34765 h 4.855469 v -0.34765 c -0.976563,-0.0352 -1.675781,-0.48828 -2.585938,-1.60938 l -3.421875,-4.33203 0.628906,-0.59375 c 1.605469,-1.46875 2.96875,-2.51562 3.632813,-2.6914 0.316406,-0.0703 0.628906,-0.13672 1.015625,-0.13672 h 0.171875 v -0.31641 h -4.542969 v 0.31641 c 0.875,0 1.121094,0.10156 1.121094,0.41797 0,0.17578 -0.210938,0.48828 -0.527344,0.76953 l -3.039062,2.6875 v -9.32813 L 58.390625,192.25 c -0.835937,0.28125 -1.464844,0.45703 -2.757813,0.80469 l -0.699218,0.17578 z m 0,0"
       id="path344"
       inkscape:connector-curvature="0" />
    <path
       style="fill:#000000;fill-opacity:1;fill-rule:nonzero;stroke:none"
       d="m 66.351562,198.60937 c 0.28125,-0.0703 0.488282,-0.0703 0.734376,-0.0703 0.558593,0 0.769531,0.35156 0.769531,1.39844 v 5.66016 c 0,1.1875 -0.316407,1.53906 -1.574219,1.53906 v 0.34765 h 4.960938 v -0.34765 c -1.1875,-0.0352 -1.535157,-0.28125 -1.535157,-1.15235 v -6.28906 c 0,-0.0352 0.207031,-0.24609 0.347657,-0.42187 0.558593,-0.48828 1.503906,-0.8711 2.308593,-0.8711 0.976563,0 1.464844,0.76563 1.464844,2.33985 v 4.82031 c 0,1.25781 -0.242187,1.50391 -1.535156,1.57422 v 0.34765 h 4.996093 v -0.34765 c -1.257812,0 -1.609374,-0.38672 -1.609374,-1.78125 v -5.59375 c 0.699218,-0.97656 1.433593,-1.35938 2.449218,-1.35938 1.257813,0 1.675782,0.59375 1.675782,2.44532 v 4.67968 c 0,1.29297 -0.175782,1.46875 -1.46875,1.60938 v 0.34765 h 4.859374 v -0.34765 l -0.5625,-0.0352 c -0.660156,-0.0352 -0.976562,-0.45312 -0.976562,-1.29297 v -4.61328 c 0,-2.62109 -0.839844,-3.94922 -2.585938,-3.94922 -1.292968,0 -2.410156,0.5625 -3.632812,1.85157 -0.386719,-1.25782 -1.152344,-1.85157 -2.34375,-1.85157 -0.976562,0 -1.605469,0.28125 -3.457031,1.71485 v -1.67969 l -0.175781,-0.0352 c -1.117188,0.42188 -1.886719,0.66407 -3.109376,0.98047 z m 0,0"
       id="path346"
       inkscape:connector-curvature="0" />
    <path
       style="fill:#000000;fill-opacity:1;fill-rule:nonzero;stroke:none"
       d="m 84.105469,211.43359 c 1.640625,-1.08203 2.339843,-1.64062 3.144531,-2.6914 1.605469,-1.92188 2.375,-4.15625 2.375,-6.77735 0,-2.83203 -0.839844,-4.99609 -2.796875,-7.26953 -0.90625,-1.08203 -1.5,-1.57031 -2.652344,-2.26953 l -0.246093,0.34766 c 1.78125,1.39843 2.375,2.16797 3.003906,3.84375 0.523437,1.5039 0.769531,3.21484 0.769531,5.41797 0,2.33984 -0.28125,4.1914 -0.910156,5.55468 -0.59375,1.39844 -1.292969,2.20313 -2.863281,3.4961 z m 0,0"
       id="path348"
       inkscape:connector-curvature="0" />
  </g>
</svg>
