<?xml version="1.0" encoding="UTF-8" standalone="no"?>
<!-- Created with Inkscape (http://www.inkscape.org/) -->

<svg
   xmlns:dc="http://purl.org/dc/elements/1.1/"
   xmlns:cc="http://creativecommons.org/ns#"
   xmlns:rdf="http://www.w3.org/1999/02/22-rdf-syntax-ns#"
   xmlns:svg="http://www.w3.org/2000/svg"
   xmlns="http://www.w3.org/2000/svg"
   xmlns:sodipodi="http://sodipodi.sourceforge.net/DTD/sodipodi-0.dtd"
   xmlns:inkscape="http://www.inkscape.org/namespaces/inkscape"
   version="1.1"
   id="svg2"
   xml:space="preserve"
   width="332.29898"
   height="237.19814"
   viewBox="0 0 332.29898 237.19813"
   sodipodi:docname="multigrid_schematic.svg"
   inkscape:version="0.92.5 (2060ec1f9f, 2020-04-08)"><metadata
     id="metadata8"><rdf:RDF><cc:Work
         rdf:about=""><dc:format>image/svg+xml</dc:format><dc:type
           rdf:resource="http://purl.org/dc/dcmitype/StillImage" /><dc:title></dc:title></cc:Work></rdf:RDF></metadata><defs
     id="defs6"><clipPath
       clipPathUnits="userSpaceOnUse"
       id="clipPath748"><path
         d="M 0,0 H 538.17694 V 321.78476 H 0 Z"
         id="path746"
         inkscape:connector-curvature="0" /></clipPath></defs><sodipodi:namedview
     pagecolor="#ffffff"
     bordercolor="#666666"
     borderopacity="1"
     objecttolerance="10"
     gridtolerance="10"
     guidetolerance="10"
     inkscape:pageopacity="0"
     inkscape:pageshadow="2"
     inkscape:window-width="1848"
     inkscape:window-height="1016"
     id="namedview4"
     showgrid="false"
     showguides="false"
     inkscape:zoom="2.3786081"
     inkscape:cx="152.34164"
     inkscape:cy="138.40476"
     inkscape:window-x="72"
     inkscape:window-y="27"
     inkscape:window-maximized="1"
     inkscape:current-layer="g1190" /><g
     id="g10"
     inkscape:groupmode="layer"
     inkscape:label="Unified_computational_framework_for_the_efficient_"
     transform="matrix(1.3333333,0,0,-1.3333333,-262.89944,553.80727)"><text
       transform="matrix(1,0,0,-1,127.493,503.049)"
       style="font-variant:normal;font-weight:normal;font-size:9.96259975px;font-family:LMMathExtension10;-inkscape-font-specification:LMMathExtension10-Regular;writing-mode:lr-tb;fill:#000000;fill-opacity:1;fill-rule:nonzero;stroke:none"
       id="text636"><tspan
         x="0"
         y="0"
         id="tspan634"></tspan></text>
<text
       transform="matrix(1,0,0,-1,146.885,503.049)"
       style="font-variant:normal;font-weight:normal;font-size:9.96259975px;font-family:LMMathExtension10;-inkscape-font-specification:LMMathExtension10-Regular;writing-mode:lr-tb;fill:#000000;fill-opacity:1;fill-rule:nonzero;stroke:none"
       id="text648"><tspan
         x="0"
         y="0"
         id="tspan646"></tspan></text>
<g
       id="g738"
       transform="translate(148.817,237.401)"><g
         id="g740"
         transform="scale(0.55305)"><g
           id="g742"><g
             id="g744" /><g
             id="g1194"><g
               clip-path="url(#clipPath748)"
               id="g1192"><g
                 id="g1190"><g
                   transform="matrix(1,0,-0.839095,-1,0,321.78476)"
                   id="g752"><path
                     d="m 427.583,234.219 h 111.195 l 10e-4,37.066 H 427.583 Z"
                     style="fill:none;stroke:#666666;stroke-width:0.75735903;stroke-linecap:round;stroke-linejoin:miter;stroke-miterlimit:4;stroke-dasharray:none;stroke-opacity:1"
                     id="path750"
                     inkscape:connector-curvature="0" /></g><g
                   transform="matrix(1,0,-0.839095,-1,0,321.78476)"
                   id="g756"><path
                     d="m 446.118,234.219 v 37.066"
                     style="fill:none;stroke:#666666;stroke-width:0.75735903;stroke-linecap:butt;stroke-linejoin:miter;stroke-miterlimit:4;stroke-dasharray:none;stroke-opacity:1"
                     id="path754"
                     inkscape:connector-curvature="0" /></g><g
                   transform="matrix(1,0,-0.839095,-1,0,321.78476)"
                   id="g760"><path
                     d="m 464.649,234.219 10e-4,37.066"
                     style="fill:none;stroke:#666666;stroke-width:0.75735903;stroke-linecap:butt;stroke-linejoin:miter;stroke-miterlimit:4;stroke-dasharray:none;stroke-opacity:1"
                     id="path758"
                     inkscape:connector-curvature="0" /></g><g
                   transform="matrix(1,0,-0.839095,-1,0,321.78476)"
                   id="g764"><path
                     d="m 483.18,234.219 10e-4,37.066"
                     style="fill:none;stroke:#666666;stroke-width:0.75735903;stroke-linecap:butt;stroke-linejoin:miter;stroke-miterlimit:4;stroke-dasharray:none;stroke-opacity:1"
                     id="path762"
                     inkscape:connector-curvature="0" /></g><g
                   transform="matrix(1,0,-0.839095,-1,0,321.78476)"
                   id="g768"><path
                     d="m 501.715,234.219 0.001,37.066"
                     style="fill:none;stroke:#666666;stroke-width:0.75735903;stroke-linecap:butt;stroke-linejoin:miter;stroke-miterlimit:4;stroke-dasharray:none;stroke-opacity:1"
                     id="path766"
                     inkscape:connector-curvature="0" /></g><g
                   transform="matrix(1,0,-0.839095,-1,0,321.78476)"
                   id="g772"><path
                     d="m 520.247,234.219 v 37.066"
                     style="fill:none;stroke:#666666;stroke-width:0.75735903;stroke-linecap:butt;stroke-linejoin:miter;stroke-miterlimit:4;stroke-dasharray:none;stroke-opacity:1"
                     id="path770"
                     inkscape:connector-curvature="0" /></g><g
                   transform="matrix(1,0,-0.839095,-1,0,321.78476)"
                   id="g776"><path
                     d="M 427.583,246.574 H 538.778"
                     style="fill:none;stroke:#666666;stroke-width:0.75735903;stroke-linecap:butt;stroke-linejoin:miter;stroke-miterlimit:4;stroke-dasharray:none;stroke-opacity:1"
                     id="path774"
                     inkscape:connector-curvature="0" /></g><g
                   transform="matrix(1,0,-0.839095,-1,0,321.78476)"
                   id="g780"><path
                     d="M 427.583,258.93 H 538.778"
                     style="fill:none;stroke:#666666;stroke-width:0.75735903;stroke-linecap:butt;stroke-linejoin:miter;stroke-miterlimit:4;stroke-dasharray:none;stroke-opacity:1"
                     id="path778"
                     inkscape:connector-curvature="0" /></g><g
                   transform="matrix(1,0,-0.839095,-1,0,321.78476)"
                   id="g784"><path
                     d="m 333.633,122.254 h 111.196 l -0.003,37.062 H 333.631 Z"
                     style="fill:none;stroke:#666666;stroke-width:0.75735903;stroke-linecap:round;stroke-linejoin:miter;stroke-miterlimit:4;stroke-dasharray:none;stroke-opacity:1"
                     id="path782"
                     inkscape:connector-curvature="0" /></g><g
                   transform="matrix(1,0,-0.839095,-1,0,321.78476)"
                   id="g788"><path
                     d="m 352.169,122.254 -0.003,37.062"
                     style="fill:none;stroke:#666666;stroke-width:0.75735903;stroke-linecap:butt;stroke-linejoin:miter;stroke-miterlimit:4;stroke-dasharray:none;stroke-opacity:1"
                     id="path786"
                     inkscape:connector-curvature="0" /></g><g
                   transform="matrix(1,0,-0.839095,-1,0,321.78476)"
                   id="g792"><path
                     d="m 370.7,122.254 -0.003,37.062"
                     style="fill:none;stroke:#666666;stroke-width:0.75735903;stroke-linecap:butt;stroke-linejoin:miter;stroke-miterlimit:4;stroke-dasharray:none;stroke-opacity:1"
                     id="path790"
                     inkscape:connector-curvature="0" /></g><g
                   transform="matrix(1,0,-0.839095,-1,0,321.78476)"
                   id="g796"><path
                     d="m 389.231,122.254 -0.003,37.062"
                     style="fill:none;stroke:#666666;stroke-width:0.75735903;stroke-linecap:butt;stroke-linejoin:miter;stroke-miterlimit:4;stroke-dasharray:none;stroke-opacity:1"
                     id="path794"
                     inkscape:connector-curvature="0" /></g><g
                   transform="matrix(1,0,-0.839095,-1,0,321.78476)"
                   id="g800"><path
                     d="m 407.766,122.254 -0.002,37.062"
                     style="fill:none;stroke:#666666;stroke-width:0.75735903;stroke-linecap:butt;stroke-linejoin:miter;stroke-miterlimit:4;stroke-dasharray:none;stroke-opacity:1"
                     id="path798"
                     inkscape:connector-curvature="0" /></g><g
                   transform="matrix(1,0,-0.839095,-1,0,321.78476)"
                   id="g804"><path
                     d="m 426.297,122.254 -0.002,37.062"
                     style="fill:none;stroke:#666666;stroke-width:0.75735903;stroke-linecap:butt;stroke-linejoin:miter;stroke-miterlimit:4;stroke-dasharray:none;stroke-opacity:1"
                     id="path802"
                     inkscape:connector-curvature="0" /></g><g
                   transform="matrix(1,0,-0.839095,-1,0,321.78476)"
                   id="g808"><path
                     d="M 333.634,134.609 H 444.829"
                     style="fill:none;stroke:#666666;stroke-width:0.75735903;stroke-linecap:butt;stroke-linejoin:miter;stroke-miterlimit:4;stroke-dasharray:none;stroke-opacity:1"
                     id="path806"
                     inkscape:connector-curvature="0" /></g><g
                   transform="matrix(1,0,-0.839095,-1,0,321.78476)"
                   id="g812"><path
                     d="M 333.634,146.965 H 444.829"
                     style="fill:none;stroke:#666666;stroke-width:0.75735903;stroke-linecap:butt;stroke-linejoin:miter;stroke-miterlimit:4;stroke-dasharray:none;stroke-opacity:1"
                     id="path810"
                     inkscape:connector-curvature="0" /></g><g
                   transform="matrix(1,0,-0.839095,-1,0,321.78476)"
                   id="g816"><path
                     d="M 333.872,128.441 H 444.806"
                     style="fill:none;stroke:#666666;stroke-width:0.75735903;stroke-linecap:butt;stroke-linejoin:miter;stroke-miterlimit:4;stroke-dasharray:none;stroke-opacity:1"
                     id="path814"
                     inkscape:connector-curvature="0" /></g><g
                   transform="matrix(1,0,-0.839095,-1,0,321.78476)"
                   id="g820"><path
                     d="M 333.872,140.969 H 444.614"
                     style="fill:none;stroke:#666666;stroke-width:0.75735903;stroke-linecap:butt;stroke-linejoin:miter;stroke-miterlimit:4;stroke-dasharray:none;stroke-opacity:1"
                     id="path818"
                     inkscape:connector-curvature="0" /></g><g
                   transform="matrix(1,0,-0.839095,-1,0,321.78476)"
                   id="g824"><path
                     d="M 333.493,153.402 H 444.426"
                     style="fill:none;stroke:#666666;stroke-width:0.75735903;stroke-linecap:butt;stroke-linejoin:miter;stroke-miterlimit:4;stroke-dasharray:none;stroke-opacity:1"
                     id="path822"
                     inkscape:connector-curvature="0" /></g><g
                   transform="matrix(1,0,-0.839095,-1,0,321.78476)"
                   id="g828"><path
                     d="m 343.056,122.227 0.002,36.914"
                     style="fill:none;stroke:#666666;stroke-width:0.75735903;stroke-linecap:butt;stroke-linejoin:miter;stroke-miterlimit:4;stroke-dasharray:none;stroke-opacity:1"
                     id="path826"
                     inkscape:connector-curvature="0" /></g><g
                   transform="matrix(1,0,-0.839095,-1,0,321.78476)"
                   id="g832"><path
                     d="m 361.99,122.609 0.002,36.723"
                     style="fill:none;stroke:#666666;stroke-width:0.75735903;stroke-linecap:butt;stroke-linejoin:miter;stroke-miterlimit:4;stroke-dasharray:none;stroke-opacity:1"
                     id="path830"
                     inkscape:connector-curvature="0" /></g><g
                   transform="matrix(1,0,-0.839095,-1,0,321.78476)"
                   id="g836"><path
                     d="m 379.778,122.035 10e-4,36.531"
                     style="fill:none;stroke:#666666;stroke-width:0.75735903;stroke-linecap:butt;stroke-linejoin:miter;stroke-miterlimit:4;stroke-dasharray:none;stroke-opacity:1"
                     id="path834"
                     inkscape:connector-curvature="0" /></g><g
                   transform="matrix(1,0,-0.839095,-1,0,321.78476)"
                   id="g840"><path
                     d="m 398.712,122.227 0.001,36.722"
                     style="fill:none;stroke:#666666;stroke-width:0.75735903;stroke-linecap:butt;stroke-linejoin:miter;stroke-miterlimit:4;stroke-dasharray:none;stroke-opacity:1"
                     id="path838"
                     inkscape:connector-curvature="0" /></g><g
                   transform="matrix(1,0,-0.839095,-1,0,321.78476)"
                   id="g844"><path
                     d="m 417.075,122.035 -0.002,37.106"
                     style="fill:none;stroke:#666666;stroke-width:0.75735903;stroke-linecap:butt;stroke-linejoin:miter;stroke-miterlimit:4;stroke-dasharray:none;stroke-opacity:1"
                     id="path842"
                     inkscape:connector-curvature="0" /></g><g
                   transform="matrix(1,0,-0.839095,-1,0,321.78476)"
                   id="g848"><path
                     d="m 436.009,122.227 0.002,36.914"
                     style="fill:none;stroke:#666666;stroke-width:0.75735903;stroke-linecap:butt;stroke-linejoin:miter;stroke-miterlimit:4;stroke-dasharray:none;stroke-opacity:1"
                     id="path846"
                     inkscape:connector-curvature="0" /></g><g
                   transform="matrix(1,0,-0.839095,-1,0,321.78476)"
                   id="g852"><path
                     d="m 239.583,10.168 h 111.195 l 10e-4,37.066 H 239.583 Z"
                     style="fill:none;stroke:#666666;stroke-width:0.75735903;stroke-linecap:round;stroke-linejoin:miter;stroke-miterlimit:4;stroke-dasharray:none;stroke-opacity:1"
                     id="path850"
                     inkscape:connector-curvature="0" /></g><g
                   transform="matrix(1,0,-0.839095,-1,0,321.78476)"
                   id="g856"><path
                     d="m 258.118,10.168 0.001,37.066"
                     style="fill:none;stroke:#666666;stroke-width:0.75735903;stroke-linecap:butt;stroke-linejoin:miter;stroke-miterlimit:4;stroke-dasharray:none;stroke-opacity:1"
                     id="path854"
                     inkscape:connector-curvature="0" /></g><g
                   transform="matrix(1,0,-0.839095,-1,0,321.78476)"
                   id="g860"><path
                     d="m 276.649,10.168 10e-4,37.066"
                     style="fill:none;stroke:#666666;stroke-width:0.75735903;stroke-linecap:butt;stroke-linejoin:miter;stroke-miterlimit:4;stroke-dasharray:none;stroke-opacity:1"
                     id="path858"
                     inkscape:connector-curvature="0" /></g><g
                   transform="matrix(1,0,-0.839095,-1,0,321.78476)"
                   id="g864"><path
                     d="m 295.18,10.168 10e-4,37.066"
                     style="fill:none;stroke:#666666;stroke-width:0.75735903;stroke-linecap:butt;stroke-linejoin:miter;stroke-miterlimit:4;stroke-dasharray:none;stroke-opacity:1"
                     id="path862"
                     inkscape:connector-curvature="0" /></g><g
                   transform="matrix(1,0,-0.839095,-1,0,321.78476)"
                   id="g868"><path
                     d="m 313.715,10.168 0.001,37.066"
                     style="fill:none;stroke:#666666;stroke-width:0.75735903;stroke-linecap:butt;stroke-linejoin:miter;stroke-miterlimit:4;stroke-dasharray:none;stroke-opacity:1"
                     id="path866"
                     inkscape:connector-curvature="0" /></g><g
                   transform="matrix(1,0,-0.839095,-1,0,321.78476)"
                   id="g872"><path
                     d="M 332.247,10.168 V 47.234"
                     style="fill:none;stroke:#666666;stroke-width:0.75735903;stroke-linecap:butt;stroke-linejoin:miter;stroke-miterlimit:4;stroke-dasharray:none;stroke-opacity:1"
                     id="path870"
                     inkscape:connector-curvature="0" /></g><g
                   transform="matrix(1,0,-0.839095,-1,0,321.78476)"
                   id="g876"><path
                     d="M 239.583,22.523 H 350.778"
                     style="fill:none;stroke:#666666;stroke-width:0.75735903;stroke-linecap:butt;stroke-linejoin:miter;stroke-miterlimit:4;stroke-dasharray:none;stroke-opacity:1"
                     id="path874"
                     inkscape:connector-curvature="0" /></g><g
                   transform="matrix(1,0,-0.839095,-1,0,321.78476)"
                   id="g880"><path
                     d="M 239.583,34.879 H 350.778"
                     style="fill:none;stroke:#666666;stroke-width:0.75735903;stroke-linecap:butt;stroke-linejoin:miter;stroke-miterlimit:4;stroke-dasharray:none;stroke-opacity:1"
                     id="path878"
                     inkscape:connector-curvature="0" /></g><g
                   transform="matrix(1,0,-0.839095,-1,0,321.78476)"
                   id="g884"><path
                     d="M 239.821,16.355 H 350.755"
                     style="fill:none;stroke:#666666;stroke-width:0.75735903;stroke-linecap:butt;stroke-linejoin:miter;stroke-miterlimit:4;stroke-dasharray:none;stroke-opacity:1"
                     id="path882"
                     inkscape:connector-curvature="0" /></g><g
                   transform="matrix(1,0,-0.839095,-1,0,321.78476)"
                   id="g888"><path
                     d="M 239.825,28.887 H 350.567"
                     style="fill:none;stroke:#666666;stroke-width:0.75735903;stroke-linecap:butt;stroke-linejoin:miter;stroke-miterlimit:4;stroke-dasharray:none;stroke-opacity:1"
                     id="path886"
                     inkscape:connector-curvature="0" /></g><g
                   transform="matrix(1,0,-0.839095,-1,0,321.78476)"
                   id="g892"><path
                     d="M 239.442,41.316 H 350.375"
                     style="fill:none;stroke:#666666;stroke-width:0.75735903;stroke-linecap:butt;stroke-linejoin:miter;stroke-miterlimit:4;stroke-dasharray:none;stroke-opacity:1"
                     id="path890"
                     inkscape:connector-curvature="0" /></g><g
                   transform="matrix(1,0,-0.839095,-1,0,321.78476)"
                   id="g896"><path
                     d="m 249.005,10.141 0.002,36.914"
                     style="fill:none;stroke:#666666;stroke-width:0.75735903;stroke-linecap:butt;stroke-linejoin:miter;stroke-miterlimit:4;stroke-dasharray:none;stroke-opacity:1"
                     id="path894"
                     inkscape:connector-curvature="0" /></g><g
                   transform="matrix(1,0,-0.839095,-1,0,321.78476)"
                   id="g900"><path
                     d="m 267.94,10.523 10e-4,36.723"
                     style="fill:none;stroke:#666666;stroke-width:0.75735903;stroke-linecap:butt;stroke-linejoin:miter;stroke-miterlimit:4;stroke-dasharray:none;stroke-opacity:1"
                     id="path898"
                     inkscape:connector-curvature="0" /></g><g
                   transform="matrix(1,0,-0.839095,-1,0,321.78476)"
                   id="g904"><path
                     d="m 285.727,9.949 0.001,36.531"
                     style="fill:none;stroke:#666666;stroke-width:0.75735903;stroke-linecap:butt;stroke-linejoin:miter;stroke-miterlimit:4;stroke-dasharray:none;stroke-opacity:1"
                     id="path902"
                     inkscape:connector-curvature="0" /></g><g
                   transform="matrix(1,0,-0.839095,-1,0,321.78476)"
                   id="g908"><path
                     d="m 304.661,10.141 0.002,36.722"
                     style="fill:none;stroke:#666666;stroke-width:0.75735903;stroke-linecap:butt;stroke-linejoin:miter;stroke-miterlimit:4;stroke-dasharray:none;stroke-opacity:1"
                     id="path906"
                     inkscape:connector-curvature="0" /></g><g
                   transform="matrix(1,0,-0.839095,-1,0,321.78476)"
                   id="g912"><path
                     d="m 323.024,9.949 -0.002,37.106"
                     style="fill:none;stroke:#666666;stroke-width:0.75735903;stroke-linecap:butt;stroke-linejoin:miter;stroke-miterlimit:4;stroke-dasharray:none;stroke-opacity:1"
                     id="path910"
                     inkscape:connector-curvature="0" /></g><g
                   transform="matrix(1,0,-0.839095,-1,0,321.78476)"
                   id="g916"><path
                     d="m 341.958,10.141 0.002,36.914"
                     style="fill:none;stroke:#666666;stroke-width:0.75735903;stroke-linecap:butt;stroke-linejoin:miter;stroke-miterlimit:4;stroke-dasharray:none;stroke-opacity:1"
                     id="path914"
                     inkscape:connector-curvature="0" /></g><g
                   transform="matrix(1,0,-0.839095,-1,0,321.78476)"
                   id="g920"><path
                     d="m 239.583,10.168 h 111.195 l 10e-4,37.066 H 239.583 Z"
                     style="fill:none;stroke:#666666;stroke-width:0.75735903;stroke-linecap:round;stroke-linejoin:miter;stroke-miterlimit:4;stroke-dasharray:none;stroke-opacity:1"
                     id="path918"
                     inkscape:connector-curvature="0" /></g><g
                   transform="matrix(1,0,-0.839095,-1,0,321.78476)"
                   id="g924"><path
                     d="m 258.118,10.168 0.001,37.066"
                     style="fill:none;stroke:#666666;stroke-width:0.75735903;stroke-linecap:butt;stroke-linejoin:miter;stroke-miterlimit:4;stroke-dasharray:none;stroke-opacity:1"
                     id="path922"
                     inkscape:connector-curvature="0" /></g><g
                   transform="matrix(1,0,-0.839095,-1,0,321.78476)"
                   id="g928"><path
                     d="m 276.649,10.168 10e-4,37.066"
                     style="fill:none;stroke:#666666;stroke-width:0.75735903;stroke-linecap:butt;stroke-linejoin:miter;stroke-miterlimit:4;stroke-dasharray:none;stroke-opacity:1"
                     id="path926"
                     inkscape:connector-curvature="0" /></g><g
                   transform="matrix(1,0,-0.839095,-1,0,321.78476)"
                   id="g932"><path
                     d="m 295.18,10.168 10e-4,37.066"
                     style="fill:none;stroke:#666666;stroke-width:0.75735903;stroke-linecap:butt;stroke-linejoin:miter;stroke-miterlimit:4;stroke-dasharray:none;stroke-opacity:1"
                     id="path930"
                     inkscape:connector-curvature="0" /></g><g
                   transform="matrix(1,0,-0.839095,-1,0,321.78476)"
                   id="g936"><path
                     d="m 313.715,10.168 0.001,37.066"
                     style="fill:none;stroke:#666666;stroke-width:0.75735903;stroke-linecap:butt;stroke-linejoin:miter;stroke-miterlimit:4;stroke-dasharray:none;stroke-opacity:1"
                     id="path934"
                     inkscape:connector-curvature="0" /></g><g
                   transform="matrix(1,0,-0.839095,-1,0,321.78476)"
                   id="g940"><path
                     d="M 332.247,10.168 V 47.234"
                     style="fill:none;stroke:#666666;stroke-width:0.75735903;stroke-linecap:butt;stroke-linejoin:miter;stroke-miterlimit:4;stroke-dasharray:none;stroke-opacity:1"
                     id="path938"
                     inkscape:connector-curvature="0" /></g><g
                   transform="matrix(1,0,-0.839095,-1,0,321.78476)"
                   id="g944"><path
                     d="M 239.583,22.523 H 350.778"
                     style="fill:none;stroke:#666666;stroke-width:0.75735903;stroke-linecap:butt;stroke-linejoin:miter;stroke-miterlimit:4;stroke-dasharray:none;stroke-opacity:1"
                     id="path942"
                     inkscape:connector-curvature="0" /></g><g
                   transform="matrix(1,0,-0.839095,-1,0,321.78476)"
                   id="g948"><path
                     d="M 239.583,34.879 H 350.778"
                     style="fill:none;stroke:#666666;stroke-width:0.75735903;stroke-linecap:butt;stroke-linejoin:miter;stroke-miterlimit:4;stroke-dasharray:none;stroke-opacity:1"
                     id="path946"
                     inkscape:connector-curvature="0" /></g><g
                   transform="matrix(1,0,-0.839095,-1,0,321.78476)"
                   id="g952"><path
                     d="M 239.821,16.355 H 350.755"
                     style="fill:none;stroke:#666666;stroke-width:0.75735903;stroke-linecap:butt;stroke-linejoin:miter;stroke-miterlimit:4;stroke-dasharray:none;stroke-opacity:1"
                     id="path950"
                     inkscape:connector-curvature="0" /></g><g
                   transform="matrix(1,0,-0.839095,-1,0,321.78476)"
                   id="g956"><path
                     d="M 239.825,28.887 H 350.567"
                     style="fill:none;stroke:#666666;stroke-width:0.75735903;stroke-linecap:butt;stroke-linejoin:miter;stroke-miterlimit:4;stroke-dasharray:none;stroke-opacity:1"
                     id="path954"
                     inkscape:connector-curvature="0" /></g><g
                   transform="matrix(1,0,-0.839095,-1,0,321.78476)"
                   id="g960"><path
                     d="M 239.442,41.316 H 350.375"
                     style="fill:none;stroke:#666666;stroke-width:0.75735903;stroke-linecap:butt;stroke-linejoin:miter;stroke-miterlimit:4;stroke-dasharray:none;stroke-opacity:1"
                     id="path958"
                     inkscape:connector-curvature="0" /></g><g
                   transform="matrix(1,0,-0.839095,-1,0,321.78476)"
                   id="g964"><path
                     d="m 249.005,10.141 0.002,36.914"
                     style="fill:none;stroke:#666666;stroke-width:0.75735903;stroke-linecap:butt;stroke-linejoin:miter;stroke-miterlimit:4;stroke-dasharray:none;stroke-opacity:1"
                     id="path962"
                     inkscape:connector-curvature="0" /></g><g
                   transform="matrix(1,0,-0.839095,-1,0,321.78476)"
                   id="g968"><path
                     d="m 267.94,10.523 10e-4,36.723"
                     style="fill:none;stroke:#666666;stroke-width:0.75735903;stroke-linecap:butt;stroke-linejoin:miter;stroke-miterlimit:4;stroke-dasharray:none;stroke-opacity:1"
                     id="path966"
                     inkscape:connector-curvature="0" /></g><g
                   transform="matrix(1,0,-0.839095,-1,0,321.78476)"
                   id="g972"><path
                     d="m 285.727,9.949 0.001,36.531"
                     style="fill:none;stroke:#666666;stroke-width:0.75735903;stroke-linecap:butt;stroke-linejoin:miter;stroke-miterlimit:4;stroke-dasharray:none;stroke-opacity:1"
                     id="path970"
                     inkscape:connector-curvature="0" /></g><g
                   transform="matrix(1,0,-0.839095,-1,0,321.78476)"
                   id="g976"><path
                     d="m 304.661,10.141 0.002,36.722"
                     style="fill:none;stroke:#666666;stroke-width:0.75735903;stroke-linecap:butt;stroke-linejoin:miter;stroke-miterlimit:4;stroke-dasharray:none;stroke-opacity:1"
                     id="path974"
                     inkscape:connector-curvature="0" /></g><g
                   transform="matrix(1,0,-0.839095,-1,0,321.78476)"
                   id="g980"><path
                     d="m 323.024,9.949 -0.002,37.106"
                     style="fill:none;stroke:#666666;stroke-width:0.75735903;stroke-linecap:butt;stroke-linejoin:miter;stroke-miterlimit:4;stroke-dasharray:none;stroke-opacity:1"
                     id="path978"
                     inkscape:connector-curvature="0" /></g><g
                   transform="matrix(1,0,-0.839095,-1,0,321.78476)"
                   id="g984"><path
                     d="m 341.958,10.141 0.002,36.914"
                     style="fill:none;stroke:#666666;stroke-width:0.75735903;stroke-linecap:butt;stroke-linejoin:miter;stroke-miterlimit:4;stroke-dasharray:none;stroke-opacity:1"
                     id="path982"
                     inkscape:connector-curvature="0" /></g><g
                   transform="matrix(1,0,-0.839095,-1,0,321.78476)"
                   id="g988"><path
                     d="M 239.822,13.121 H 350.756"
                     style="fill:none;stroke:#666666;stroke-width:0.75735903;stroke-linecap:butt;stroke-linejoin:miter;stroke-miterlimit:4;stroke-dasharray:none;stroke-opacity:1"
                     id="path986"
                     inkscape:connector-curvature="0" /></g><g
                   transform="matrix(1,0,-0.839095,-1,0,321.78476)"
                   id="g992"><path
                     d="M 239.634,19.242 H 350.373"
                     style="fill:none;stroke:#666666;stroke-width:0.75735903;stroke-linecap:butt;stroke-linejoin:miter;stroke-miterlimit:4;stroke-dasharray:none;stroke-opacity:1"
                     id="path990"
                     inkscape:connector-curvature="0" /></g><g
                   transform="matrix(1,0,-0.839095,-1,0,321.78476)"
                   id="g996"><path
                     d="M 239.444,25.938 H 350.565"
                     style="fill:none;stroke:#666666;stroke-width:0.75735903;stroke-linecap:butt;stroke-linejoin:miter;stroke-miterlimit:4;stroke-dasharray:none;stroke-opacity:1"
                     id="path994"
                     inkscape:connector-curvature="0" /></g><g
                   transform="matrix(1,0,-0.839095,-1,0,321.78476)"
                   id="g1000"><path
                     d="M 239.632,32.246 H 351.14"
                     style="fill:none;stroke:#666666;stroke-width:0.75735903;stroke-linecap:butt;stroke-linejoin:miter;stroke-miterlimit:4;stroke-dasharray:none;stroke-opacity:1"
                     id="path998"
                     inkscape:connector-curvature="0" /></g><g
                   transform="matrix(1,0,-0.839095,-1,0,321.78476)"
                   id="g1004"><path
                     d="M 239.822,38.176 H 349.99"
                     style="fill:none;stroke:#666666;stroke-width:0.75735903;stroke-linecap:butt;stroke-linejoin:miter;stroke-miterlimit:4;stroke-dasharray:none;stroke-opacity:1"
                     id="path1002"
                     inkscape:connector-curvature="0" /></g><g
                   transform="matrix(1,0,-0.839095,-1,0,321.78476)"
                   id="g1008"><path
                     d="M 239.826,44.68 H 350.373"
                     style="fill:none;stroke:#666666;stroke-width:0.75735903;stroke-linecap:butt;stroke-linejoin:miter;stroke-miterlimit:4;stroke-dasharray:none;stroke-opacity:1"
                     id="path1006"
                     inkscape:connector-curvature="0" /></g><g
                   transform="matrix(1,0,-0.839095,-1,0,321.78476)"
                   id="g1012"><path
                     d="M 244.417,10.254 V 46.785"
                     style="fill:none;stroke:#666666;stroke-width:0.75735903;stroke-linecap:butt;stroke-linejoin:miter;stroke-miterlimit:4;stroke-dasharray:none;stroke-opacity:1"
                     id="path1010"
                     inkscape:connector-curvature="0" /></g><g
                   transform="matrix(1,0,-0.839095,-1,0,321.78476)"
                   id="g1016"><path
                     d="m 253.405,10.445 -0.001,37.102"
                     style="fill:none;stroke:#666666;stroke-width:0.75735903;stroke-linecap:butt;stroke-linejoin:miter;stroke-miterlimit:4;stroke-dasharray:none;stroke-opacity:1"
                     id="path1014"
                     inkscape:connector-curvature="0" /></g><g
                   transform="matrix(1,0,-0.839095,-1,0,321.78476)"
                   id="g1020"><path
                     d="m 263.159,10.254 0.001,36.723"
                     style="fill:none;stroke:#666666;stroke-width:0.75735903;stroke-linecap:butt;stroke-linejoin:miter;stroke-miterlimit:4;stroke-dasharray:none;stroke-opacity:1"
                     id="path1018"
                     inkscape:connector-curvature="0" /></g><g
                   transform="matrix(1,0,-0.839095,-1,0,321.78476)"
                   id="g1024"><path
                     d="m 272.15,10.062 -10e-4,37.297"
                     style="fill:none;stroke:#666666;stroke-width:0.75735903;stroke-linecap:butt;stroke-linejoin:miter;stroke-miterlimit:4;stroke-dasharray:none;stroke-opacity:1"
                     id="path1022"
                     inkscape:connector-curvature="0" /></g><g
                   transform="matrix(1,0,-0.839095,-1,0,321.78476)"
                   id="g1028"><path
                     d="m 281.522,10.254 -0.003,36.723"
                     style="fill:none;stroke:#666666;stroke-width:0.75735903;stroke-linecap:butt;stroke-linejoin:miter;stroke-miterlimit:4;stroke-dasharray:none;stroke-opacity:1"
                     id="path1026"
                     inkscape:connector-curvature="0" /></g><g
                   transform="matrix(1,0,-0.839095,-1,0,321.78476)"
                   id="g1032"><path
                     d="m 291.083,9.68 0.003,37.488"
                     style="fill:none;stroke:#666666;stroke-width:0.75735903;stroke-linecap:butt;stroke-linejoin:miter;stroke-miterlimit:4;stroke-dasharray:none;stroke-opacity:1"
                     id="path1030"
                     inkscape:connector-curvature="0" /></g><g
                   transform="matrix(1,0,-0.839095,-1,0,321.78476)"
                   id="g1036"><path
                     d="m 300.072,9.871 0.003,37.488"
                     style="fill:none;stroke:#666666;stroke-width:0.75735903;stroke-linecap:butt;stroke-linejoin:miter;stroke-miterlimit:4;stroke-dasharray:none;stroke-opacity:1"
                     id="path1034"
                     inkscape:connector-curvature="0" /></g><g
                   transform="matrix(1,0,-0.839095,-1,0,321.78476)"
                   id="g1040"><path
                     d="m 309.061,10.254 0.001,36.531"
                     style="fill:none;stroke:#666666;stroke-width:0.75735903;stroke-linecap:butt;stroke-linejoin:miter;stroke-miterlimit:4;stroke-dasharray:none;stroke-opacity:1"
                     id="path1038"
                     inkscape:connector-curvature="0" /></g><g
                   transform="matrix(1,0,-0.839095,-1,0,321.78476)"
                   id="g1044"><path
                     d="m 318.627,10.062 -0.002,36.915"
                     style="fill:none;stroke:#666666;stroke-width:0.75735903;stroke-linecap:butt;stroke-linejoin:miter;stroke-miterlimit:4;stroke-dasharray:none;stroke-opacity:1"
                     id="path1042"
                     inkscape:connector-curvature="0" /></g><g
                   transform="matrix(1,0,-0.839095,-1,0,321.78476)"
                   id="g1048"><path
                     d="m 327.424,10.254 -10e-4,37.105"
                     style="fill:none;stroke:#666666;stroke-width:0.75735903;stroke-linecap:butt;stroke-linejoin:miter;stroke-miterlimit:4;stroke-dasharray:none;stroke-opacity:1"
                     id="path1046"
                     inkscape:connector-curvature="0" /></g><g
                   transform="matrix(1,0,-0.839095,-1,0,321.78476)"
                   id="g1052"><path
                     d="m 336.986,9.871 0.003,37.297"
                     style="fill:none;stroke:#666666;stroke-width:0.75735903;stroke-linecap:butt;stroke-linejoin:miter;stroke-miterlimit:4;stroke-dasharray:none;stroke-opacity:1"
                     id="path1050"
                     inkscape:connector-curvature="0" /></g><g
                   transform="matrix(1,0,-0.839095,-1,0,321.78476)"
                   id="g1056"><path
                     d="m 346.549,10.254 0.002,36.914"
                     style="fill:none;stroke:#666666;stroke-width:0.75735903;stroke-linecap:butt;stroke-linejoin:miter;stroke-miterlimit:4;stroke-dasharray:none;stroke-opacity:1"
                     id="path1054"
                     inkscape:connector-curvature="0" /></g><g
                   transform="matrix(1,0.0680261,-0.0680261,1,0,321.78476)"
                   id="g1060"><path
                     d="m 129.241,-17.764 c -0.003,4.668 -3.785,8.452 -8.452,8.453 -4.669,-0.002 -8.453,-3.784 -8.454,-8.452 -10e-4,-4.668 3.784,-8.453 8.452,-8.454 4.668,-0.001 8.453,3.785 8.454,8.453 z"
                     style="fill:none;stroke:#666666;stroke-width:2.11317897;stroke-linecap:round;stroke-linejoin:round;stroke-miterlimit:4;stroke-dasharray:none;stroke-opacity:1"
                     id="path1058"
                     inkscape:connector-curvature="0" /></g><g
                   transform="matrix(1,0.0680261,-0.0680261,1,0,321.78476)"
                   id="g1064"><path
                     d="m 190.876,-160.024 c 0.001,4.668 -3.784,8.453 -8.453,8.45 -4.667,0.002 -8.452,-3.784 -8.453,-8.452 0.002,-4.668 3.784,-8.453 8.452,-8.454 4.668,0.003 8.453,3.785 8.454,8.456 z"
                     style="fill:none;stroke:#666666;stroke-width:2.11317897;stroke-linecap:round;stroke-linejoin:round;stroke-miterlimit:4;stroke-dasharray:none;stroke-opacity:1"
                     id="path1062"
                     inkscape:connector-curvature="0" /></g><g
                   transform="matrix(1,0.0680261,-0.0680261,1,0,321.78476)"
                   id="g1068"><path
                     d="m 252.513,-298.24 c -0.003,4.668 -3.785,8.453 -8.453,8.454 -4.667,10e-4 -8.452,-3.784 -8.453,-8.452 -0.002,-4.668 3.784,-8.453 8.452,-8.454 4.668,-10e-4 8.453,3.784 8.454,8.452 z"
                     style="fill:none;stroke:#666666;stroke-width:2.11317897;stroke-linecap:round;stroke-linejoin:round;stroke-miterlimit:4;stroke-dasharray:none;stroke-opacity:1"
                     id="path1066"
                     inkscape:connector-curvature="0" /></g><g
                   transform="matrix(-1,0.0680261,0.0680261,1,0,321.78476)"
                   id="g1072"><path
                     d="m -397.698,17.64 c 10e-4,4.668 -3.785,8.453 -8.453,8.454 -4.668,10e-4 -8.452,-3.785 -8.454,-8.453 0.003,-4.668 3.785,-8.452 8.457,-8.454 4.667,-10e-4 8.452,3.785 8.45,8.453 z"
                     style="fill:none;stroke:#666666;stroke-width:2.11317897;stroke-linecap:round;stroke-linejoin:round;stroke-miterlimit:4;stroke-dasharray:none;stroke-opacity:1"
                     id="path1070"
                     inkscape:connector-curvature="0" /></g><g
                   transform="matrix(-1,0.0680261,0.0680261,1,0,321.78476)"
                   id="g1076"><path
                     d="m -336.059,-124.62 c -0.003,4.668 -3.789,8.453 -8.457,8.451 -4.668,10e-4 -8.453,-3.785 -8.45,-8.453 -10e-4,-4.668 3.785,-8.453 8.453,-8.45 4.668,-0.001 8.452,3.784 8.454,8.452 z"
                     style="fill:none;stroke:#666666;stroke-width:2.11317897;stroke-linecap:round;stroke-linejoin:round;stroke-miterlimit:4;stroke-dasharray:none;stroke-opacity:1"
                     id="path1074"
                     inkscape:connector-curvature="0" /></g><g
                   transform="matrix(1,0.113622,0.113622,-1,0,321.78476)"
                   id="g1080"><path
                     d="M 299.358,215.607 299.01,203.681 287.966,209.5"
                     style="fill:none;stroke:#4d4d4d;stroke-width:3.06902289;stroke-linecap:butt;stroke-linejoin:round;stroke-miterlimit:4;stroke-dasharray:none;stroke-opacity:1"
                     id="path1078"
                     inkscape:connector-curvature="0" /></g><g
                   transform="matrix(1,0.113622,0.113622,-1,0,321.78476)"
                   id="g1084"><path
                     d="m 242.326,287.119 56.985,-83.618"
                     style="fill:none;stroke:#4d4d4d;stroke-width:3.06902289;stroke-linecap:butt;stroke-linejoin:round;stroke-miterlimit:4;stroke-dasharray:6.138046, 3.069023;stroke-dashoffset:0;stroke-opacity:1"
                     id="path1082"
                     inkscape:connector-curvature="0" /></g><g
                   transform="matrix(1,0.113622,0.113622,-1,0,321.78476)"
                   id="g1088"><path
                     d="m 387.694,86.855 -0.348,-11.926 -11.044,5.819"
                     style="fill:none;stroke:#4d4d4d;stroke-width:3.06902289;stroke-linecap:butt;stroke-linejoin:round;stroke-miterlimit:4;stroke-dasharray:none;stroke-opacity:1"
                     id="path1086"
                     inkscape:connector-curvature="0" /></g><g
                   transform="matrix(1,0.113622,0.113622,-1,0,321.78476)"
                   id="g1092"><path
                     d="M 330.662,158.367 387.648,74.748"
                     style="fill:none;stroke:#4d4d4d;stroke-width:3.06902289;stroke-linecap:butt;stroke-linejoin:round;stroke-miterlimit:4;stroke-dasharray:6.138046, 3.069023;stroke-dashoffset:0;stroke-opacity:1"
                     id="path1090"
                     inkscape:connector-curvature="0" /></g><g
                   transform="matrix(1,-0.113622,0.113622,1,0,321.78476)"
                   id="g1096"><path
                     d="m 191.762,-86.911 -0.348,-11.926 -11.041,5.824"
                     style="fill:none;stroke:#4d4d4d;stroke-width:3.06902289;stroke-linecap:butt;stroke-linejoin:round;stroke-miterlimit:4;stroke-dasharray:none;stroke-opacity:1"
                     id="path1094"
                     inkscape:connector-curvature="0" /></g><g
                   transform="matrix(1,-0.113622,0.113622,1,0,321.78476)"
                   id="g1100"><path
                     d="m 134.734,-15.394 56.985,-83.619"
                     style="fill:none;stroke:#4d4d4d;stroke-width:3.06902289;stroke-linecap:butt;stroke-linejoin:round;stroke-miterlimit:4;stroke-dasharray:6.138046, 3.069023;stroke-dashoffset:0;stroke-opacity:1"
                     id="path1098"
                     inkscape:connector-curvature="0" /></g><g
                   transform="matrix(1,-0.113622,0.113622,1,0,321.78476)"
                   id="g1104"><path
                     d="m 280.097,-215.659 -0.348,-11.926 -11.04,5.819"
                     style="fill:none;stroke:#4d4d4d;stroke-width:3.06902289;stroke-linecap:butt;stroke-linejoin:round;stroke-miterlimit:4;stroke-dasharray:none;stroke-opacity:1"
                     id="path1102"
                     inkscape:connector-curvature="0" /></g><g
                   transform="matrix(1,-0.113622,0.113622,1,0,321.78476)"
                   id="g1108"><path
                     d="m 223.07,-144.147 56.985,-83.619"
                     style="fill:none;stroke:#4d4d4d;stroke-width:3.06902289;stroke-linecap:butt;stroke-linejoin:round;stroke-miterlimit:4;stroke-dasharray:6.138046, 3.069023;stroke-dashoffset:0;stroke-opacity:1"
                     id="path1106"
                     inkscape:connector-curvature="0" /></g><path
                   d="m 134.445,242.363 0.2,0.051 0.359,0.109 0.18,0.074 0.164,0.071 0.16,0.054 0.144,0.071 0.145,0.089 0.144,0.075 0.125,0.07 0.129,0.09 0.125,0.094 0.11,0.089 0.105,0.09 0.11,0.09 0.179,0.18 0.074,0.109 0.09,0.09 0.055,0.105 0.07,0.09 0.11,0.219 0.054,0.106 0.106,0.328 0.019,0.105 0.02,0.109 0.016,0.11 v 0.105 l 0.019,0.11 c 0,1.8 -1.984,3.316 -5.355,3.316 h -6.813 v -0.848 h 1.945 v -10.597 h -1.945 v -0.848 c 0.649,0.07 2.399,0.07 3.156,0.07 0.754,0 2.504,0 3.153,-0.07 v 0.848 h -1.93 v 10.597 h 2.109 c 2.887,0 2.922,-1.386 2.922,-2.488 0,-0.988 0,-2.484 -2.957,-2.484 h -2.074 v -0.653 h 2.094 c 0.25,0 1.043,0 1.601,-0.593 0.578,-0.629 0.578,-0.973 0.578,-2.289 0,-1.172 0,-2.055 1.243,-2.668 0.793,-0.395 1.914,-0.45 2.632,-0.45 1.93,0 2.164,1.606 2.164,1.891 0,0.399 -0.253,0.399 -0.433,0.399 -0.379,0 -0.395,-0.18 -0.414,-0.415 -0.09,-0.847 -0.613,-1.246 -1.153,-1.246 -1.066,0 -1.226,1.282 -1.316,2.039 -0.035,0.18 -0.18,1.422 -0.199,1.512 -0.254,1.262 -1.242,1.805 -2.02,2.094 z"
                   style="fill:#000000;fill-opacity:1;fill-rule:nonzero;stroke:none"
                   id="path1110"
                   inkscape:connector-curvature="0" /><path
                   d="m 144.289,250.761 v 0.16 l -0.019,0.02 v 0.074 l -0.02,0.016 v 0.019 l -0.016,0.016 h -0.019 l -0.016,0.02 h -0.019 l -0.02,0.019 h -0.07 l -0.02,0.016 h -0.16 c -0.812,-0.793 -1.949,-0.809 -2.469,-0.809 v -0.453 c 0.305,0 1.133,0 1.821,0.363 v -6.402 c 0,-0.414 0,-0.574 -1.246,-0.574 h -0.485 v -0.453 c 0.235,0.019 1.781,0.054 2.235,0.054 0.394,0 1.98,-0.035 2.254,-0.054 v 0.453 h -0.489 c -1.242,0 -1.242,0.16 -1.242,0.574 z"
                   style="fill:#000000;fill-opacity:1;fill-rule:nonzero;stroke:none"
                   id="path1112"
                   inkscape:connector-curvature="0" /><path
                   d="m 388.145,241.586 -0.106,0.738 v 5.301 h 2.414 c 2.688,0 2.688,-1.352 2.688,-2.649 0,-1.262 0,-2.652 -2.707,-2.652 h -2.395 l 0.106,-0.738 h 3.171 c 2.489,0 4.563,1.296 4.563,3.39 0,1.965 -1.766,3.496 -4.742,3.496 h -7.481 v -0.847 h 1.949 v -10.598 h -1.949 v -0.848 c 0.688,0.071 2.434,0.071 3.211,0.071 0.774,0 2.524,0 3.207,-0.071 v 0.848 h -1.929 z"
                   style="fill:#000000;fill-opacity:1;fill-rule:nonzero;stroke:none"
                   id="path1114"
                   inkscape:connector-curvature="0" /><path
                   d="m 401.285,250.671 v 0.145 h -0.015 v 0.105 l -0.04,0.04 v 0.015 h -0.015 l -0.02,0.02 h -0.015 l -0.02,0.019 h -0.074 l -0.016,0.016 h -0.164 c -0.808,-0.793 -1.945,-0.809 -2.468,-0.809 v -0.453 c 0.308,0 1.136,0 1.82,0.36 v -6.399 c 0,-0.414 0,-0.574 -1.242,-0.574 h -0.489 v -0.453 c 0.235,0.019 1.766,0.054 2.235,0.054 0.398,0 1.965,-0.035 2.254,-0.054 v 0.453 h -0.485 c -1.246,0 -1.246,0.16 -1.246,0.574 z"
                   style="fill:#000000;fill-opacity:1;fill-rule:nonzero;stroke:none"
                   id="path1116"
                   inkscape:connector-curvature="0" /><path
                   d="m 203.895,109.218 0.199,0.055 0.179,0.051 0.18,0.055 0.18,0.074 0.164,0.07 0.16,0.055 0.145,0.07 0.144,0.09 0.145,0.074 0.125,0.07 0.125,0.09 0.129,0.094 0.105,0.09 0.219,0.18 0.179,0.179 0.071,0.11 0.09,0.089 0.054,0.106 0.074,0.09 0.055,0.109 0.051,0.11 0.055,0.105 0.039,0.109 0.07,0.219 0.02,0.106 0.015,0.109 0.02,0.109 v 0.106 l 0.015,0.109 c 0,1.801 -1.98,3.317 -5.351,3.317 h -6.813 v -0.848 h 1.946 v -10.598 h -1.946 v -0.847 c 0.649,0.07 2.395,0.07 3.153,0.07 0.757,0 2.507,0 3.156,-0.07 v 0.847 h -1.93 v 10.598 h 2.11 c 2.882,0 2.918,-1.387 2.918,-2.488 0,-0.989 0,-2.485 -2.954,-2.485 h -2.074 v -0.652 h 2.09 c 0.254,0 1.047,0 1.605,-0.594 0.579,-0.629 0.579,-0.972 0.579,-2.289 0,-1.172 0,-2.055 1.242,-2.668 0.793,-0.394 1.91,-0.449 2.633,-0.449 1.925,0 2.16,1.605 2.16,1.891 0,0.398 -0.25,0.398 -0.43,0.398 -0.379,0 -0.398,-0.18 -0.414,-0.414 -0.09,-0.848 -0.613,-1.246 -1.156,-1.246 -1.063,0 -1.223,1.281 -1.317,2.039 -0.035,0.18 -0.179,1.422 -0.195,1.512 -0.254,1.261 -1.246,1.804 -2.019,2.093 z"
                   style="fill:#000000;fill-opacity:1;fill-rule:nonzero;stroke:none"
                   id="path1118"
                   inkscape:connector-curvature="0" /><path
                   d="m 215.863,111.937 h -0.433 c -0.035,-0.285 -0.16,-1.027 -0.325,-1.152 -0.089,-0.071 -1.062,-0.071 -1.242,-0.071 h -2.308 c 1.316,1.172 1.765,1.512 2.523,2.11 0.918,0.738 1.785,1.512 1.785,2.703 0,1.512 -1.336,2.449 -2.937,2.449 -1.551,0 -2.614,-1.097 -2.614,-2.254 0,-0.629 0.54,-0.699 0.665,-0.699 0.308,0 0.668,0.215 0.668,0.664 0,0.234 -0.09,0.668 -0.739,0.668 0.395,0.883 1.242,1.172 1.84,1.172 1.242,0 1.91,-0.973 1.91,-2 0,-1.082 -0.793,-1.949 -1.191,-2.398 l -3.027,-2.993 c -0.126,-0.109 -0.126,-0.144 -0.126,-0.488 h 5.172 z"
                   style="fill:#000000;fill-opacity:1;fill-rule:nonzero;stroke:none"
                   id="path1120"
                   inkscape:connector-curvature="0" /><path
                   d="m 319.004,108.441 -0.109,0.738 v 5.301 h 2.414 c 2.687,0 2.687,-1.351 2.687,-2.648 0,-1.262 0,-2.653 -2.703,-2.653 h -2.398 l 0.109,-0.738 h 3.172 c 2.484,0 4.558,1.297 4.558,3.391 0,1.964 -1.765,3.496 -4.738,3.496 h -7.48 v -0.848 h 1.945 v -10.598 h -1.945 v -0.847 c 0.683,0.07 2.433,0.07 3.207,0.07 0.773,0 2.523,0 3.207,-0.07 v 0.847 h -1.926 z"
                   style="fill:#000000;fill-opacity:1;fill-rule:nonzero;stroke:none"
                   id="path1122"
                   inkscape:connector-curvature="0" /><path
                   d="m 334.27,111.847 h -0.434 c -0.035,-0.285 -0.16,-1.027 -0.324,-1.152 -0.09,-0.07 -1.063,-0.07 -1.242,-0.07 h -2.309 c 1.316,1.171 1.766,1.511 2.523,2.105 0.918,0.742 1.786,1.516 1.786,2.707 0,1.512 -1.336,2.449 -2.938,2.449 -1.551,0 -2.613,-1.097 -2.613,-2.254 0,-0.628 0.539,-0.703 0.664,-0.703 0.308,0 0.668,0.219 0.668,0.668 0,0.235 -0.09,0.668 -0.739,0.668 0.399,0.883 1.243,1.172 1.84,1.172 1.243,0 1.891,-0.973 1.891,-2 0,-1.082 -0.773,-1.949 -1.172,-2.398 l -3.027,-2.993 c -0.125,-0.109 -0.125,-0.144 -0.125,-0.488 h 5.172 z"
                   style="fill:#000000;fill-opacity:1;fill-rule:nonzero;stroke:none"
                   id="path1124"
                   inkscape:connector-curvature="0" /><path
                   d="m 99.027,316.25 v 0.07 h 0.02 v 0.055 l 0.019,0.035 v 0.074 l 0.016,0.016 v 0.089 h 0.02 v 0.02 c 0,0.234 -0.2,0.27 -0.325,0.27 -0.125,0 -0.164,0 -0.398,-0.215 l -0.988,-0.832 c -0.703,0.722 -1.641,1.047 -2.852,1.047 -3.316,0 -4.957,-2.559 -4.957,-4.399 0,-0.937 0.434,-1.621 0.867,-2.035 0.629,-0.559 1.063,-0.649 2.379,-0.938 0.414,-0.109 0.902,-0.218 1.406,-0.324 0.305,-0.074 1.426,-0.324 1.426,-1.625 0,-0.844 -0.742,-2.738 -3.086,-2.738 -0.429,0 -1.601,0.055 -2.429,0.539 -1.032,0.633 -1.032,1.496 -1.032,1.84 0,0.144 0,0.398 0.094,0.738 0,0.055 0.016,0.145 0.016,0.18 0,0.254 -0.25,0.254 -0.395,0.254 -0.363,0 -0.379,-0.071 -0.469,-0.414 l -0.921,-3.731 c 0,-0.18 0.164,-0.234 0.308,-0.234 0.16,0 0.16,0.015 0.359,0.16 0.055,0.055 0.739,0.633 1.008,0.867 1.012,-0.883 2.543,-1.027 3.391,-1.027 3.516,0 5.082,2.918 5.082,4.738 0,0.957 -0.395,1.68 -0.809,2.094 -0.652,0.648 -1.082,0.738 -2.578,1.082 l -1.406,0.324 c -0.777,0.16 -1.262,0.719 -1.262,1.422 0,0.867 0.774,2.453 2.957,2.453 1.477,0 2.848,-0.633 2.848,-2.652 0,-0.324 -0.055,-0.649 -0.055,-0.703 0,-0.27 0.25,-0.27 0.434,-0.27 0.34,0 0.359,0.055 0.449,0.399 z"
                   style="fill:#000000;fill-opacity:1;fill-rule:nonzero;stroke:none"
                   id="path1126"
                   inkscape:connector-curvature="0" /><path
                   d="m 103.895,320.14 v 0.219 h -0.016 v 0.035 l -0.02,0.02 v 0.015 l -0.035,0.035 h -0.035 v 0.02 h -0.273 c -0.793,-0.773 -1.946,-0.793 -2.45,-0.793 v -0.449 c 0.289,0 1.137,0 1.821,0.34 v -6.379 c 0,-0.414 0,-0.578 -1.262,-0.578 h -0.469 v -0.45 c 0.215,0.016 1.766,0.055 2.235,0.055 0.379,0 1.964,-0.039 2.234,-0.055 v 0.45 h -0.469 c -1.261,0 -1.261,0.164 -1.261,0.578 z"
                   style="fill:#000000;fill-opacity:1;fill-rule:nonzero;stroke:none"
                   id="path1128"
                   inkscape:connector-curvature="0" /><path
                   d="m 437.91,316.25 v 0.07 h 0.016 v 0.055 l 0.019,0.035 v 0.074 l 0.016,0.016 v 0.089 h 0.019 v 0.02 c 0,0.234 -0.199,0.27 -0.324,0.27 -0.125,0 -0.164,0 -0.398,-0.215 l -0.988,-0.832 c -0.704,0.722 -1.641,1.047 -2.848,1.047 -3.317,0 -4.957,-2.559 -4.957,-4.399 0,-0.937 0.43,-1.621 0.863,-2.035 0.633,-0.559 1.063,-0.649 2.379,-0.938 0.414,-0.109 0.902,-0.218 1.406,-0.324 0.309,-0.074 1.426,-0.324 1.426,-1.625 0,-0.844 -0.742,-2.738 -3.082,-2.738 -0.434,0 -1.605,0.055 -2.434,0.539 -1.027,0.633 -1.027,1.496 -1.027,1.84 0,0.144 0,0.398 0.09,0.738 0,0.055 0.016,0.145 0.016,0.18 0,0.254 -0.25,0.254 -0.395,0.254 -0.359,0 -0.379,-0.071 -0.469,-0.414 l -0.922,-3.731 c 0,-0.18 0.164,-0.234 0.309,-0.234 0.16,0 0.16,0.015 0.359,0.16 0.055,0.055 0.739,0.633 1.012,0.867 1.008,-0.883 2.539,-1.027 3.387,-1.027 3.515,0 5.082,2.918 5.082,4.738 0,0.957 -0.395,1.68 -0.809,2.094 -0.648,0.648 -1.082,0.738 -2.578,1.082 l -1.406,0.324 c -0.774,0.16 -1.262,0.719 -1.262,1.422 0,0.867 0.774,2.453 2.957,2.453 1.477,0 2.848,-0.633 2.848,-2.652 0,-0.324 -0.055,-0.649 -0.055,-0.703 0,-0.27 0.254,-0.27 0.434,-0.27 0.34,0 0.359,0.055 0.449,0.399 z"
                   style="fill:#000000;fill-opacity:1;fill-rule:nonzero;stroke:none"
                   id="path1130"
                   inkscape:connector-curvature="0" /><path
                   d="m 442.773,320.14 v 0.219 h -0.015 v 0.035 l -0.02,0.02 v 0.015 l -0.015,0.02 -0.02,0.015 h -0.035 v 0.02 h -0.27 c -0.793,-0.773 -1.949,-0.793 -2.453,-0.793 v -0.449 c 0.289,0 1.137,0 1.821,0.34 v -6.379 c 0,-0.414 0,-0.578 -1.262,-0.578 h -0.469 v -0.45 c 0.215,0.016 1.766,0.055 2.235,0.055 0.378,0 1.964,-0.039 2.234,-0.055 v 0.45 h -0.469 c -1.262,0 -1.262,0.164 -1.262,0.578 z"
                   style="fill:#000000;fill-opacity:1;fill-rule:nonzero;stroke:none"
                   id="path1132"
                   inkscape:connector-curvature="0" /><path
                   d="m 170.457,178.179 v 0.075 h 0.02 v 0.05 l 0.015,0.039 v 0.071 l 0.02,0.019 v 0.09 h 0.019 v 0.016 c 0,0.234 -0.199,0.273 -0.324,0.273 -0.129,0 -0.164,0 -0.398,-0.219 l -0.993,-0.828 c -0.703,0.723 -1.64,1.047 -2.847,1.047 -3.317,0 -4.957,-2.562 -4.957,-4.398 0,-0.938 0.433,-1.625 0.867,-2.039 0.629,-0.559 1.062,-0.649 2.379,-0.938 0.414,-0.105 0.898,-0.215 1.406,-0.324 0.305,-0.07 1.422,-0.324 1.422,-1.621 0,-0.848 -0.738,-2.738 -3.082,-2.738 -0.434,0 -1.606,0.05 -2.434,0.539 -1.027,0.628 -1.027,1.496 -1.027,1.839 0,0.145 0,0.395 0.09,0.739 0,0.054 0.019,0.144 0.019,0.179 0,0.254 -0.254,0.254 -0.398,0.254 -0.359,0 -0.379,-0.074 -0.469,-0.418 l -0.918,-3.73 c 0,-0.18 0.164,-0.235 0.309,-0.235 0.16,0 0.16,0.02 0.359,0.165 0.055,0.054 0.738,0.628 1.008,0.863 1.012,-0.883 2.543,-1.028 3.391,-1.028 3.515,0 5.082,2.922 5.082,4.743 0,0.953 -0.399,1.675 -0.813,2.09 -0.648,0.648 -1.082,0.738 -2.578,1.082 l -1.402,0.324 c -0.778,0.164 -1.262,0.722 -1.262,1.426 0,0.863 0.773,2.449 2.953,2.449 1.481,0 2.848,-0.629 2.848,-2.649 0,-0.324 -0.051,-0.648 -0.051,-0.703 0,-0.269 0.25,-0.269 0.43,-0.269 0.343,0 0.363,0.054 0.453,0.394 z"
                   style="fill:#000000;fill-opacity:1;fill-rule:nonzero;stroke:none"
                   id="path1134"
                   inkscape:connector-curvature="0" /><path
                   d="m 177.469,176.379 h -0.434 c -0.035,-0.274 -0.16,-1.012 -0.324,-1.137 -0.106,-0.074 -1.063,-0.074 -1.242,-0.074 h -2.309 c 1.317,1.171 1.75,1.515 2.508,2.109 0.918,0.742 1.801,1.516 1.801,2.707 0,1.512 -1.332,2.43 -2.938,2.43 -1.566,0 -2.613,-1.078 -2.613,-2.235 0,-0.629 0.539,-0.703 0.668,-0.703 0.285,0 0.664,0.219 0.664,0.668 0,0.215 -0.09,0.668 -0.754,0.668 0.395,0.883 1.242,1.152 1.836,1.152 1.262,0 1.91,-0.972 1.91,-1.98 0,-1.102 -0.773,-1.965 -1.172,-2.418 l -3.027,-2.973 c -0.125,-0.109 -0.125,-0.144 -0.125,-0.488 h 5.172 z"
                   style="fill:#000000;fill-opacity:1;fill-rule:nonzero;stroke:none"
                   id="path1136"
                   inkscape:connector-curvature="0" /><path
                   d="m 361.945,178.179 v 0.075 h 0.02 v 0.05 l 0.015,0.039 v 0.071 l 0.02,0.019 v 0.09 h 0.016 v 0.016 c 0,0.234 -0.196,0.273 -0.325,0.273 -0.125,0 -0.16,0 -0.394,-0.219 l -0.992,-0.828 c -0.703,0.723 -1.641,1.047 -2.848,1.047 -3.316,0 -4.957,-2.562 -4.957,-4.398 0,-0.938 0.434,-1.625 0.863,-2.039 0.633,-0.559 1.067,-0.649 2.383,-0.938 0.414,-0.105 0.899,-0.215 1.402,-0.324 0.309,-0.07 1.426,-0.324 1.426,-1.621 0,-0.848 -0.738,-2.738 -3.082,-2.738 -0.433,0 -1.605,0.05 -2.433,0.539 -1.028,0.628 -1.028,1.496 -1.028,1.839 0,0.145 0,0.395 0.09,0.739 0,0.054 0.02,0.144 0.02,0.179 0,0.254 -0.254,0.254 -0.399,0.254 -0.359,0 -0.379,-0.074 -0.469,-0.418 l -0.918,-3.73 c 0,-0.18 0.161,-0.235 0.305,-0.235 0.164,0 0.164,0.02 0.363,0.165 0.051,0.054 0.739,0.628 1.008,0.863 1.008,-0.883 2.543,-1.028 3.387,-1.028 3.516,0 5.086,2.922 5.086,4.743 0,0.953 -0.399,1.675 -0.813,2.09 -0.648,0.648 -1.082,0.738 -2.578,1.082 l -1.406,0.324 c -0.773,0.164 -1.262,0.722 -1.262,1.426 0,0.863 0.778,2.449 2.957,2.449 1.477,0 2.848,-0.629 2.848,-2.649 0,-0.324 -0.055,-0.648 -0.055,-0.703 0,-0.269 0.254,-0.269 0.434,-0.269 0.344,0 0.359,0.054 0.449,0.394 z"
                   style="fill:#000000;fill-opacity:1;fill-rule:nonzero;stroke:none"
                   id="path1138"
                   inkscape:connector-curvature="0" /><path
                   d="m 368.957,176.379 h -0.434 c -0.035,-0.274 -0.16,-1.012 -0.324,-1.137 -0.109,-0.074 -1.062,-0.074 -1.242,-0.074 h -2.309 c 1.317,1.171 1.75,1.515 2.504,2.109 0.922,0.742 1.805,1.516 1.805,2.707 0,1.512 -1.336,2.43 -2.937,2.43 -1.571,0 -2.614,-1.078 -2.614,-2.235 0,-0.629 0.539,-0.703 0.664,-0.703 0.289,0 0.668,0.219 0.668,0.668 0,0.215 -0.09,0.668 -0.758,0.668 0.399,0.883 1.247,1.152 1.84,1.152 1.262,0 1.91,-0.972 1.91,-1.98 0,-1.102 -0.773,-1.965 -1.171,-2.418 l -3.028,-2.973 c -0.125,-0.109 -0.125,-0.144 -0.125,-0.488 h 5.172 z"
                   style="fill:#000000;fill-opacity:1;fill-rule:nonzero;stroke:none"
                   id="path1140"
                   inkscape:connector-curvature="0" /><path
                   d="m 254.156,0.265 v 0.071 h -0.015 v 0.035 h -0.02 V 0.39 l -0.035,0.035 c -0.828,0.883 -2.039,2.325 -2.793,5.246 -0.418,1.641 -0.578,3.477 -0.578,5.137 0,4.723 1.137,8.004 3.281,10.348 0.16,0.16 0.16,0.195 0.16,0.234 0,0.16 -0.144,0.16 -0.215,0.16 -0.269,0 -1.226,-1.062 -1.461,-1.332 -1.839,-2.164 -3.007,-5.39 -3.007,-9.39 0,-2.543 0.449,-6.129 2.808,-9.157 0.184,-0.218 1.336,-1.57 1.66,-1.57 0.071,0 0.215,0 0.215,0.164 z"
                   style="fill:#000000;fill-opacity:1;fill-rule:nonzero;stroke:none"
                   id="path1142"
                   inkscape:connector-curvature="0" /><path
                   d="m 263.477,18.324 v 0.035 l -0.02,0.02 v 0.019 l -0.016,0.016 -0.019,0.039 -0.02,0.035 -0.015,0.035 -0.02,0.02 -0.015,0.035 -0.02,0.015 -0.02,0.039 -0.035,0.036 -0.035,0.019 -0.019,0.016 -0.016,0.019 h -0.019 l -0.02,0.016 -0.016,0.019 h -0.054 l -0.02,0.02 h -0.051 l -0.019,0.016 h -0.235 c -0.503,0 -0.578,-0.145 -0.703,-0.469 L 257.617,7.546 c -0.105,-0.269 -0.16,-0.414 -1.512,-0.414 h -0.378 V 6.3 c 0.664,0.02 1.531,0.055 2.089,0.055 0.704,0 1.696,0 2.36,-0.055 v 0.832 c -0.035,0 -1.586,0 -1.586,0.235 0,0.015 0.055,0.195 0.074,0.215 l 0.902,2.179 h 4.793 L 264,10.593 h -4.094 l 2.055,4.973 2.039,-4.973 0.359,-0.832 1.082,-2.629 H 263.73 V 6.3 c 0.684,0.055 2.395,0.055 3.153,0.055 0.722,0 2.308,0 2.937,-0.055 v 0.832 h -1.746 z"
                   style="fill:#000000;fill-opacity:1;fill-rule:nonzero;stroke:none"
                   id="path1144"
                   inkscape:connector-curvature="0" /><path
                   d="m 274.02,17.007 h 0.089 l 0.09,-0.015 h 0.094 l 0.09,-0.02 0.07,-0.015 0.09,-0.02 0.074,-0.035 0.09,-0.02 0.07,-0.035 0.075,-0.035 0.07,-0.055 0.074,-0.035 0.051,-0.054 0.074,-0.055 0.109,-0.109 0.051,-0.071 0.055,-0.074 0.055,-0.07 0.035,-0.075 0.054,-0.089 0.036,-0.071 0.039,-0.09 0.035,-0.089 0.015,-0.11 0.04,-0.09 0.015,-0.109 0.02,-0.105 v -0.11 l 0.015,-0.125 v -0.234 c 0,-1.571 -0.898,-2.02 -1.621,-2.02 -0.504,0 -1.601,0.125 -2.144,0.864 0.593,0.035 0.738,0.453 0.738,0.703 0,0.414 -0.305,0.703 -0.684,0.703 -0.359,0 -0.703,-0.215 -0.703,-0.738 0,-1.172 1.297,-1.93 2.813,-1.93 1.746,0 2.957,1.156 2.957,2.418 0,0.972 -0.813,1.945 -2.184,2.234 1.317,0.485 1.785,1.422 1.785,2.18 0,0.992 -1.136,1.73 -2.523,1.73 -1.406,0 -2.469,-0.668 -2.469,-1.675 0,-0.434 0.27,-0.668 0.649,-0.668 0.394,0 0.648,0.289 0.648,0.648 0,0.363 -0.254,0.613 -0.648,0.648 0.449,0.543 1.316,0.688 1.785,0.688 0.558,0 1.351,-0.27 1.351,-1.371 0,-0.524 -0.179,-1.098 -0.504,-1.496 -0.414,-0.469 -0.757,-0.485 -1.39,-0.539 -0.324,-0.02 -0.34,-0.02 -0.414,-0.039 -0.016,0 -0.125,-0.016 -0.125,-0.161 0,-0.164 0.125,-0.164 0.324,-0.164 z"
                   style="fill:#000000;fill-opacity:1;fill-rule:nonzero;stroke:none"
                   id="path1146"
                   inkscape:connector-curvature="0" /><path
                   d="m 284.113,10.808 v 0.504 l -0.015,0.504 -0.036,0.523 -0.109,1.118 -0.09,0.578 -0.125,0.594 -0.129,0.597 -0.089,0.285 -0.09,0.309 -0.09,0.305 -0.09,0.308 -0.109,0.289 -0.25,0.61 -0.145,0.308 -0.144,0.289 -0.145,0.305 -0.164,0.289 -0.18,0.305 -0.179,0.289 -0.2,0.289 -0.195,0.289 -0.219,0.289 c -0.179,0.215 -1.332,1.566 -1.656,1.566 -0.09,0 -0.219,-0.035 -0.219,-0.16 0,-0.074 0.039,-0.129 0.11,-0.179 0.847,-0.938 2.019,-2.399 2.757,-5.231 0.415,-1.641 0.579,-3.476 0.579,-5.152 0,-1.805 -0.164,-3.625 -0.633,-5.391 -0.684,-2.504 -1.746,-3.93 -2.649,-4.937 -0.164,-0.164 -0.164,-0.2 -0.164,-0.235 0,-0.144 0.129,-0.164 0.219,-0.164 0.27,0 1.242,1.082 1.457,1.336 1.84,2.16 2.992,5.387 2.992,9.371 z"
                   style="fill:#000000;fill-opacity:1;fill-rule:nonzero;stroke:none"
                   id="path1148"
                   inkscape:connector-curvature="0" /><path
                   d="m 296.227,19.949 h 0.019 l 0.02,0.015 h 0.195 l 0.039,0.02 h 0.035 L 296.551,20 h 0.039 l 0.015,0.019 0.02,0.02 h 0.016 v 0.015 l 0.019,0.02 0.02,0.015 0.015,0.02 v 0.035 h 0.02 v 0.074 l 0.019,0.016 v 0.02 c 0,0.324 -0.289,0.324 -0.507,0.324 h -7.481 c -0.195,0 -0.504,0 -0.504,-0.305 0,-0.324 0.289,-0.324 0.504,-0.324 z"
                   style="fill:#000000;fill-opacity:1;fill-rule:nonzero;stroke:none"
                   id="path1150"
                   inkscape:connector-curvature="0" /><path
                   d="m 302.32,25.101 v 0.11 l -0.019,0.019 v 0.09 l -0.016,0.016 v 0.035 h -0.019 v 0.019 h -0.016 v 0.02 h -0.02 v 0.015 h -0.054 l -0.02,0.02 h -0.215 c -0.812,-0.793 -1.945,-0.793 -2.468,-0.793 v -0.449 c 0.304,0 1.136,0 1.82,0.34 v -6.399 c 0,-0.414 0,-0.578 -1.242,-0.578 h -0.489 v -0.449 c 0.235,0.019 1.766,0.054 2.235,0.054 0.398,0 1.965,-0.035 2.254,-0.054 v 0.449 h -0.489 c -1.242,0 -1.242,0.164 -1.242,0.578 z"
                   style="fill:#000000;fill-opacity:1;fill-rule:nonzero;stroke:none"
                   id="path1152"
                   inkscape:connector-curvature="0" /><path
                   d="m 493.172,309.101 h -0.449 c -0.2,-1.836 -0.434,-4.074 -3.606,-4.074 h -1.461 c -0.847,0 -0.883,0.129 -0.883,0.723 v 9.535 c 0,0.613 0,0.863 1.715,0.863 h 0.574 v 0.559 c -0.628,-0.051 -2.269,-0.051 -3.007,-0.051 -0.703,0 -2.094,0 -2.723,0.051 v -0.559 h 0.434 c 1.367,0 1.422,-0.195 1.422,-0.828 v -9.445 c 0,-0.649 -0.055,-0.848 -1.422,-0.848 h -0.434 v -0.559 h 9.336 z"
                   style="fill:#000000;fill-opacity:1;fill-rule:nonzero;stroke:none"
                   id="path1154"
                   inkscape:connector-curvature="0" /><path
                   d="m 495.949,308.617 0.02,0.379 c 0.105,2.664 1.621,3.117 2.234,3.117 1.836,0 2.02,-2.418 2.02,-3.117 h -4.254 l -0.02,-0.379 h 5.012 c 0.394,0 0.449,0 0.449,0.379 0,1.765 -0.972,3.511 -3.207,3.511 -2.094,0 -3.73,-1.855 -3.73,-4.089 0,-2.399 1.871,-4.129 3.945,-4.129 2.18,0 2.992,1.984 2.992,2.324 0,0.183 -0.144,0.219 -0.234,0.219 -0.16,0 -0.199,-0.11 -0.235,-0.254 -0.629,-1.856 -2.234,-1.856 -2.414,-1.856 -0.902,0 -1.625,0.539 -2.039,1.207 -0.539,0.867 -0.539,2.035 -0.539,2.688 z"
                   style="fill:#000000;fill-opacity:1;fill-rule:nonzero;stroke:none"
                   id="path1156"
                   inkscape:connector-curvature="0" /><path
                   d="m 509.414,310.437 v 0.035 l 0.016,0.055 0.019,0.035 0.02,0.055 0.015,0.035 0.039,0.055 0.016,0.035 0.02,0.054 0.035,0.055 0.019,0.055 0.035,0.035 0.071,0.109 0.039,0.051 0.051,0.039 0.039,0.051 0.05,0.039 0.04,0.055 0.054,0.035 0.07,0.035 0.055,0.055 0.071,0.035 0.054,0.035 0.074,0.02 0.09,0.035 0.071,0.019 0.089,0.035 0.09,0.02 0.09,0.016 h 0.145 l 0.054,0.019 h 0.11 v 0.559 c -0.414,-0.035 -0.938,-0.055 -1.352,-0.055 -0.433,0 -1.246,0.035 -1.551,0.055 v -0.559 c 0.668,-0.019 0.864,-0.433 0.864,-0.777 0,-0.16 -0.036,-0.235 -0.106,-0.43 l -1.84,-4.562 -2,4.992 c -0.109,0.234 -0.109,0.273 -0.109,0.308 0,0.469 0.703,0.469 1.012,0.469 v 0.559 c -0.524,-0.02 -1.535,-0.055 -1.95,-0.055 -0.484,0 -1.207,0.02 -1.746,0.055 v -0.559 c 1.133,0 1.207,-0.109 1.442,-0.668 l 2.578,-6.363 c 0.105,-0.234 0.141,-0.324 0.375,-0.324 0.234,0 0.308,0.144 0.379,0.324 z"
                   style="fill:#000000;fill-opacity:1;fill-rule:nonzero;stroke:none"
                   id="path1158"
                   inkscape:connector-curvature="0" /><path
                   d="m 512.91,308.617 0.02,0.379 c 0.105,2.664 1.601,3.117 2.215,3.117 1.859,0 2.039,-2.418 2.039,-3.117 h -4.254 l -0.02,-0.379 h 5.012 c 0.379,0 0.433,0 0.433,0.379 0,1.765 -0.957,3.511 -3.21,3.511 -2.071,0 -3.731,-1.855 -3.731,-4.089 0,-2.399 1.895,-4.129 3.949,-4.129 2.199,0 2.992,1.984 2.992,2.324 0,0.183 -0.128,0.219 -0.218,0.219 -0.16,0 -0.199,-0.11 -0.235,-0.254 -0.629,-1.856 -2.254,-1.856 -2.433,-1.856 -0.883,0 -1.602,0.539 -2.02,1.207 -0.539,0.867 -0.539,2.035 -0.539,2.688 z"
                   style="fill:#000000;fill-opacity:1;fill-rule:nonzero;stroke:none"
                   id="path1160"
                   inkscape:connector-curvature="0" /><path
                   d="m 522.066,316.906 -2.578,-0.199 v -0.559 c 1.262,0 1.407,-0.125 1.407,-0.988 v -9.321 c 0,-0.812 -0.2,-0.812 -1.407,-0.812 v -0.559 c 0.598,0.039 1.551,0.075 2.004,0.075 0.43,0 1.313,-0.036 1.981,-0.075 v 0.559 c -1.207,0 -1.407,0 -1.407,0.812 z"
                   style="fill:#000000;fill-opacity:1;fill-rule:nonzero;stroke:none"
                   id="path1162"
                   inkscape:connector-curvature="0" /><path
                   d="m 535.152,315.933 v 0.305 l -0.015,0.019 v 0.036 l -0.039,0.039 v 0.015 h -0.016 v 0.02 h -0.02 l -0.015,0.015 h -0.055 l -0.019,0.02 h -0.235 c -1.097,-1.152 -2.683,-1.152 -3.261,-1.152 v -0.543 c 0.359,0 1.421,0 2.359,0.453 v -9.266 c 0,-0.648 -0.051,-0.867 -1.676,-0.867 h -0.574 v -0.559 c 0.629,0.075 2.199,0.075 2.918,0.075 0.703,0 2.273,0 2.902,-0.075 v 0.559 h -0.578 c -1.621,0 -1.676,0.199 -1.676,0.867 z"
                   style="fill:#000000;fill-opacity:1;fill-rule:nonzero;stroke:none"
                   id="path1164"
                   inkscape:connector-curvature="0" /><path
                   d="m 493.172,180.609 h -0.449 c -0.2,-1.836 -0.434,-4.07 -3.606,-4.07 h -1.461 c -0.847,0 -0.883,0.125 -0.883,0.718 v 9.536 c 0,0.613 0,0.867 1.715,0.867 h 0.574 v 0.558 c -0.628,-0.054 -2.269,-0.054 -3.007,-0.054 -0.703,0 -2.094,0 -2.723,0.054 v -0.558 h 0.434 c 1.367,0 1.422,-0.199 1.422,-0.832 v -9.446 c 0,-0.648 -0.055,-0.843 -1.422,-0.843 h -0.434 v -0.563 h 9.336 z"
                   style="fill:#000000;fill-opacity:1;fill-rule:nonzero;stroke:none"
                   id="path1166"
                   inkscape:connector-curvature="0" /><path
                   d="m 495.949,180.125 0.02,0.379 c 0.105,2.667 1.621,3.117 2.234,3.117 1.836,0 2.02,-2.414 2.02,-3.117 h -4.254 l -0.02,-0.379 h 5.012 c 0.394,0 0.449,0 0.449,0.379 0,1.765 -0.972,3.515 -3.207,3.515 -2.094,0 -3.73,-1.859 -3.73,-4.094 0,-2.398 1.871,-4.129 3.945,-4.129 2.18,0 2.992,1.985 2.992,2.329 0,0.179 -0.144,0.214 -0.234,0.214 -0.16,0 -0.199,-0.109 -0.235,-0.253 -0.629,-1.856 -2.234,-1.856 -2.414,-1.856 -0.902,0 -1.625,0.543 -2.039,1.207 -0.539,0.867 -0.539,2.039 -0.539,2.688 z"
                   style="fill:#000000;fill-opacity:1;fill-rule:nonzero;stroke:none"
                   id="path1168"
                   inkscape:connector-curvature="0" /><path
                   d="m 509.414,181.945 v 0.035 l 0.016,0.055 0.019,0.035 0.02,0.055 0.015,0.035 0.039,0.054 0.016,0.036 0.02,0.054 0.035,0.055 0.019,0.055 0.035,0.035 0.071,0.109 0.039,0.055 0.051,0.035 0.039,0.055 0.05,0.035 0.04,0.055 0.054,0.035 0.07,0.035 0.055,0.055 0.071,0.035 0.054,0.035 0.074,0.019 0.09,0.036 0.071,0.019 0.089,0.035 0.09,0.02 0.09,0.015 h 0.145 l 0.054,0.02 h 0.11 v 0.559 c -0.414,-0.036 -0.938,-0.055 -1.352,-0.055 -0.433,0 -1.246,0.035 -1.551,0.055 v -0.559 c 0.668,-0.02 0.864,-0.434 0.864,-0.773 0,-0.165 -0.036,-0.235 -0.106,-0.434 l -1.84,-4.563 -2,4.997 c -0.109,0.234 -0.109,0.269 -0.109,0.304 0,0.469 0.703,0.469 1.012,0.469 v 0.559 c -0.524,-0.02 -1.535,-0.055 -1.95,-0.055 -0.484,0 -1.207,0.019 -1.746,0.055 v -0.559 c 1.133,0 1.207,-0.109 1.442,-0.668 l 2.578,-6.363 c 0.105,-0.235 0.141,-0.325 0.375,-0.325 0.234,0 0.308,0.145 0.379,0.325 z"
                   style="fill:#000000;fill-opacity:1;fill-rule:nonzero;stroke:none"
                   id="path1170"
                   inkscape:connector-curvature="0" /><path
                   d="m 512.91,180.125 0.02,0.379 c 0.105,2.667 1.601,3.117 2.215,3.117 1.859,0 2.039,-2.414 2.039,-3.117 h -4.254 l -0.02,-0.379 h 5.012 c 0.379,0 0.433,0 0.433,0.379 0,1.765 -0.957,3.515 -3.21,3.515 -2.071,0 -3.731,-1.859 -3.731,-4.094 0,-2.398 1.895,-4.129 3.949,-4.129 2.199,0 2.992,1.985 2.992,2.329 0,0.179 -0.128,0.214 -0.218,0.214 -0.16,0 -0.199,-0.109 -0.235,-0.253 -0.629,-1.856 -2.254,-1.856 -2.433,-1.856 -0.883,0 -1.602,0.543 -2.02,1.207 -0.539,0.867 -0.539,2.039 -0.539,2.688 z"
                   style="fill:#000000;fill-opacity:1;fill-rule:nonzero;stroke:none"
                   id="path1172"
                   inkscape:connector-curvature="0" /><path
                   d="m 522.066,188.414 -2.578,-0.196 v -0.558 c 1.262,0 1.407,-0.129 1.407,-0.992 v -9.321 c 0,-0.808 -0.2,-0.808 -1.407,-0.808 v -0.563 c 0.598,0.039 1.551,0.074 2.004,0.074 0.43,0 1.313,-0.035 1.981,-0.074 v 0.563 c -1.207,0 -1.407,0 -1.407,0.808 z"
                   style="fill:#000000;fill-opacity:1;fill-rule:nonzero;stroke:none"
                   id="path1174"
                   inkscape:connector-curvature="0" /><path
                   d="m 532.16,177.367 1.91,1.836 c 2.797,2.472 3.86,3.445 3.86,5.23 0,2.055 -1.606,3.477 -3.785,3.477 -2.04,0 -3.352,-1.641 -3.352,-3.242 0,-0.993 0.883,-0.993 0.934,-0.993 0.308,0 0.937,0.215 0.937,0.938 0,0.469 -0.324,0.937 -0.953,0.937 -0.145,0 -0.18,0 -0.234,-0.019 0.414,1.172 1.386,1.82 2.433,1.82 1.621,0 2.399,-1.441 2.399,-2.918 0,-1.426 -0.903,-2.847 -1.895,-3.949 l -3.426,-3.84 c -0.195,-0.199 -0.195,-0.234 -0.195,-0.668 h 6.648 l 0.489,3.121 h -0.434 c -0.09,-0.543 -0.215,-1.316 -0.394,-1.586 -0.129,-0.144 -1.317,-0.144 -1.715,-0.144 z"
                   style="fill:#000000;fill-opacity:1;fill-rule:nonzero;stroke:none"
                   id="path1176"
                   inkscape:connector-curvature="0" /><path
                   d="m 493.172,52.121 h -0.449 c -0.2,-1.84 -0.434,-4.075 -3.606,-4.075 h -1.461 c -0.847,0 -0.883,0.125 -0.883,0.719 V 58.3 c 0,0.614 0,0.868 1.715,0.868 h 0.574 v 0.558 c -0.628,-0.055 -2.269,-0.055 -3.007,-0.055 -0.703,0 -2.094,0 -2.723,0.055 v -0.558 h 0.434 c 1.367,0 1.422,-0.2 1.422,-0.829 v -9.445 c 0,-0.652 -0.055,-0.848 -1.422,-0.848 h -0.434 v -0.558 h 9.336 z"
                   style="fill:#000000;fill-opacity:1;fill-rule:nonzero;stroke:none"
                   id="path1178"
                   inkscape:connector-curvature="0" /><path
                   d="m 495.949,51.632 0.02,0.379 c 0.105,2.668 1.621,3.118 2.234,3.118 1.836,0 2.02,-2.415 2.02,-3.118 h -4.254 l -0.02,-0.379 h 5.012 c 0.394,0 0.449,0 0.449,0.379 0,1.766 -0.972,3.516 -3.207,3.516 -2.094,0 -3.73,-1.859 -3.73,-4.094 0,-2.394 1.871,-4.125 3.945,-4.125 2.18,0 2.992,1.981 2.992,2.324 0,0.18 -0.144,0.215 -0.234,0.215 -0.16,0 -0.199,-0.109 -0.235,-0.25 -0.629,-1.859 -2.234,-1.859 -2.414,-1.859 -0.902,0 -1.625,0.543 -2.039,1.207 -0.539,0.867 -0.539,2.039 -0.539,2.687 z"
                   style="fill:#000000;fill-opacity:1;fill-rule:nonzero;stroke:none"
                   id="path1180"
                   inkscape:connector-curvature="0" /><path
                   d="m 509.414,53.453 v 0.035 l 0.016,0.055 0.019,0.035 0.02,0.054 0.015,0.036 0.039,0.054 0.016,0.039 0.02,0.051 0.035,0.055 0.019,0.054 0.035,0.036 0.071,0.109 0.039,0.055 0.051,0.035 0.039,0.055 0.05,0.035 0.04,0.054 0.054,0.036 0.07,0.035 0.055,0.054 0.071,0.036 0.054,0.039 0.074,0.015 0.09,0.039 0.071,0.016 0.089,0.035 0.18,0.039 h 0.145 l 0.054,0.016 h 0.11 v 0.558 c -0.414,-0.035 -0.938,-0.054 -1.352,-0.054 -0.433,0 -1.246,0.039 -1.551,0.054 V 54.66 c 0.668,-0.016 0.864,-0.434 0.864,-0.774 0,-0.164 -0.036,-0.234 -0.106,-0.433 l -1.84,-4.559 -2,4.992 c -0.109,0.235 -0.109,0.27 -0.109,0.305 0,0.469 0.703,0.469 1.012,0.469 v 0.558 c -0.524,-0.015 -1.535,-0.054 -1.95,-0.054 -0.484,0 -1.207,0.019 -1.746,0.054 V 54.66 c 1.133,0 1.207,-0.106 1.442,-0.668 l 2.578,-6.36 c 0.105,-0.234 0.141,-0.324 0.375,-0.324 0.234,0 0.308,0.141 0.379,0.324 z"
                   style="fill:#000000;fill-opacity:1;fill-rule:nonzero;stroke:none"
                   id="path1182"
                   inkscape:connector-curvature="0" /><path
                   d="m 512.91,51.632 0.02,0.379 c 0.105,2.668 1.601,3.118 2.215,3.118 1.859,0 2.039,-2.415 2.039,-3.118 h -4.254 l -0.02,-0.379 h 5.012 c 0.379,0 0.433,0 0.433,0.379 0,1.766 -0.957,3.516 -3.21,3.516 -2.071,0 -3.731,-1.859 -3.731,-4.094 0,-2.394 1.895,-4.125 3.949,-4.125 2.199,0 2.992,1.981 2.992,2.324 0,0.18 -0.128,0.215 -0.218,0.215 -0.16,0 -0.199,-0.109 -0.235,-0.25 -0.629,-1.859 -2.254,-1.859 -2.433,-1.859 -0.883,0 -1.602,0.543 -2.02,1.207 -0.539,0.867 -0.539,2.039 -0.539,2.687 z"
                   style="fill:#000000;fill-opacity:1;fill-rule:nonzero;stroke:none"
                   id="path1184"
                   inkscape:connector-curvature="0" /><path
                   d="m 522.066,59.925 -2.578,-0.199 v -0.558 c 1.262,0 1.407,-0.125 1.407,-0.993 v -9.32 c 0,-0.809 -0.2,-0.809 -1.407,-0.809 v -0.558 c 0.598,0.035 1.551,0.07 2.004,0.07 0.43,0 1.313,-0.035 1.981,-0.07 v 0.558 c -1.207,0 -1.407,0 -1.407,0.809 z"
                   style="fill:#000000;fill-opacity:1;fill-rule:nonzero;stroke:none"
                   id="path1186"
                   inkscape:connector-curvature="0" /><path
                   d="m 535.082,53.796 0.145,0.055 0.125,0.051 0.144,0.055 0.125,0.054 0.129,0.075 0.105,0.07 0.125,0.07 0.11,0.074 0.125,0.071 0.109,0.09 0.11,0.093 0.089,0.09 0.11,0.09 0.09,0.09 0.089,0.105 0.09,0.094 0.071,0.106 0.074,0.109 0.07,0.109 0.074,0.106 0.071,0.129 0.054,0.105 0.055,0.129 0.035,0.105 0.055,0.129 0.07,0.25 0.02,0.125 0.019,0.129 0.016,0.125 v 0.145 l 0.019,0.125 c 0,1.461 -1.585,2.469 -3.3,2.469 -1.821,0 -3.188,-1.063 -3.188,-2.434 0,-0.594 0.395,-0.934 0.918,-0.934 0.559,0 0.918,0.395 0.918,0.918 0,0.903 -0.848,0.903 -1.117,0.903 0.559,0.863 1.75,1.097 2.379,1.097 0.738,0 1.73,-0.394 1.73,-2 0,-0.218 -0.035,-1.261 -0.504,-2.039 -0.539,-0.863 -1.136,-0.918 -1.586,-0.937 -0.144,-0.016 -0.578,-0.051 -0.703,-0.051 -0.144,-0.02 -0.269,-0.039 -0.269,-0.219 0,-0.195 0.125,-0.195 0.433,-0.195 h 0.793 c 1.457,0 2.125,-1.211 2.125,-2.977 0,-2.433 -1.242,-2.957 -2.019,-2.957 -0.774,0 -2.125,0.309 -2.758,1.371 0.633,-0.089 1.191,0.309 1.191,0.993 0,0.629 -0.488,0.992 -1.011,0.992 -0.43,0 -0.989,-0.254 -0.989,-1.028 0,-1.64 1.657,-2.812 3.606,-2.812 2.195,0 3.82,1.621 3.82,3.441 0,1.481 -1.117,2.868 -2.992,3.246 z"
                   style="fill:#000000;fill-opacity:1;fill-rule:nonzero;stroke:none"
                   id="path1188"
                   inkscape:connector-curvature="0" /></g></g></g></g></g></g></g></svg>