<?xml version="1.0" encoding="UTF-8" standalone="no"?>
<!-- Created with Inkscape (http://www.inkscape.org/) -->

<svg
   xmlns:ns0="http://www.iki.fi/pav/software/textext/"
   xmlns:dc="http://purl.org/dc/elements/1.1/"
   xmlns:cc="http://creativecommons.org/ns#"
   xmlns:rdf="http://www.w3.org/1999/02/22-rdf-syntax-ns#"
   xmlns:svg="http://www.w3.org/2000/svg"
   xmlns="http://www.w3.org/2000/svg"
   xmlns:sodipodi="http://sodipodi.sourceforge.net/DTD/sodipodi-0.dtd"
   xmlns:inkscape="http://www.inkscape.org/namespaces/inkscape"
   id="svg2"
   version="1.1"
   inkscape:version="0.48.2 r9819"
   width="1340.5"
   height="1024.0657"
   sodipodi:docname="flowchart.svg">
  <sodipodi:namedview
     pagecolor="#ffffff"
     bordercolor="#666666"
     borderopacity="1"
     objecttolerance="10"
     gridtolerance="10"
     guidetolerance="10"
     inkscape:pageopacity="0"
     inkscape:pageshadow="2"
     inkscape:window-width="1600"
     inkscape:window-height="821"
     id="namedview4"
     showgrid="false"
     inkscape:zoom="0.31907686"
     inkscape:cx="597.64527"
     inkscape:cy="559.96018"
     inkscape:window-x="-4"
     inkscape:window-y="-4"
     inkscape:window-maximized="1"
     inkscape:current-layer="svg2"
     fit-margin-top="0"
     fit-margin-left="0"
     fit-margin-right="0"
     fit-margin-bottom="0" />
  <metadata
     id="metadata8">
    <rdf:RDF>
      <cc:Work
         rdf:about="">
        <dc:format>image/svg+xml</dc:format>
        <dc:type
           rdf:resource="http://purl.org/dc/dcmitype/StillImage" />
        <dc:title />
      </cc:Work>
    </rdf:RDF>
  </metadata>
  <defs
     id="defs6">
    <inkscape:path-effect
       effect="spiro"
       id="path-effect4601"
       is_visible="true" />
    <marker
       inkscape:stockid="Arrow1Sstart"
       orient="auto"
       refY="0"
       refX="0"
       id="Arrow1Sstart"
       style="overflow:visible">
      <path
         id="path4359"
         d="M 0,0 5,-5 -12.5,0 5,5 0,0 z"
         style="fill-rule:evenodd;stroke:#000000;stroke-width:1pt;marker-start:none"
         transform="matrix(0.2,0,0,0.2,1.2,0)"
         inkscape:connector-curvature="0" />
    </marker>
    <inkscape:path-effect
       effect="spiro"
       id="path-effect3196"
       is_visible="true" />
    <inkscape:path-effect
       effect="spiro"
       id="path-effect8333"
       is_visible="true" />
    <inkscape:path-effect
       effect="spiro"
       id="path-effect7881"
       is_visible="true" />
    <inkscape:path-effect
       effect="spiro"
       id="path-effect7522"
       is_visible="true" />
    <inkscape:path-effect
       effect="spiro"
       id="path-effect7516"
       is_visible="true" />
    <marker
       inkscape:stockid="Arrow1Send"
       orient="auto"
       refY="0"
       refX="0"
       id="Arrow1Send"
       style="overflow:visible">
      <path
         id="path6714"
         d="M 0,0 5,-5 -12.5,0 5,5 0,0 z"
         style="fill-rule:evenodd;stroke:#000000;stroke-width:1pt;marker-start:none"
         transform="matrix(-0.2,0,0,-0.2,-1.2,0)"
         inkscape:connector-curvature="0" />
    </marker>
    <marker
       inkscape:stockid="Arrow1Mend"
       orient="auto"
       refY="0"
       refX="0"
       id="Arrow1Mend"
       style="overflow:visible">
      <path
         id="path6708"
         d="M 0,0 5,-5 -12.5,0 5,5 0,0 z"
         style="fill-rule:evenodd;stroke:#000000;stroke-width:1pt;marker-start:none"
         transform="matrix(-0.4,0,0,-0.4,-4,0)"
         inkscape:connector-curvature="0" />
    </marker>
    <inkscape:path-effect
       effect="spiro"
       id="path-effect6694"
       is_visible="true" />
    <marker
       inkscape:stockid="Arrow1Send"
       orient="auto"
       refY="0"
       refX="0"
       id="Arrow1Send-1"
       style="overflow:visible">
      <path
         inkscape:connector-curvature="0"
         id="path6714-6"
         d="M 0,0 5,-5 -12.5,0 5,5 0,0 z"
         style="fill-rule:evenodd;stroke:#000000;stroke-width:1pt;marker-start:none"
         transform="matrix(-0.2,0,0,-0.2,-1.2,0)" />
    </marker>
    <inkscape:path-effect
       effect="spiro"
       id="path-effect6694-5"
       is_visible="true" />
    <marker
       inkscape:stockid="Arrow1Send"
       orient="auto"
       refY="0"
       refX="0"
       id="Arrow1Send-5"
       style="overflow:visible">
      <path
         inkscape:connector-curvature="0"
         id="path6714-4"
         d="M 0,0 5,-5 -12.5,0 5,5 0,0 z"
         style="fill-rule:evenodd;stroke:#000000;stroke-width:1pt;marker-start:none"
         transform="matrix(-0.2,0,0,-0.2,-1.2,0)" />
    </marker>
    <inkscape:path-effect
       effect="spiro"
       id="path-effect6694-5-1"
       is_visible="true" />
    <marker
       inkscape:stockid="Arrow1Send"
       orient="auto"
       refY="0"
       refX="0"
       id="Arrow1Send-0"
       style="overflow:visible">
      <path
         inkscape:connector-curvature="0"
         id="path6714-0"
         d="M 0,0 5,-5 -12.5,0 5,5 0,0 z"
         style="fill-rule:evenodd;stroke:#000000;stroke-width:1pt;marker-start:none"
         transform="matrix(-0.2,0,0,-0.2,-1.2,0)" />
    </marker>
    <inkscape:path-effect
       effect="spiro"
       id="path-effect6694-5-1-1"
       is_visible="true" />
    <marker
       inkscape:stockid="Arrow1Send"
       orient="auto"
       refY="0"
       refX="0"
       id="Arrow1Send-6"
       style="overflow:visible">
      <path
         inkscape:connector-curvature="0"
         id="path6714-07"
         d="M 0,0 5,-5 -12.5,0 5,5 0,0 z"
         style="fill-rule:evenodd;stroke:#000000;stroke-width:1pt;marker-start:none"
         transform="matrix(-0.2,0,0,-0.2,-1.2,0)" />
    </marker>
    <inkscape:path-effect
       effect="spiro"
       id="path-effect6694-5-1-1-1"
       is_visible="true" />
    <marker
       inkscape:stockid="Arrow1Send"
       orient="auto"
       refY="0"
       refX="0"
       id="Arrow1Send-3"
       style="overflow:visible">
      <path
         inkscape:connector-curvature="0"
         id="path6714-5"
         d="M 0,0 5,-5 -12.5,0 5,5 0,0 z"
         style="fill-rule:evenodd;stroke:#000000;stroke-width:1pt;marker-start:none"
         transform="matrix(-0.2,0,0,-0.2,-1.2,0)" />
    </marker>
    <inkscape:path-effect
       effect="spiro"
       id="path-effect6694-5-1-1-9"
       is_visible="true" />
    <marker
       inkscape:stockid="Arrow1Send"
       orient="auto"
       refY="0"
       refX="0"
       id="Arrow1Send-8"
       style="overflow:visible">
      <path
         inkscape:connector-curvature="0"
         id="path6714-1"
         d="M 0,0 5,-5 -12.5,0 5,5 0,0 z"
         style="fill-rule:evenodd;stroke:#000000;stroke-width:1pt;marker-start:none"
         transform="matrix(-0.2,0,0,-0.2,-1.2,0)" />
    </marker>
    <inkscape:path-effect
       effect="spiro"
       id="path-effect6694-5-1-1-1-8"
       is_visible="true" />
    <marker
       inkscape:stockid="Arrow1Send"
       orient="auto"
       refY="0"
       refX="0"
       id="Arrow1Send-66"
       style="overflow:visible">
      <path
         inkscape:connector-curvature="0"
         id="path6714-03"
         d="M 0,0 5,-5 -12.5,0 5,5 0,0 z"
         style="fill-rule:evenodd;stroke:#000000;stroke-width:1pt;marker-start:none"
         transform="matrix(-0.2,0,0,-0.2,-1.2,0)" />
    </marker>
    <inkscape:path-effect
       effect="spiro"
       id="path-effect6694-5-1-1-1-8-8"
       is_visible="true" />
    <marker
       inkscape:stockid="Arrow1Send"
       orient="auto"
       refY="0"
       refX="0"
       id="marker7539"
       style="overflow:visible">
      <path
         inkscape:connector-curvature="0"
         id="path7541"
         d="M 0,0 5,-5 -12.5,0 5,5 0,0 z"
         style="fill-rule:evenodd;stroke:#000000;stroke-width:1pt;marker-start:none"
         transform="matrix(-0.2,0,0,-0.2,-1.2,0)" />
    </marker>
    <inkscape:path-effect
       effect="spiro"
       id="path-effect6694-5-1-1-1-0"
       is_visible="true" />
    <marker
       inkscape:stockid="Arrow1Send"
       orient="auto"
       refY="0"
       refX="0"
       id="marker7544"
       style="overflow:visible">
      <path
         inkscape:connector-curvature="0"
         id="path7546"
         d="M 0,0 5,-5 -12.5,0 5,5 0,0 z"
         style="fill-rule:evenodd;stroke:#000000;stroke-width:1pt;marker-start:none"
         transform="matrix(-0.2,0,0,-0.2,-1.2,0)" />
    </marker>
    <inkscape:path-effect
       effect="spiro"
       id="path-effect6694-5-1-1-12"
       is_visible="true" />
    <marker
       inkscape:stockid="Arrow1Send"
       orient="auto"
       refY="0"
       refX="0"
       id="marker7549"
       style="overflow:visible">
      <path
         inkscape:connector-curvature="0"
         id="path7551"
         d="M 0,0 5,-5 -12.5,0 5,5 0,0 z"
         style="fill-rule:evenodd;stroke:#000000;stroke-width:1pt;marker-start:none"
         transform="matrix(-0.2,0,0,-0.2,-1.2,0)" />
    </marker>
    <inkscape:path-effect
       effect="spiro"
       id="path-effect6694-5-1-5"
       is_visible="true" />
    <marker
       inkscape:stockid="Arrow1Send"
       orient="auto"
       refY="0"
       refX="0"
       id="marker7554"
       style="overflow:visible">
      <path
         inkscape:connector-curvature="0"
         id="path7556"
         d="M 0,0 5,-5 -12.5,0 5,5 0,0 z"
         style="fill-rule:evenodd;stroke:#000000;stroke-width:1pt;marker-start:none"
         transform="matrix(-0.2,0,0,-0.2,-1.2,0)" />
    </marker>
    <inkscape:path-effect
       effect="spiro"
       id="path-effect6694-5-0"
       is_visible="true" />
    <marker
       inkscape:stockid="Arrow1Send"
       orient="auto"
       refY="0"
       refX="0"
       id="marker7559"
       style="overflow:visible">
      <path
         inkscape:connector-curvature="0"
         id="path7561"
         d="M 0,0 5,-5 -12.5,0 5,5 0,0 z"
         style="fill-rule:evenodd;stroke:#000000;stroke-width:1pt;marker-start:none"
         transform="matrix(-0.2,0,0,-0.2,-1.2,0)" />
    </marker>
    <inkscape:path-effect
       effect="spiro"
       id="path-effect6694-9"
       is_visible="true" />
    <marker
       inkscape:stockid="Arrow1Send"
       orient="auto"
       refY="0"
       refX="0"
       id="Arrow1Send-9"
       style="overflow:visible">
      <path
         inkscape:connector-curvature="0"
         id="path6714-8"
         d="M 0,0 5,-5 -12.5,0 5,5 0,0 z"
         style="fill-rule:evenodd;stroke:#000000;stroke-width:1pt;marker-start:none"
         transform="matrix(-0.2,0,0,-0.2,-1.2,0)" />
    </marker>
    <inkscape:path-effect
       effect="spiro"
       id="path-effect6694-5-1-1-1-8-4"
       is_visible="true" />
    <marker
       inkscape:stockid="Arrow1Send"
       orient="auto"
       refY="0"
       refX="0"
       id="marker7663"
       style="overflow:visible">
      <path
         inkscape:connector-curvature="0"
         id="path7665"
         d="M 0,0 5,-5 -12.5,0 5,5 0,0 z"
         style="fill-rule:evenodd;stroke:#000000;stroke-width:1pt;marker-start:none"
         transform="matrix(-0.2,0,0,-0.2,-1.2,0)" />
    </marker>
    <inkscape:path-effect
       effect="spiro"
       id="path-effect6694-5-1-1-1-1"
       is_visible="true" />
    <marker
       inkscape:stockid="Arrow1Send"
       orient="auto"
       refY="0"
       refX="0"
       id="marker7668"
       style="overflow:visible">
      <path
         inkscape:connector-curvature="0"
         id="path7670"
         d="M 0,0 5,-5 -12.5,0 5,5 0,0 z"
         style="fill-rule:evenodd;stroke:#000000;stroke-width:1pt;marker-start:none"
         transform="matrix(-0.2,0,0,-0.2,-1.2,0)" />
    </marker>
    <inkscape:path-effect
       effect="spiro"
       id="path-effect6694-5-1-1-4"
       is_visible="true" />
    <marker
       inkscape:stockid="Arrow1Send"
       orient="auto"
       refY="0"
       refX="0"
       id="marker7673"
       style="overflow:visible">
      <path
         inkscape:connector-curvature="0"
         id="path7675"
         d="M 0,0 5,-5 -12.5,0 5,5 0,0 z"
         style="fill-rule:evenodd;stroke:#000000;stroke-width:1pt;marker-start:none"
         transform="matrix(-0.2,0,0,-0.2,-1.2,0)" />
    </marker>
    <inkscape:path-effect
       effect="spiro"
       id="path-effect6694-5-1-3"
       is_visible="true" />
    <marker
       inkscape:stockid="Arrow1Send"
       orient="auto"
       refY="0"
       refX="0"
       id="marker7678"
       style="overflow:visible">
      <path
         inkscape:connector-curvature="0"
         id="path7680"
         d="M 0,0 5,-5 -12.5,0 5,5 0,0 z"
         style="fill-rule:evenodd;stroke:#000000;stroke-width:1pt;marker-start:none"
         transform="matrix(-0.2,0,0,-0.2,-1.2,0)" />
    </marker>
    <inkscape:path-effect
       effect="spiro"
       id="path-effect6694-5-9"
       is_visible="true" />
    <marker
       inkscape:stockid="Arrow1Send"
       orient="auto"
       refY="0"
       refX="0"
       id="marker7683"
       style="overflow:visible">
      <path
         inkscape:connector-curvature="0"
         id="path7685"
         d="M 0,0 5,-5 -12.5,0 5,5 0,0 z"
         style="fill-rule:evenodd;stroke:#000000;stroke-width:1pt;marker-start:none"
         transform="matrix(-0.2,0,0,-0.2,-1.2,0)" />
    </marker>
    <inkscape:path-effect
       effect="spiro"
       id="path-effect6694-8"
       is_visible="true" />
    <marker
       inkscape:stockid="Arrow1Send"
       orient="auto"
       refY="0"
       refX="0"
       id="Arrow1Send-4"
       style="overflow:visible">
      <path
         inkscape:connector-curvature="0"
         id="path6714-9"
         d="M 0,0 5,-5 -12.5,0 5,5 0,0 z"
         style="fill-rule:evenodd;stroke:#000000;stroke-width:1pt;marker-start:none"
         transform="matrix(-0.2,0,0,-0.2,-1.2,0)" />
    </marker>
    <inkscape:path-effect
       effect="spiro"
       id="path-effect6694-5-1-3-6"
       is_visible="true" />
    <marker
       inkscape:stockid="Arrow1Send"
       orient="auto"
       refY="0"
       refX="0"
       id="Arrow1Send-34"
       style="overflow:visible">
      <path
         inkscape:connector-curvature="0"
         id="path6714-84"
         d="M 0,0 5,-5 -12.5,0 5,5 0,0 z"
         style="fill-rule:evenodd;stroke:#000000;stroke-width:1pt;marker-start:none"
         transform="matrix(-0.2,0,0,-0.2,-1.2,0)" />
    </marker>
    <inkscape:path-effect
       effect="spiro"
       id="path-effect6694-5-1-3-6-9"
       is_visible="true" />
  </defs>
  <g
     ns0:preamble=""
     ns0:text="\\textsf{Pre-process}"
     word-spacing="normal"
     letter-spacing="normal"
     font-size-adjust="none"
     font-stretch="normal"
     font-weight="normal"
     font-variant="normal"
     font-style="normal"
     stroke-miterlimit="10.433"
     xml:space="preserve"
     transform="matrix(7.1691347,0,0,-7.1691347,-1399.4945,5142.787)"
     id="content"
     style="font-style:normal;font-variant:normal;font-weight:normal;font-stretch:normal;letter-spacing:normal;word-spacing:normal;text-anchor:start;fill:none;stroke:#000000;stroke-linecap:butt;stroke-linejoin:miter;stroke-miterlimit:10.43299961;stroke-opacity:1;stroke-dasharray:none;stroke-dashoffset:0">
<path
   id="path2993"
   d="m 226.93,710 0.12,0 0.11,0.01 0.12,0.01 0.11,0.02 0.11,0.02 0.1,0.03 0.11,0.03 0.1,0.03 0.1,0.05 0.1,0.04 0.1,0.05 0.09,0.05 0.09,0.06 0.09,0.06 0.08,0.06 0.08,0.07 0.08,0.07 0.07,0.07 0.07,0.08 0.06,0.08 0.06,0.08 0.06,0.08 0.05,0.09 0.05,0.09 0.04,0.09 0.04,0.09 0.03,0.1 0.02,0.1 0.02,0.1 0.02,0.1 0.01,0.1 0,0.1 c 0,1.07 -0.98,2.01 -2.36,2.01 h -2.47 v -6.89 h 0.88 V 710 l -0.03,0.57 v 2.89 h 1.41 c 1.09,0 1.77,-0.6 1.77,-1.45 0,-0.78 -0.63,-1.44 -1.77,-1.44 h -1.41 l 0.03,-0.57 z"
   inkscape:connector-curvature="0"
   style="fill:#000000;stroke-width:0" />
<path
   id="path2995"
   d="m 231.36,709.25 0,0.09 0.01,0.09 0.01,0.09 0.01,0.09 0.02,0.08 0.02,0.09 0.03,0.08 0.03,0.08 0.03,0.07 0.03,0.08 0.04,0.07 0.05,0.07 0.04,0.07 0.05,0.06 0.05,0.06 0.06,0.06 0.06,0.06 0.06,0.05 0.06,0.05 0.07,0.05 0.06,0.04 0.08,0.04 0.07,0.04 0.07,0.03 0.08,0.03 0.08,0.03 0.08,0.02 0.09,0.02 0.08,0.02 0.09,0.01 0.09,0.01 0.09,0 v 0.67 c -0.89,-0.01 -1.43,-0.5 -1.74,-0.96 v 0.9 h -0.7 v -4.46 h 0.75 z"
   inkscape:connector-curvature="0"
   style="fill:#000000;stroke-width:0" />
<path
   id="path2997"
   d="m 237.32,709.3 0,0.03 0,0.04 0,0.04 0,0.03 0,0.05 0,0.04 -0.01,0.04 0,0.05 0,0.05 0,0.05 -0.01,0.05 0,0.05 -0.01,0.06 -0.01,0.05 0,0.06 -0.01,0.05 -0.01,0.06 -0.01,0.06 -0.02,0.06 -0.01,0.05 -0.02,0.06 -0.01,0.06 -0.02,0.06 -0.02,0.06 -0.02,0.06 -0.03,0.06 -0.02,0.06 -0.03,0.06 -0.03,0.06 -0.03,0.06 -0.03,0.05 -0.04,0.06 c -0.41,0.61 -1.01,0.73 -1.37,0.73 -1.1,0 -2,-1.06 -2,-2.34 0,-1.31 0.96,-2.35 2.15,-2.35 0.62,0 1.19,0.23 1.58,0.51 l -0.06,0.65 c -0.63,-0.52 -1.28,-0.56 -1.51,-0.56 -0.8,0 -1.43,0.71 -1.46,1.68 l 0.05,0.55 c 0.16,0.75 0.68,1.25 1.25,1.25 0.52,0 1.07,-0.34 1.2,-1.25 h -2.45 l -0.05,-0.55 z"
   inkscape:connector-curvature="0"
   style="fill:#000000;stroke-width:0" />
<polygon
   id="polygon2999"
   points="240.38,709.62 237.74,709.62 237.74,709.04 240.38,709.04 "
   style="fill:#000000;stroke-width:0" />
<path
   id="path3001"
   d="m 242.54,707.58 0.1,0.51 c -0.1,0.15 -0.1,0.17 -0.1,0.35 v 1.99 c 0.24,0.35 0.63,0.58 1.06,0.58 0.75,0 1.35,-0.76 1.35,-1.67 0,-1.02 -0.71,-1.72 -1.45,-1.72 -0.39,0 -0.66,0.2 -0.86,0.47 l -0.1,-0.51 c 0.31,-0.29 0.75,-0.56 1.34,-0.56 0.97,0 1.85,0.97 1.85,2.32 0,1.19 -0.63,2.31 -1.59,2.31 -0.59,0 -1.17,-0.21 -1.63,-0.6 v 0.49 h -0.75 v -6.34 h 0.78 z"
   inkscape:connector-curvature="0"
   style="fill:#000000;stroke-width:0" />
<path
   id="path3003"
   d="m 247.38,709.25 0,0.09 0.01,0.09 0.01,0.09 0.01,0.09 0.02,0.08 0.02,0.09 0.03,0.08 0.03,0.08 0.03,0.07 0.04,0.08 0.04,0.07 0.04,0.07 0.04,0.07 0.05,0.06 0.05,0.06 0.06,0.06 0.06,0.06 0.06,0.05 0.06,0.05 0.07,0.05 0.07,0.04 0.07,0.04 0.07,0.04 0.08,0.03 0.07,0.03 0.08,0.03 0.08,0.02 0.09,0.02 0.08,0.02 0.09,0.01 0.09,0.01 0.09,0 v 0.67 c -0.88,-0.01 -1.43,-0.5 -1.74,-0.96 v 0.9 h -0.7 v -4.46 h 0.75 z"
   inkscape:connector-curvature="0"
   style="fill:#000000;stroke-width:0" />
<path
   id="path3005"
   d="m 253.89,709.31 0,0.12 -0.01,0.13 -0.02,0.12 -0.02,0.12 -0.02,0.11 -0.03,0.12 -0.04,0.11 -0.04,0.11 -0.04,0.1 -0.05,0.11 -0.05,0.1 -0.06,0.09 -0.06,0.1 -0.07,0.09 -0.06,0.08 -0.08,0.09 -0.07,0.08 -0.08,0.07 -0.09,0.07 -0.08,0.07 -0.09,0.06 -0.09,0.06 -0.09,0.05 -0.1,0.05 -0.1,0.04 -0.1,0.04 -0.1,0.03 -0.11,0.03 -0.1,0.02 -0.11,0.01 -0.11,0.01 -0.11,0.01 -0.01,-0.61 c 0.7,0 1.41,-0.52 1.41,-1.69 0,-1.17 -0.67,-1.76 -1.41,-1.76 h 0 c -0.69,0 -1.4,0.56 -1.4,1.76 0,1.2 0.75,1.69 1.4,1.69 l 0.01,0.61 c -1.22,0 -2.19,-1.1 -2.19,-2.4 0,-1.31 1.02,-2.29 2.18,-2.29 1.19,0 2.19,1 2.19,2.29 z"
   inkscape:connector-curvature="0"
   style="fill:#000000;stroke-width:0" />
<path
   id="path3007"
   d="m 258.56,711.28 -0.05,0.03 -0.06,0.03 -0.05,0.03 -0.05,0.02 -0.05,0.03 -0.05,0.02 -0.04,0.02 -0.05,0.03 -0.05,0.02 -0.04,0.02 -0.05,0.01 -0.04,0.02 -0.09,0.03 -0.09,0.03 -0.08,0.02 -0.09,0.02 -0.09,0.01 -0.1,0.02 -0.05,0 -0.04,0 -0.05,0.01 -0.05,0 -0.06,0 -0.05,0 -0.05,0 -0.06,0.01 c -1.38,0 -2.19,-1.21 -2.19,-2.38 0,-1.23 0.91,-2.31 2.15,-2.31 0.54,0 1.08,0.14 1.62,0.5 l -0.06,0.67 c -0.51,-0.4 -1.04,-0.54 -1.55,-0.54 -0.83,0 -1.38,0.72 -1.38,1.69 0,0.77 0.37,1.73 1.42,1.73 0.52,0 0.85,-0.08 1.4,-0.44 z"
   inkscape:connector-curvature="0"
   style="fill:#000000;stroke-width:0" />
<path
   id="path3009"
   d="m 263.03,709.3 0,0.03 0,0.04 0,0.04 0,0.03 0,0.05 0,0.04 -0.01,0.04 0,0.05 0,0.05 -0.01,0.05 0,0.05 0,0.05 -0.01,0.06 -0.01,0.05 -0.01,0.06 0,0.05 -0.01,0.06 -0.02,0.06 -0.01,0.06 -0.01,0.05 -0.02,0.06 -0.01,0.06 -0.02,0.06 -0.02,0.06 -0.02,0.06 -0.03,0.06 -0.02,0.06 -0.03,0.06 -0.03,0.06 -0.03,0.06 -0.03,0.05 -0.04,0.06 c -0.41,0.61 -1.01,0.73 -1.37,0.73 -1.11,0 -2,-1.06 -2,-2.34 0,-1.31 0.95,-2.35 2.15,-2.35 0.62,0 1.19,0.23 1.58,0.51 l -0.06,0.65 c -0.63,-0.52 -1.28,-0.56 -1.51,-0.56 -0.8,0 -1.44,0.71 -1.47,1.68 l 0.05,0.55 c 0.16,0.75 0.69,1.25 1.26,1.25 0.51,0 1.07,-0.34 1.2,-1.25 H 260 l -0.05,-0.55 z"
   inkscape:connector-curvature="0"
   style="fill:#000000;stroke-width:0" />
<path
   id="path3011"
   d="m 266.75,711.39 -0.05,0.02 -0.05,0.02 -0.09,0.04 -0.09,0.03 -0.09,0.04 -0.09,0.03 -0.09,0.02 -0.08,0.03 -0.09,0.02 -0.09,0.01 -0.08,0.02 -0.09,0.01 -0.09,0.01 -0.09,0.01 -0.09,0 -0.09,0 -0.09,0.01 c -0.25,0 -1.65,0 -1.65,-1.31 0,-0.48 0.28,-0.8 0.53,-0.99 0.31,-0.22 0.53,-0.26 1.08,-0.37 0.36,-0.07 0.93,-0.19 0.93,-0.71 0,-0.69 -0.78,-0.69 -0.93,-0.69 -0.81,0 -1.37,0.37 -1.55,0.49 l -0.11,-0.68 c 0.31,-0.16 0.86,-0.43 1.67,-0.43 0.18,0 0.72,0 1.15,0.31 0.31,0.24 0.48,0.64 0.48,1.07 0,0.54 -0.37,0.88 -0.39,0.91 -0.39,0.35 -0.66,0.41 -1.15,0.5 -0.55,0.11 -1.01,0.21 -1.01,0.69 0,0.62 0.72,0.62 0.85,0.62 0.32,0 0.84,-0.04 1.41,-0.38 z"
   inkscape:connector-curvature="0"
   style="fill:#000000;stroke-width:0" />
<path
   id="path3013"
   d="m 270.57,711.39 -0.05,0.02 -0.05,0.02 -0.09,0.04 -0.09,0.03 -0.09,0.04 -0.09,0.03 -0.09,0.02 -0.09,0.03 -0.08,0.02 -0.09,0.01 -0.08,0.02 -0.09,0.01 -0.09,0.01 -0.09,0.01 -0.09,0 -0.09,0 -0.09,0.01 c -0.25,0 -1.66,0 -1.66,-1.31 0,-0.48 0.29,-0.8 0.54,-0.99 0.31,-0.22 0.53,-0.26 1.08,-0.37 0.35,-0.07 0.93,-0.19 0.93,-0.71 0,-0.69 -0.79,-0.69 -0.93,-0.69 -0.81,0 -1.37,0.37 -1.55,0.49 l -0.12,-0.68 c 0.32,-0.16 0.87,-0.43 1.68,-0.43 0.18,0 0.72,0 1.15,0.31 0.31,0.24 0.48,0.64 0.48,1.07 0,0.54 -0.37,0.88 -0.39,0.91 -0.39,0.35 -0.66,0.41 -1.15,0.5 -0.55,0.11 -1.01,0.21 -1.01,0.69 0,0.62 0.72,0.62 0.85,0.62 0.32,0 0.84,-0.04 1.41,-0.38 z"
   inkscape:connector-curvature="0"
   style="fill:#000000;stroke-width:0" />
</g>  <g
     id="g3149"
     transform="matrix(7.1691347,0,0,-7.1691347,-1399.4945,5293.921)"
     xml:space="preserve"
     stroke-miterlimit="10.433"
     font-style="normal"
     font-variant="normal"
     font-weight="normal"
     font-stretch="normal"
     font-size-adjust="none"
     letter-spacing="normal"
     word-spacing="normal"
     ns0:text="\\textsf{Time loop}"
     ns0:preamble=""
     style="font-style:normal;font-variant:normal;font-weight:normal;font-stretch:normal;letter-spacing:normal;word-spacing:normal;text-anchor:start;fill:none;stroke:#000000;stroke-linecap:butt;stroke-linejoin:miter;stroke-miterlimit:10.43299961;stroke-opacity:1;stroke-dasharray:none;stroke-dashoffset:0">
<path
   d="m 227.26,713.32 h 0.89 c 0.12,0 0.24,-0.01 0.36,-0.01 h 1.33 v 0.65 h -6.05 v -0.65 h 1.33 c 0.12,0 0.24,0.01 0.36,0.01 h 0.9 v -6.19 h 0.88 z"
   id="path3151"
   inkscape:connector-curvature="0"
   style="fill:#000000;stroke-width:0" />
<polygon
   points="230.95,713.88 230.95,713 231.83,713 231.83,713.88 "
   id="polygon3153"
   style="fill:#000000;stroke-width:0" />
<polygon
   points="231.02,711.54 231.02,707.13 231.76,707.13 231.76,711.54 "
   id="polygon3155"
   style="fill:#000000;stroke-width:0" />
<path
   d="m 239.69,710.09 0,0.06 -0.01,0.06 0,0.07 0,0.06 -0.01,0.07 -0.01,0.07 -0.01,0.06 -0.01,0.07 -0.01,0.07 -0.02,0.06 -0.02,0.07 -0.02,0.06 -0.02,0.06 -0.03,0.07 -0.03,0.06 -0.03,0.05 -0.04,0.06 -0.04,0.06 -0.05,0.05 -0.05,0.05 -0.05,0.04 -0.06,0.05 -0.06,0.04 -0.07,0.03 -0.03,0.02 -0.04,0.02 -0.04,0.01 -0.03,0.02 -0.04,0.01 -0.05,0.01 -0.04,0.02 -0.04,0.01 -0.05,0 -0.05,0.01 -0.04,0.01 -0.05,0 -0.05,0.01 -0.06,0 -0.05,0 -0.06,0.01 c -0.59,0 -1.11,-0.28 -1.48,-0.82 -0.26,0.76 -0.95,0.82 -1.27,0.82 -0.72,0 -1.19,-0.41 -1.45,-0.77 v 0.71 h -0.72 v -4.46 h 0.77 v 2.43 c 0,0.67 0.27,1.48 1.01,1.48 0.92,0 0.97,-0.65 0.97,-1.02 v -2.89 h 0.78 v 2.43 c 0,0.67 0.27,1.48 1,1.48 0.93,0 0.98,-0.65 0.98,-1.02 v -2.89 h 0.78 z"
   id="path3157"
   inkscape:connector-curvature="0"
   style="fill:#000000;stroke-width:0" />
<path
   d="m 244.63,709.3 0,0.03 0,0.04 0,0.04 -0.01,0.03 0,0.05 0,0.04 0,0.04 0,0.05 0,0.05 -0.01,0.05 0,0.05 -0.01,0.05 0,0.06 -0.01,0.05 -0.01,0.06 -0.01,0.05 -0.01,0.06 -0.01,0.06 -0.01,0.06 -0.02,0.05 -0.01,0.06 -0.02,0.06 -0.02,0.06 -0.02,0.06 -0.02,0.06 -0.02,0.06 -0.03,0.06 -0.02,0.06 -0.03,0.06 -0.03,0.06 -0.04,0.05 -0.03,0.06 c -0.41,0.61 -1.02,0.73 -1.38,0.73 -1.1,0 -2,-1.06 -2,-2.34 0,-1.31 0.96,-2.35 2.15,-2.35 0.63,0 1.2,0.23 1.59,0.51 l -0.06,0.65 c -0.63,-0.52 -1.29,-0.56 -1.52,-0.56 -0.79,0 -1.43,0.71 -1.46,1.68 l 0.05,0.55 c 0.16,0.75 0.69,1.25 1.25,1.25 0.52,0 1.08,-0.34 1.21,-1.25 h -2.46 l -0.05,-0.55 z"
   id="path3159"
   inkscape:connector-curvature="0"
   style="fill:#000000;stroke-width:0" />
<polygon
   points="249.06,714.02 249.06,707.13 249.8,707.13 249.8,714.02 "
   id="polygon3161"
   style="fill:#000000;stroke-width:0" />
<path
   d="m 255.3,709.31 0,0.12 -0.01,0.13 -0.02,0.12 -0.02,0.12 -0.02,0.11 -0.03,0.12 -0.04,0.11 -0.04,0.11 -0.04,0.1 -0.05,0.11 -0.05,0.1 -0.06,0.09 -0.06,0.1 -0.07,0.09 -0.06,0.08 -0.08,0.09 -0.07,0.08 -0.08,0.07 -0.09,0.07 -0.08,0.07 -0.09,0.06 -0.09,0.06 -0.09,0.05 -0.1,0.05 -0.1,0.04 -0.1,0.04 -0.1,0.03 -0.11,0.03 -0.1,0.02 -0.11,0.01 -0.11,0.01 -0.11,0.01 -0.01,-0.61 c 0.7,0 1.41,-0.52 1.41,-1.69 0,-1.17 -0.67,-1.76 -1.41,-1.76 h 0 c -0.69,0 -1.4,0.56 -1.4,1.76 0,1.2 0.75,1.69 1.4,1.69 l 0.01,0.61 c -1.22,0 -2.19,-1.1 -2.19,-2.4 0,-1.31 1.02,-2.29 2.18,-2.29 1.19,0 2.19,1 2.19,2.29 z"
   id="path3163"
   inkscape:connector-curvature="0"
   style="fill:#000000;stroke-width:0" />
<path
   d="m 260.56,709.31 0,0.12 -0.01,0.13 -0.02,0.12 -0.02,0.12 -0.02,0.11 -0.03,0.12 -0.04,0.11 -0.04,0.11 -0.04,0.1 -0.05,0.11 -0.05,0.1 -0.06,0.09 -0.06,0.1 -0.07,0.09 -0.06,0.08 -0.08,0.09 -0.07,0.08 -0.08,0.07 -0.09,0.07 -0.08,0.07 -0.09,0.06 -0.09,0.06 -0.09,0.05 -0.1,0.05 -0.1,0.04 -0.1,0.04 -0.1,0.03 -0.11,0.03 -0.1,0.02 -0.11,0.01 -0.11,0.01 -0.11,0.01 -0.01,-0.61 c 0.7,0 1.41,-0.52 1.41,-1.69 0,-1.17 -0.67,-1.76 -1.41,-1.76 h 0 c -0.69,0 -1.4,0.56 -1.4,1.76 0,1.2 0.75,1.69 1.4,1.69 l 0.01,0.61 c -1.22,0 -2.19,-1.1 -2.19,-2.4 0,-1.31 1.01,-2.29 2.18,-2.29 1.19,0 2.19,1 2.19,2.29 z"
   id="path3165"
   inkscape:connector-curvature="0"
   style="fill:#000000;stroke-width:0" />
<path
   d="m 262.46,707.58 0.11,0.51 c -0.11,0.15 -0.11,0.17 -0.11,0.35 v 1.99 c 0.24,0.35 0.63,0.58 1.06,0.58 0.76,0 1.35,-0.76 1.35,-1.67 0,-1.02 -0.7,-1.72 -1.45,-1.72 -0.39,0 -0.66,0.2 -0.85,0.47 l -0.11,-0.51 c 0.31,-0.29 0.75,-0.56 1.35,-0.56 0.96,0 1.84,0.97 1.84,2.32 0,1.19 -0.63,2.31 -1.58,2.31 -0.6,0 -1.18,-0.21 -1.64,-0.6 v 0.49 h -0.74 v -6.34 h 0.77 z"
   id="path3167"
   inkscape:connector-curvature="0"
   style="fill:#000000;stroke-width:0" />
</g>  <g
     style="font-style:normal;font-variant:normal;font-weight:normal;font-stretch:normal;letter-spacing:normal;word-spacing:normal;text-anchor:start;fill:none;stroke:#000000;stroke-linecap:butt;stroke-linejoin:miter;stroke-miterlimit:10.43299961;stroke-opacity:1;stroke-dasharray:none;stroke-dashoffset:0"
     ns0:preamble=""
     ns0:text="\\textsf{Global Newton iteration}"
     word-spacing="normal"
     letter-spacing="normal"
     font-size-adjust="none"
     font-stretch="normal"
     font-weight="normal"
     font-variant="normal"
     font-style="normal"
     stroke-miterlimit="10.433"
     xml:space="preserve"
     transform="matrix(7.1691347,0,0,-7.1691347,-1399.4945,5451.921)"
     id="g3361">
<path
   style="fill:#000000;stroke-width:0"
   inkscape:connector-curvature="0"
   id="path3363"
   d="m 229.4,710.09 h -2.1 v -0.61 h 1.32 v -1.62 c -0.4,-0.14 -0.88,-0.21 -1.31,-0.21 -1.31,0 -2.33,1.32 -2.33,2.93 0,1.56 1,2.91 2.31,2.91 0.81,0 1.37,-0.24 1.88,-0.65 l 0.14,0.81 c -0.55,0.35 -1.33,0.49 -1.99,0.49 -1.92,0 -3.23,-1.74 -3.23,-3.56 0,-1.81 1.32,-3.56 3.23,-3.56 0.74,0 1.42,0.19 2.08,0.48 z" />
<polygon
   style="fill:#000000;stroke-width:0"
   id="polygon3365"
   points="230.88,714.02 230.88,707.13 231.63,707.13 231.63,714.02 " />
<path
   style="fill:#000000;stroke-width:0"
   inkscape:connector-curvature="0"
   id="path3367"
   d="m 237.12,709.31 0,0.12 -0.01,0.13 -0.02,0.12 -0.02,0.12 -0.02,0.11 -0.03,0.12 -0.03,0.11 -0.04,0.11 -0.05,0.1 -0.05,0.11 -0.05,0.1 -0.06,0.09 -0.06,0.1 -0.06,0.09 -0.07,0.08 -0.08,0.09 -0.07,0.08 -0.08,0.07 -0.08,0.07 -0.09,0.07 -0.09,0.06 -0.09,0.06 -0.09,0.05 -0.1,0.05 -0.1,0.04 -0.1,0.04 -0.1,0.03 -0.11,0.03 -0.1,0.02 -0.11,0.01 -0.11,0.01 -0.11,0.01 -0.01,-0.61 c 0.7,0 1.41,-0.52 1.41,-1.69 0,-1.17 -0.67,-1.76 -1.41,-1.76 h 0 c -0.69,0 -1.4,0.56 -1.4,1.76 0,1.2 0.76,1.69 1.4,1.69 l 0.01,0.61 c -1.22,0 -2.19,-1.1 -2.19,-2.4 0,-1.31 1.02,-2.29 2.18,-2.29 1.2,0 2.19,1 2.19,2.29 z" />
<path
   style="fill:#000000;stroke-width:0"
   inkscape:connector-curvature="0"
   id="path3369"
   d="m 239,714.02 h -0.75 v -6.89 h 0.78 v 0.45 c 0.24,-0.22 0.66,-0.56 1.33,-0.56 0.99,0 1.85,0.99 1.85,2.32 0,1.23 -0.68,2.31 -1.61,2.31 -0.39,0 -1.01,-0.1 -1.6,-0.59 l 0.03,-0.61 c 0.16,0.24 0.51,0.59 1.06,0.59 0.59,0 1.34,-0.43 1.34,-1.7 0,-1.29 -0.83,-1.72 -1.44,-1.72 -0.39,0 -0.71,0.18 -0.96,0.64 v 2.19 l -0.03,0.61 z" />
<path
   style="fill:#000000;stroke-width:0"
   inkscape:connector-curvature="0"
   id="path3371"
   d="m 246.55,710 0,0.09 -0.01,0.09 -0.01,0.09 -0.01,0.09 -0.02,0.09 -0.02,0.08 -0.03,0.08 -0.02,0.08 -0.04,0.08 -0.03,0.07 -0.04,0.07 -0.05,0.07 -0.04,0.07 -0.05,0.06 -0.05,0.06 -0.05,0.06 -0.06,0.06 -0.06,0.05 -0.06,0.05 -0.07,0.04 -0.06,0.04 -0.07,0.04 -0.07,0.04 -0.08,0.03 -0.07,0.03 -0.08,0.02 -0.08,0.03 -0.08,0.01 -0.08,0.02 -0.08,0.01 -0.08,0 -0.09,0.01 c -0.65,0 -1.09,-0.16 -1.56,-0.43 l 0.06,-0.66 c 0.52,0.37 1.01,0.5 1.5,0.5 0.47,0 0.87,-0.4 0.87,-1.13 v -0.43 c -1.5,-0.02 -2.76,-0.44 -2.76,-1.31 0,-0.43 0.27,-1.23 1.13,-1.23 0.14,0 1.08,0.02 1.66,0.46 l -0.37,0.33 c -0.29,-0.18 -0.67,-0.19 -0.78,-0.19 -0.48,0 -0.92,0.23 -0.92,0.65 0,0.69 1.61,0.76 2.04,0.78 v -0.61 c 0,-0.19 0,-0.44 -0.34,-0.63 l 0.37,-0.33 v -0.35 h 0.74 z" />
<polygon
   style="fill:#000000;stroke-width:0"
   id="polygon3373"
   points="248.18,714.02 248.18,707.13 248.92,707.13 248.92,714.02 " />
<path
   style="fill:#000000;stroke-width:0"
   inkscape:connector-curvature="0"
   id="path3375"
   d="m 255.26,714.02 h -1.24 v -6.89 h 0.78 v 6.18 h 0.01 c 0.19,-0.4 0.61,-1.25 0.67,-1.36 l 2.43,-4.82 h 1.24 v 6.89 h -0.78 v -6.19 h -0.01 c -0.19,0.41 -0.6,1.25 -0.66,1.36 z" />
<path
   style="fill:#000000;stroke-width:0"
   inkscape:connector-curvature="0"
   id="path3377"
   d="m 264.24,709.3 0,0.03 0,0.04 0,0.04 0,0.03 0,0.05 0,0.04 0,0.04 0,0.05 -0.01,0.05 0,0.05 0,0.05 -0.01,0.05 -0.01,0.06 0,0.05 -0.01,0.06 -0.01,0.05 -0.01,0.06 -0.01,0.06 -0.01,0.06 -0.02,0.05 -0.01,0.06 -0.02,0.06 -0.02,0.06 -0.02,0.06 -0.02,0.06 -0.02,0.06 -0.03,0.06 -0.03,0.06 -0.02,0.06 -0.04,0.06 -0.03,0.05 -0.03,0.06 c -0.41,0.61 -1.02,0.73 -1.38,0.73 -1.1,0 -2,-1.06 -2,-2.34 0,-1.31 0.96,-2.35 2.15,-2.35 0.63,0 1.2,0.23 1.58,0.51 l -0.06,0.65 c -0.62,-0.52 -1.28,-0.56 -1.51,-0.56 -0.79,0 -1.43,0.71 -1.46,1.68 l 0.05,0.55 c 0.16,0.75 0.69,1.25 1.25,1.25 0.52,0 1.08,-0.34 1.21,-1.25 h -2.46 l -0.05,-0.55 z" />
<path
   style="fill:#000000;stroke-width:0"
   inkscape:connector-curvature="0"
   id="path3379"
   d="m 271.2,711.54 h -0.73 l -0.63,-2.11 c -0.11,-0.36 -0.41,-1.34 -0.46,-1.77 h -0.01 c -0.04,0.31 -0.29,1.19 -0.46,1.76 l -0.65,2.12 h -0.69 L 267,709.67 c -0.11,-0.35 -0.45,-1.49 -0.49,-2 h -0.01 c -0.05,0.48 -0.37,1.6 -0.54,2.15 l -0.51,1.72 h -0.76 l 1.36,-4.41 h 0.79 c 0.05,0.15 0.4,1.27 0.62,2.04 0.14,0.46 0.42,1.44 0.44,1.81 h 0.02 c 0.01,-0.28 0.18,-0.96 0.31,-1.39 l 0.73,-2.46 h 0.88 z" />
<path
   style="fill:#000000;stroke-width:0"
   inkscape:connector-curvature="0"
   id="path3381"
   d="m 273.1,710.96 h 1.4 v 0.58 h -1.4 v 1.26 h -0.68 v -1.26 h -0.87 v -0.58 h 0.84 v -2.65 c 0,-0.6 0.13,-1.29 0.82,-1.29 0.7,0 1.2,0.24 1.45,0.37 l -0.16,0.59 c -0.26,-0.21 -0.57,-0.33 -0.89,-0.33 -0.37,0 -0.51,0.3 -0.51,0.83 z" />
<path
   style="fill:#000000;stroke-width:0"
   inkscape:connector-curvature="0"
   id="path3383"
   d="m 279.62,709.31 0,0.12 -0.01,0.13 -0.01,0.12 -0.02,0.12 -0.03,0.11 -0.03,0.12 -0.03,0.11 -0.04,0.11 -0.04,0.1 -0.05,0.11 -0.06,0.1 -0.05,0.09 -0.06,0.1 -0.07,0.09 -0.07,0.08 -0.07,0.09 -0.08,0.08 -0.08,0.07 -0.08,0.07 -0.09,0.07 -0.08,0.06 -0.09,0.06 -0.1,0.05 -0.1,0.05 -0.09,0.04 -0.1,0.04 -0.11,0.03 -0.1,0.03 -0.11,0.02 -0.11,0.01 -0.1,0.01 -0.11,0.01 -0.02,-0.61 c 0.7,0 1.42,-0.52 1.42,-1.69 0,-1.17 -0.68,-1.76 -1.42,-1.76 h 0 c -0.68,0 -1.4,0.56 -1.4,1.76 0,1.2 0.76,1.69 1.4,1.69 l 0.02,0.61 c -1.23,0 -2.19,-1.1 -2.19,-2.4 0,-1.31 1.01,-2.29 2.17,-2.29 1.2,0 2.19,1 2.19,2.29 z" />
<path
   style="fill:#000000;stroke-width:0"
   inkscape:connector-curvature="0"
   id="path3385"
   d="m 284.27,710.09 0,0.06 0,0.06 -0.01,0.07 0,0.06 -0.01,0.07 0,0.06 -0.01,0.07 -0.02,0.07 -0.01,0.06 -0.01,0.07 -0.02,0.06 -0.02,0.07 -0.03,0.06 -0.03,0.06 -0.03,0.06 -0.03,0.06 -0.04,0.06 -0.04,0.05 -0.04,0.05 -0.05,0.05 -0.05,0.05 -0.06,0.05 -0.06,0.04 -0.07,0.03 -0.04,0.02 -0.03,0.02 -0.04,0.01 -0.04,0.02 -0.04,0.01 -0.04,0.01 -0.04,0.01 -0.05,0.01 -0.04,0.01 -0.05,0.01 -0.05,0.01 -0.05,0 -0.05,0.01 -0.06,0 -0.05,0 -0.06,0.01 c -0.89,0 -1.38,-0.68 -1.44,-0.76 v 0.7 h -0.72 v -4.46 h 0.78 v 2.43 c 0,0.65 0.25,1.48 1.01,1.48 0.95,0 0.96,-0.71 0.96,-1.02 v -2.89 h 0.78 z" />
<polygon
   style="fill:#000000;stroke-width:0"
   id="polygon3387"
   points="289.15,713.88 289.15,713 290.04,713 290.04,713.88 " />
<polygon
   style="fill:#000000;stroke-width:0"
   id="polygon3389"
   points="289.22,711.54 289.22,707.13 289.97,707.13 289.97,711.54 " />
<path
   style="fill:#000000;stroke-width:0"
   inkscape:connector-curvature="0"
   id="path3391"
   d="m 292.54,710.96 h 1.4 v 0.58 h -1.4 v 1.26 h -0.69 v -1.26 h -0.87 v -0.58 h 0.84 v -2.65 c 0,-0.6 0.14,-1.29 0.82,-1.29 0.7,0 1.21,0.24 1.46,0.37 l -0.16,0.59 c -0.26,-0.21 -0.58,-0.33 -0.9,-0.33 -0.37,0 -0.5,0.3 -0.5,0.83 z" />
<path
   style="fill:#000000;stroke-width:0"
   inkscape:connector-curvature="0"
   id="path3393"
   d="m 298.51,709.3 0,0.03 0,0.04 0,0.04 0,0.03 0,0.05 0,0.04 -0.01,0.04 0,0.05 0,0.05 0,0.05 -0.01,0.05 0,0.05 -0.01,0.06 -0.01,0.05 0,0.06 -0.01,0.05 -0.01,0.06 -0.01,0.06 -0.02,0.06 -0.01,0.05 -0.02,0.06 -0.01,0.06 -0.02,0.06 -0.02,0.06 -0.02,0.06 -0.03,0.06 -0.02,0.06 -0.03,0.06 -0.03,0.06 -0.03,0.06 -0.03,0.05 -0.04,0.06 c -0.41,0.61 -1.01,0.73 -1.37,0.73 -1.1,0 -2,-1.06 -2,-2.34 0,-1.31 0.96,-2.35 2.15,-2.35 0.63,0 1.19,0.23 1.58,0.51 l -0.06,0.65 c -0.63,-0.52 -1.28,-0.56 -1.51,-0.56 -0.8,0 -1.43,0.71 -1.46,1.68 l 0.05,0.55 c 0.15,0.75 0.68,1.25 1.25,1.25 0.52,0 1.07,-0.34 1.2,-1.25 h -2.45 l -0.05,-0.55 z" />
<path
   style="fill:#000000;stroke-width:0"
   inkscape:connector-curvature="0"
   id="path3395"
   d="m 300.38,709.25 0,0.09 0.01,0.09 0.01,0.09 0.01,0.09 0.02,0.08 0.02,0.09 0.03,0.08 0.03,0.08 0.03,0.07 0.04,0.08 0.04,0.07 0.04,0.07 0.04,0.07 0.05,0.06 0.06,0.06 0.05,0.06 0.06,0.06 0.06,0.05 0.06,0.05 0.07,0.05 0.07,0.04 0.07,0.04 0.07,0.04 0.08,0.03 0.07,0.03 0.08,0.03 0.09,0.02 0.08,0.02 0.08,0.02 0.09,0.01 0.09,0.01 0.09,0 v 0.67 c -0.88,-0.01 -1.43,-0.5 -1.74,-0.96 v 0.9 h -0.69 v -4.46 h 0.74 z" />
<path
   style="fill:#000000;stroke-width:0"
   inkscape:connector-curvature="0"
   id="path3397"
   d="m 306.19,710 0,0.09 -0.01,0.09 -0.01,0.09 -0.01,0.09 -0.02,0.09 -0.02,0.08 -0.03,0.08 -0.02,0.08 -0.04,0.08 -0.03,0.07 -0.04,0.07 -0.05,0.07 -0.04,0.07 -0.05,0.06 -0.05,0.06 -0.05,0.06 -0.06,0.06 -0.06,0.05 -0.06,0.05 -0.07,0.04 -0.06,0.04 -0.07,0.04 -0.07,0.04 -0.08,0.03 -0.07,0.03 -0.08,0.02 -0.08,0.03 -0.08,0.01 -0.08,0.02 -0.08,0.01 -0.08,0 -0.09,0.01 c -0.65,0 -1.09,-0.16 -1.56,-0.43 l 0.06,-0.66 c 0.52,0.37 1.01,0.5 1.5,0.5 0.47,0 0.87,-0.4 0.87,-1.13 v -0.43 c -1.5,-0.02 -2.76,-0.44 -2.76,-1.31 0,-0.43 0.27,-1.23 1.14,-1.23 0.13,0 1.07,0.02 1.65,0.46 l -0.37,0.33 c -0.29,-0.18 -0.67,-0.19 -0.78,-0.19 -0.47,0 -0.92,0.23 -0.92,0.65 0,0.69 1.61,0.76 2.04,0.78 v -0.61 c 0,-0.19 0,-0.44 -0.34,-0.63 l 0.37,-0.33 v -0.35 h 0.74 z" />
<path
   style="fill:#000000;stroke-width:0"
   inkscape:connector-curvature="0"
   id="path3399"
   d="m 308.75,710.96 h 1.4 v 0.58 h -1.4 v 1.26 h -0.68 v -1.26 h -0.87 v -0.58 h 0.84 v -2.65 c 0,-0.6 0.13,-1.29 0.82,-1.29 0.7,0 1.21,0.24 1.45,0.37 l -0.16,0.59 c -0.25,-0.21 -0.57,-0.33 -0.89,-0.33 -0.37,0 -0.51,0.3 -0.51,0.83 z" />
<polygon
   style="fill:#000000;stroke-width:0"
   id="polygon3401"
   points="311.35,713.88 311.35,713 312.23,713 312.23,713.88 " />
<polygon
   style="fill:#000000;stroke-width:0"
   id="polygon3403"
   points="311.41,711.54 311.41,707.13 312.16,707.13 312.16,711.54 " />
<path
   style="fill:#000000;stroke-width:0"
   inkscape:connector-curvature="0"
   id="path3405"
   d="m 317.65,709.31 0,0.12 -0.01,0.13 -0.01,0.12 -0.02,0.12 -0.02,0.11 -0.03,0.12 -0.04,0.11 -0.04,0.11 -0.04,0.1 -0.05,0.11 -0.05,0.1 -0.06,0.09 -0.06,0.1 -0.07,0.09 -0.07,0.08 -0.07,0.09 -0.08,0.08 -0.08,0.07 -0.08,0.07 -0.08,0.07 -0.09,0.06 -0.09,0.06 -0.1,0.05 -0.09,0.05 -0.1,0.04 -0.1,0.04 -0.11,0.03 -0.1,0.03 -0.11,0.02 -0.1,0.01 -0.11,0.01 -0.11,0.01 -0.01,-0.61 c 0.69,0 1.41,-0.52 1.41,-1.69 0,-1.17 -0.68,-1.76 -1.41,-1.76 h 0 c -0.69,0 -1.41,0.56 -1.41,1.76 0,1.2 0.76,1.69 1.41,1.69 l 0.01,0.61 c -1.23,0 -2.19,-1.1 -2.19,-2.4 0,-1.31 1.01,-2.29 2.18,-2.29 1.19,0 2.18,1 2.18,2.29 z" />
<path
   style="fill:#000000;stroke-width:0"
   inkscape:connector-curvature="0"
   id="path3407"
   d="m 322.3,710.09 0,0.06 0,0.06 -0.01,0.07 0,0.06 -0.01,0.07 0,0.06 -0.01,0.07 -0.01,0.07 -0.02,0.06 -0.01,0.07 -0.02,0.06 -0.02,0.07 -0.03,0.06 -0.02,0.06 -0.03,0.06 -0.04,0.06 -0.04,0.06 -0.04,0.05 -0.04,0.05 -0.05,0.05 -0.05,0.05 -0.06,0.05 -0.06,0.04 -0.07,0.03 -0.04,0.02 -0.03,0.02 -0.04,0.01 -0.04,0.02 -0.04,0.01 -0.04,0.01 -0.04,0.01 -0.05,0.01 -0.04,0.01 -0.05,0.01 -0.05,0.01 -0.05,0 -0.05,0.01 -0.05,0 -0.06,0 -0.06,0.01 c -0.89,0 -1.38,-0.68 -1.44,-0.76 v 0.7 h -0.71 v -4.46 h 0.77 v 2.43 c 0,0.65 0.25,1.48 1.01,1.48 0.95,0 0.96,-0.71 0.96,-1.02 v -2.89 h 0.78 z" />
</g>  <g
     id="g3683"
     transform="matrix(7.1691347,0,0,-7.1691347,-1399.4945,5601.921)"
     xml:space="preserve"
     stroke-miterlimit="10.433"
     font-style="normal"
     font-variant="normal"
     font-weight="normal"
     font-stretch="normal"
     font-size-adjust="none"
     letter-spacing="normal"
     word-spacing="normal"
     ns0:text="\\textsf{Assembly}"
     ns0:preamble=""
     style="font-style:normal;font-variant:normal;font-weight:normal;font-stretch:normal;letter-spacing:normal;word-spacing:normal;text-anchor:start;fill:none;stroke:#000000;stroke-linecap:butt;stroke-linejoin:miter;stroke-miterlimit:10.43299961;stroke-opacity:1;stroke-dasharray:none;stroke-dashoffset:0">
<path
   d="m 227.18,714.02 h -0.87 l -2.6,-6.89 h 0.74 l 0.76,2.02 0.21,0.56 0.65,1.8 c 0.21,0.58 0.52,1.43 0.59,1.79 h 0 c 0.02,-0.14 0.1,-0.38 0.32,-1.04 l 0.91,-2.55 h -2.47 l -0.21,-0.56 h 2.9 l 0.75,-2.02 h 0.92 z"
   id="path3685"
   inkscape:connector-curvature="0"
   style="fill:#000000;stroke-width:0" />
<path
   d="m 233.49,711.39 -0.05,0.02 -0.05,0.02 -0.09,0.04 -0.09,0.03 -0.09,0.04 -0.09,0.03 -0.09,0.02 -0.09,0.03 -0.08,0.02 -0.09,0.01 -0.09,0.02 -0.08,0.01 -0.09,0.01 -0.09,0.01 -0.09,0 -0.09,0 -0.1,0.01 c -0.25,0 -1.65,0 -1.65,-1.31 0,-0.48 0.29,-0.8 0.54,-0.99 0.31,-0.22 0.53,-0.26 1.07,-0.37 0.36,-0.07 0.94,-0.19 0.94,-0.71 0,-0.69 -0.79,-0.69 -0.94,-0.69 -0.8,0 -1.36,0.37 -1.54,0.49 l -0.12,-0.68 c 0.32,-0.16 0.87,-0.43 1.67,-0.43 0.18,0 0.73,0 1.16,0.31 0.31,0.24 0.48,0.64 0.48,1.07 0,0.54 -0.37,0.88 -0.39,0.91 -0.39,0.35 -0.66,0.41 -1.16,0.5 -0.54,0.11 -1,0.21 -1,0.69 0,0.62 0.71,0.62 0.84,0.62 0.32,0 0.85,-0.04 1.42,-0.38 z"
   id="path3687"
   inkscape:connector-curvature="0"
   style="fill:#000000;stroke-width:0" />
<path
   d="m 237.3,711.39 -0.04,0.02 -0.05,0.02 -0.09,0.04 -0.1,0.03 -0.09,0.04 -0.08,0.03 -0.09,0.02 -0.09,0.03 -0.08,0.02 -0.09,0.01 -0.09,0.02 -0.08,0.01 -0.09,0.01 -0.09,0.01 -0.09,0 -0.09,0 -0.1,0.01 c -0.25,0 -1.65,0 -1.65,-1.31 0,-0.48 0.29,-0.8 0.54,-0.99 0.31,-0.22 0.53,-0.26 1.07,-0.37 0.36,-0.07 0.94,-0.19 0.94,-0.71 0,-0.69 -0.79,-0.69 -0.94,-0.69 -0.8,0 -1.36,0.37 -1.54,0.49 l -0.12,-0.68 c 0.32,-0.16 0.87,-0.43 1.67,-0.43 0.18,0 0.73,0 1.16,0.31 0.3,0.24 0.47,0.64 0.47,1.07 0,0.54 -0.36,0.88 -0.38,0.91 -0.39,0.35 -0.66,0.41 -1.16,0.5 -0.55,0.11 -1,0.21 -1,0.69 0,0.62 0.71,0.62 0.84,0.62 0.32,0 0.85,-0.04 1.42,-0.38 z"
   id="path3689"
   inkscape:connector-curvature="0"
   style="fill:#000000;stroke-width:0" />
<path
   d="m 241.83,709.3 0,0.03 0,0.04 0,0.04 0,0.03 0,0.05 0,0.04 -0.01,0.04 0,0.05 0,0.05 0,0.05 -0.01,0.05 0,0.05 -0.01,0.06 -0.01,0.05 0,0.06 -0.01,0.05 -0.01,0.06 -0.01,0.06 -0.02,0.06 -0.01,0.05 -0.02,0.06 -0.01,0.06 -0.02,0.06 -0.02,0.06 -0.02,0.06 -0.03,0.06 -0.02,0.06 -0.03,0.06 -0.03,0.06 -0.03,0.06 -0.03,0.05 -0.04,0.06 c -0.41,0.61 -1.01,0.73 -1.37,0.73 -1.1,0 -2,-1.06 -2,-2.34 0,-1.31 0.95,-2.35 2.15,-2.35 0.63,0 1.19,0.23 1.58,0.51 l -0.06,0.65 c -0.63,-0.52 -1.28,-0.56 -1.51,-0.56 -0.8,0 -1.43,0.71 -1.46,1.68 l 0.05,0.55 c 0.15,0.75 0.68,1.25 1.25,1.25 0.52,0 1.07,-0.34 1.2,-1.25 h -2.45 l -0.05,-0.55 z"
   id="path3691"
   inkscape:connector-curvature="0"
   style="fill:#000000;stroke-width:0" />
<path
   d="m 249.23,710.09 0,0.06 0,0.06 0,0.07 -0.01,0.06 0,0.07 -0.01,0.07 -0.01,0.06 -0.01,0.07 -0.01,0.07 -0.02,0.06 -0.02,0.07 -0.02,0.06 -0.03,0.06 -0.02,0.07 -0.03,0.06 -0.04,0.05 -0.04,0.06 -0.04,0.06 -0.04,0.05 -0.05,0.05 -0.05,0.04 -0.06,0.05 -0.06,0.04 -0.07,0.03 -0.04,0.02 -0.03,0.02 -0.04,0.01 -0.04,0.02 -0.04,0.01 -0.04,0.01 -0.04,0.02 -0.05,0.01 -0.04,0 -0.05,0.01 -0.05,0.01 -0.05,0 -0.05,0.01 -0.05,0 -0.06,0 -0.05,0.01 c -0.6,0 -1.11,-0.28 -1.48,-0.82 -0.26,0.76 -0.96,0.82 -1.28,0.82 -0.71,0 -1.18,-0.41 -1.45,-0.77 v 0.71 h -0.71 v -4.46 h 0.77 v 2.43 c 0,0.67 0.27,1.48 1.01,1.48 0.92,0 0.97,-0.65 0.97,-1.02 v -2.89 h 0.78 v 2.43 c 0,0.67 0.26,1.48 1,1.48 0.93,0 0.98,-0.65 0.98,-1.02 v -2.89 h 0.77 z"
   id="path3693"
   inkscape:connector-curvature="0"
   style="fill:#000000;stroke-width:0" />
<path
   d="m 251.62,714.02 h -0.75 v -6.89 h 0.78 v 0.45 c 0.23,-0.22 0.66,-0.56 1.33,-0.56 0.99,0 1.85,0.99 1.85,2.32 0,1.23 -0.68,2.31 -1.61,2.31 -0.39,0 -1.01,-0.1 -1.6,-0.59 l 0.03,-0.61 c 0.15,0.24 0.51,0.59 1.06,0.59 0.59,0 1.34,-0.43 1.34,-1.7 0,-1.29 -0.83,-1.72 -1.44,-1.72 -0.39,0 -0.72,0.18 -0.96,0.64 v 2.19 l -0.03,0.61 z"
   id="path3695"
   inkscape:connector-curvature="0"
   style="fill:#000000;stroke-width:0" />
<polygon
   points="256.75,714.02 256.01,714.02 256.01,707.13 256.75,707.13 "
   id="polygon3697"
   style="fill:#000000;stroke-width:0" />
<path
   d="m 262.02,711.54 h -0.75 c -1.29,-3.16 -1.31,-3.62 -1.32,-3.85 h -0.01 c -0.06,0.67 -0.86,2.51 -0.9,2.6 l -0.53,1.25 h -0.79 l 1.93,-4.41 c -0.12,-0.31 -0.32,-0.81 -0.36,-0.9 -0.26,-0.57 -0.43,-0.57 -0.56,-0.57 -0.16,0 -0.48,0.03 -0.78,0.15 l 0.06,-0.64 c 0.22,-0.05 0.5,-0.08 0.72,-0.08 0.34,0 0.71,0.12 1.12,1.13 z"
   id="path3699"
   inkscape:connector-curvature="0"
   style="fill:#000000;stroke-width:0" />
</g>  <g
     style="font-style:normal;font-variant:normal;font-weight:normal;font-stretch:normal;letter-spacing:normal;word-spacing:normal;text-anchor:start;fill:none;stroke:#000000;stroke-linecap:butt;stroke-linejoin:miter;stroke-miterlimit:10.43299961;stroke-opacity:1;stroke-dasharray:none;stroke-dashoffset:0"
     ns0:preamble=""
     ns0:text="\\textsf{Constitutive models}"
     word-spacing="normal"
     letter-spacing="normal"
     font-size-adjust="none"
     font-stretch="normal"
     font-weight="normal"
     font-variant="normal"
     font-style="normal"
     stroke-miterlimit="10.433"
     xml:space="preserve"
     transform="matrix(7.1691347,0,0,-7.1691347,-922.53274,5601.921)"
     id="g3861">
<path
   id="path3863"
   d="m 229.22,708.26 -0.05,-0.04 -0.06,-0.03 -0.05,-0.04 -0.05,-0.03 -0.1,-0.06 -0.1,-0.06 -0.09,-0.05 -0.1,-0.05 -0.1,-0.05 -0.05,-0.02 -0.05,-0.02 -0.06,-0.01 -0.05,-0.02 -0.06,-0.02 -0.06,-0.01 -0.06,-0.02 -0.06,-0.01 -0.06,-0.01 -0.07,-0.01 -0.07,-0.01 -0.07,-0.01 -0.07,0 -0.08,-0.01 -0.08,0 -0.08,-0.01 -0.09,0 -0.09,0 c -1.43,0 -2.33,1.49 -2.33,2.92 0,1.35 0.83,2.91 2.35,2.91 0.71,0 1.16,-0.17 1.7,-0.51 l 0.14,0.81 c -0.43,0.21 -1.19,0.34 -1.83,0.34 -1.84,0 -3.25,-1.55 -3.25,-3.64 0,-1.57 1.18,-3.47 3.25,-3.47 0.92,0 1.29,0.15 1.94,0.55 z"
   inkscape:connector-curvature="0"
   style="fill:#000000;stroke-width:0" />
<path
   id="path3865"
   d="m 234.46,709.31 0,0.12 -0.01,0.13 -0.01,0.12 -0.02,0.12 -0.03,0.11 -0.03,0.12 -0.03,0.11 -0.04,0.11 -0.05,0.1 -0.04,0.11 -0.06,0.1 -0.05,0.09 -0.07,0.1 -0.06,0.09 -0.07,0.08 -0.07,0.09 -0.08,0.08 -0.08,0.07 -0.08,0.07 -0.09,0.07 -0.08,0.06 -0.1,0.06 -0.09,0.05 -0.1,0.05 -0.09,0.04 -0.11,0.04 -0.1,0.03 -0.1,0.03 -0.11,0.02 -0.11,0.01 -0.11,0.01 -0.11,0.01 -0.01,-0.61 c 0.7,0 1.42,-0.52 1.42,-1.69 0,-1.17 -0.68,-1.76 -1.42,-1.76 h 0 c -0.68,0 -1.4,0.56 -1.4,1.76 0,1.2 0.76,1.69 1.4,1.69 l 0.01,0.61 c -1.22,0 -2.18,-1.1 -2.18,-2.4 0,-1.31 1.01,-2.29 2.17,-2.29 1.2,0 2.19,1 2.19,2.29 z"
   inkscape:connector-curvature="0"
   style="fill:#000000;stroke-width:0" />
<path
   id="path3867"
   d="m 239.11,710.09 0,0.06 -0.01,0.06 0,0.07 0,0.06 -0.01,0.07 -0.01,0.06 0,0.07 -0.02,0.07 -0.01,0.06 -0.02,0.07 -0.01,0.06 -0.03,0.07 -0.02,0.06 -0.03,0.06 -0.03,0.06 -0.03,0.06 -0.04,0.06 -0.04,0.05 -0.04,0.05 -0.05,0.05 -0.06,0.05 -0.05,0.05 -0.07,0.04 -0.06,0.03 -0.04,0.02 -0.03,0.02 -0.04,0.01 -0.04,0.02 -0.04,0.01 -0.04,0.01 -0.05,0.01 -0.04,0.01 -0.05,0.01 -0.04,0.01 -0.05,0.01 -0.05,0 -0.05,0.01 -0.06,0 -0.05,0 -0.06,0.01 c -0.89,0 -1.38,-0.68 -1.44,-0.76 v 0.7 h -0.72 v -4.46 h 0.78 v 2.43 c 0,0.65 0.25,1.48 1.01,1.48 0.95,0 0.96,-0.71 0.96,-1.02 v -2.89 h 0.78 z"
   inkscape:connector-curvature="0"
   style="fill:#000000;stroke-width:0" />
<path
   id="path3869"
   d="m 243.34,711.39 -0.05,0.02 -0.05,0.02 -0.09,0.04 -0.09,0.03 -0.09,0.04 -0.09,0.03 -0.09,0.02 -0.09,0.03 -0.08,0.02 -0.09,0.01 -0.08,0.02 -0.09,0.01 -0.09,0.01 -0.09,0.01 -0.09,0 -0.09,0 -0.09,0.01 c -0.25,0 -1.66,0 -1.66,-1.31 0,-0.48 0.29,-0.8 0.54,-0.99 0.31,-0.22 0.53,-0.26 1.08,-0.37 0.35,-0.07 0.93,-0.19 0.93,-0.71 0,-0.69 -0.79,-0.69 -0.93,-0.69 -0.81,0 -1.37,0.37 -1.55,0.49 l -0.11,-0.68 c 0.31,-0.16 0.86,-0.43 1.67,-0.43 0.17,0 0.72,0 1.15,0.31 0.31,0.24 0.48,0.64 0.48,1.07 0,0.54 -0.37,0.88 -0.39,0.91 -0.39,0.35 -0.66,0.41 -1.15,0.5 -0.55,0.11 -1.01,0.21 -1.01,0.69 0,0.62 0.72,0.62 0.85,0.62 0.32,0 0.84,-0.04 1.41,-0.38 z"
   inkscape:connector-curvature="0"
   style="fill:#000000;stroke-width:0" />
<path
   id="path3871"
   d="m 245.49,710.96 h 1.4 v 0.58 h -1.4 v 1.26 h -0.69 v -1.26 h -0.87 v -0.58 h 0.84 v -2.65 c 0,-0.6 0.14,-1.29 0.83,-1.29 0.69,0 1.2,0.24 1.45,0.37 l -0.16,0.59 c -0.26,-0.21 -0.58,-0.33 -0.9,-0.33 -0.36,0 -0.5,0.3 -0.5,0.83 z"
   inkscape:connector-curvature="0"
   style="fill:#000000;stroke-width:0" />
<polygon
   id="polygon3873"
   points="248.08,713.88 248.08,713 248.96,713 248.96,713.88 "
   style="fill:#000000;stroke-width:0" />
<polygon
   id="polygon3875"
   points="248.15,711.54 248.15,707.13 248.89,707.13 248.89,711.54 "
   style="fill:#000000;stroke-width:0" />
<path
   id="path3877"
   d="m 251.46,710.96 h 1.41 v 0.58 h -1.41 v 1.26 h -0.68 v -1.26 h -0.87 v -0.58 h 0.84 v -2.65 c 0,-0.6 0.14,-1.29 0.82,-1.29 0.7,0 1.21,0.24 1.45,0.37 l -0.15,0.59 c -0.26,-0.21 -0.58,-0.33 -0.9,-0.33 -0.37,0 -0.51,0.3 -0.51,0.83 z"
   inkscape:connector-curvature="0"
   style="fill:#000000;stroke-width:0" />
<path
   id="path3879"
   d="m 257.65,711.54 h -0.78 v -2.88 c 0,-0.75 -0.56,-1.1 -1.19,-1.1 -0.71,0 -0.78,0.26 -0.78,0.69 v 3.29 h -0.77 v -3.33 c 0,-0.72 0.22,-1.19 1.05,-1.19 0.53,0 1.23,0.15 1.72,0.58 v -0.47 h 0.75 z"
   inkscape:connector-curvature="0"
   style="fill:#000000;stroke-width:0" />
<path
   id="path3881"
   d="m 260.21,710.96 h 1.4 v 0.58 h -1.4 v 1.26 h -0.69 v -1.26 h -0.86 v -0.58 h 0.83 v -2.65 c 0,-0.6 0.14,-1.29 0.83,-1.29 0.69,0 1.2,0.24 1.45,0.37 l -0.16,0.59 c -0.26,-0.21 -0.58,-0.33 -0.89,-0.33 -0.37,0 -0.51,0.3 -0.51,0.83 z"
   inkscape:connector-curvature="0"
   style="fill:#000000;stroke-width:0" />
<polygon
   id="polygon3883"
   points="262.8,713.88 262.8,713 263.69,713 263.69,713.88 "
   style="fill:#000000;stroke-width:0" />
<polygon
   id="polygon3885"
   points="262.87,711.54 262.87,707.13 263.62,707.13 263.62,711.54 "
   style="fill:#000000;stroke-width:0" />
<path
   id="path3887"
   d="m 268.88,711.54 h -0.74 l -0.79,-2.07 c -0.21,-0.55 -0.52,-1.35 -0.6,-1.82 h -0.01 c -0.06,0.36 -0.32,1.04 -0.41,1.31 l -0.97,2.58 h -0.78 l 1.72,-4.41 h 0.87 z"
   inkscape:connector-curvature="0"
   style="fill:#000000;stroke-width:0" />
<path
   id="path3889"
   d="m 273.16,709.3 0,0.03 0,0.04 0,0.04 0,0.03 0,0.05 -0.01,0.04 0,0.04 0,0.05 0,0.05 -0.01,0.05 0,0.05 -0.01,0.05 0,0.06 -0.01,0.05 -0.01,0.06 -0.01,0.05 -0.01,0.06 -0.01,0.06 -0.01,0.06 -0.01,0.05 -0.02,0.06 -0.02,0.06 -0.01,0.06 -0.02,0.06 -0.03,0.06 -0.02,0.06 -0.02,0.06 -0.03,0.06 -0.03,0.06 -0.03,0.06 -0.03,0.05 -0.04,0.06 c -0.41,0.61 -1.02,0.73 -1.37,0.73 -1.11,0 -2,-1.06 -2,-2.34 0,-1.31 0.95,-2.35 2.15,-2.35 0.62,0 1.19,0.23 1.58,0.51 l -0.06,0.65 c -0.63,-0.52 -1.29,-0.56 -1.51,-0.56 -0.8,0 -1.44,0.71 -1.47,1.68 l 0.05,0.55 c 0.16,0.75 0.69,1.25 1.26,1.25 0.51,0 1.07,-0.34 1.2,-1.25 h -2.46 l -0.05,-0.55 z"
   inkscape:connector-curvature="0"
   style="fill:#000000;stroke-width:0" />
<path
   id="path3891"
   d="m 283.88,710.09 0,0.06 -0.01,0.06 0,0.07 0,0.06 -0.01,0.07 -0.01,0.07 -0.01,0.06 -0.01,0.07 -0.01,0.07 -0.02,0.06 -0.02,0.07 -0.02,0.06 -0.02,0.06 -0.03,0.07 -0.03,0.06 -0.03,0.05 -0.04,0.06 -0.04,0.06 -0.05,0.05 -0.05,0.05 -0.05,0.04 -0.06,0.05 -0.06,0.04 -0.07,0.03 -0.03,0.02 -0.04,0.02 -0.03,0.01 -0.04,0.02 -0.04,0.01 -0.04,0.01 -0.05,0.02 -0.04,0.01 -0.05,0 -0.04,0.01 -0.05,0.01 -0.05,0 -0.05,0.01 -0.06,0 -0.05,0 -0.06,0.01 c -0.59,0 -1.11,-0.28 -1.48,-0.82 -0.26,0.76 -0.95,0.82 -1.27,0.82 -0.72,0 -1.19,-0.41 -1.45,-0.77 v 0.71 h -0.72 v -4.46 h 0.78 v 2.43 c 0,0.67 0.26,1.48 1,1.48 0.93,0 0.98,-0.65 0.98,-1.02 v -2.89 h 0.77 v 2.43 c 0,0.67 0.27,1.48 1.01,1.48 0.92,0 0.97,-0.65 0.97,-1.02 v -2.89 h 0.78 z"
   inkscape:connector-curvature="0"
   style="fill:#000000;stroke-width:0" />
<path
   id="path3893"
   d="m 289.36,709.31 0,0.12 -0.01,0.13 -0.01,0.12 -0.02,0.12 -0.03,0.11 -0.03,0.12 -0.03,0.11 -0.04,0.11 -0.04,0.1 -0.05,0.11 -0.06,0.1 -0.05,0.09 -0.06,0.1 -0.07,0.09 -0.07,0.08 -0.07,0.09 -0.08,0.08 -0.08,0.07 -0.08,0.07 -0.09,0.07 -0.08,0.06 -0.09,0.06 -0.1,0.05 -0.1,0.05 -0.09,0.04 -0.1,0.04 -0.11,0.03 -0.1,0.03 -0.11,0.02 -0.11,0.01 -0.1,0.01 -0.12,0.01 -0.01,-0.61 c 0.7,0 1.42,-0.52 1.42,-1.69 0,-1.17 -0.68,-1.76 -1.42,-1.76 h 0 c -0.68,0 -1.4,0.56 -1.4,1.76 0,1.2 0.76,1.69 1.4,1.69 l 0.01,0.61 c -1.22,0 -2.18,-1.1 -2.18,-2.4 0,-1.31 1.01,-2.29 2.17,-2.29 1.2,0 2.19,1 2.19,2.29 z"
   inkscape:connector-curvature="0"
   style="fill:#000000;stroke-width:0" />
<path
   id="path3895"
   d="m 294.28,714.02 h -0.75 v -2.92 c -0.53,0.44 -1.08,0.55 -1.45,0.55 -0.99,0 -1.76,-1.04 -1.76,-2.32 0,-1.3 0.76,-2.31 1.71,-2.31 0.33,0 0.91,0.08 1.47,0.62 l -0.33,0.26 c -0.23,-0.2 -0.48,-0.28 -0.74,-0.28 -0.61,0 -1.34,0.47 -1.34,1.7 0,1.31 0.86,1.72 1.45,1.72 0.44,0 0.74,-0.23 0.96,-0.55 v -1.98 c 0,-0.14 -0.01,-0.32 -0.33,-0.61 l 0.33,-0.26 v -0.51 h 0.78 z"
   inkscape:connector-curvature="0"
   style="fill:#000000;stroke-width:0" />
<path
   id="path3897"
   d="m 299.23,709.3 -0.01,0.03 0,0.04 0,0.04 0,0.03 0,0.05 0,0.04 0,0.04 0,0.05 -0.01,0.05 0,0.05 0,0.05 -0.01,0.05 0,0.06 -0.01,0.05 -0.01,0.06 -0.01,0.05 -0.01,0.06 -0.01,0.06 -0.01,0.06 -0.02,0.05 -0.01,0.06 -0.02,0.06 -0.02,0.06 -0.02,0.06 -0.02,0.06 -0.02,0.06 -0.03,0.06 -0.02,0.06 -0.03,0.06 -0.03,0.06 -0.04,0.05 -0.03,0.06 c -0.41,0.61 -1.02,0.73 -1.38,0.73 -1.1,0 -2,-1.06 -2,-2.34 0,-1.31 0.96,-2.35 2.15,-2.35 0.63,0 1.2,0.23 1.58,0.51 l -0.05,0.65 c -0.63,-0.52 -1.29,-0.56 -1.52,-0.56 -0.79,0 -1.43,0.71 -1.46,1.68 l 0.05,0.55 c 0.16,0.75 0.69,1.25 1.25,1.25 0.52,0 1.08,-0.34 1.21,-1.25 h -2.46 l -0.05,-0.55 z"
   inkscape:connector-curvature="0"
   style="fill:#000000;stroke-width:0" />
<polygon
   id="polygon3899"
   points="300.34,714.02 300.34,707.13 301.08,707.13 301.08,714.02 "
   style="fill:#000000;stroke-width:0" />
<path
   id="path3901"
   d="m 305.33,711.39 -0.05,0.02 -0.05,0.02 -0.09,0.04 -0.1,0.03 -0.09,0.04 -0.08,0.03 -0.09,0.02 -0.09,0.03 -0.08,0.02 -0.09,0.01 -0.09,0.02 -0.08,0.01 -0.09,0.01 -0.09,0.01 -0.09,0 -0.09,0 -0.1,0.01 c -0.25,0 -1.65,0 -1.65,-1.31 0,-0.48 0.29,-0.8 0.54,-0.99 0.31,-0.22 0.53,-0.26 1.07,-0.37 0.36,-0.07 0.94,-0.19 0.94,-0.71 0,-0.69 -0.79,-0.69 -0.94,-0.69 -0.8,0 -1.36,0.37 -1.54,0.49 l -0.12,-0.68 c 0.32,-0.16 0.87,-0.43 1.67,-0.43 0.18,0 0.73,0 1.16,0.31 0.31,0.24 0.47,0.64 0.47,1.07 0,0.54 -0.36,0.88 -0.38,0.91 -0.39,0.35 -0.66,0.41 -1.16,0.5 -0.54,0.11 -1,0.21 -1,0.69 0,0.62 0.71,0.62 0.84,0.62 0.32,0 0.85,-0.04 1.42,-0.38 z"
   inkscape:connector-curvature="0"
   style="fill:#000000;stroke-width:0" />
</g>  <g
     id="g4105"
     transform="matrix(7.1691347,0,0,-7.1691347,-1399.4945,5751.921)"
     xml:space="preserve"
     stroke-miterlimit="10.433"
     font-style="normal"
     font-variant="normal"
     font-weight="normal"
     font-stretch="normal"
     font-size-adjust="none"
     letter-spacing="normal"
     word-spacing="normal"
     ns0:text="\\textsf{Linear solve}"
     ns0:preamble=""
     style="font-style:normal;font-variant:normal;font-weight:normal;font-stretch:normal;letter-spacing:normal;word-spacing:normal;text-anchor:start;fill:none;stroke:#000000;stroke-linecap:butt;stroke-linejoin:miter;stroke-miterlimit:10.43299961;stroke-opacity:1;stroke-dasharray:none;stroke-dashoffset:0">
<path
   d="m 225.25,714.02 h -0.88 v -6.89 h 4.03 v 0.65 c -0.89,-0.01 -1.77,-0.02 -2.66,-0.02 h -0.49 z"
   id="path4107"
   inkscape:connector-curvature="0"
   style="fill:#000000;stroke-width:0" />
<polygon
   points="230.45,713.88 229.57,713.88 229.57,713 230.45,713 "
   id="polygon4109"
   style="fill:#000000;stroke-width:0" />
<polygon
   points="230.38,711.54 229.63,711.54 229.63,707.13 230.38,707.13 "
   id="polygon4111"
   style="fill:#000000;stroke-width:0" />
<path
   d="m 235.54,710.09 0,0.06 0,0.06 -0.01,0.07 0,0.06 -0.01,0.07 0,0.06 -0.01,0.07 -0.02,0.07 -0.01,0.06 -0.01,0.07 -0.02,0.06 -0.02,0.07 -0.03,0.06 -0.03,0.06 -0.03,0.06 -0.03,0.06 -0.04,0.06 -0.04,0.05 -0.04,0.05 -0.05,0.05 -0.05,0.05 -0.06,0.05 -0.06,0.04 -0.07,0.03 -0.04,0.02 -0.03,0.02 -0.04,0.01 -0.04,0.02 -0.04,0.01 -0.04,0.01 -0.04,0.01 -0.05,0.01 -0.04,0.01 -0.05,0.01 -0.05,0.01 -0.05,0 -0.05,0.01 -0.06,0 -0.05,0 -0.06,0.01 c -0.89,0 -1.38,-0.68 -1.44,-0.76 v 0.7 h -0.72 v -4.46 h 0.78 v 2.43 c 0,0.65 0.25,1.48 1.01,1.48 0.95,0 0.96,-0.71 0.96,-1.02 v -2.89 h 0.78 z"
   id="path4113"
   inkscape:connector-curvature="0"
   style="fill:#000000;stroke-width:0" />
<path
   d="m 240.48,709.3 -0.01,0.03 0,0.04 0,0.04 0,0.03 0,0.05 0,0.04 0,0.04 0,0.05 -0.01,0.05 0,0.05 0,0.05 -0.01,0.05 0,0.06 -0.01,0.05 -0.01,0.06 -0.01,0.05 -0.01,0.06 -0.01,0.06 -0.01,0.06 -0.02,0.05 -0.01,0.06 -0.02,0.06 -0.02,0.06 -0.02,0.06 -0.02,0.06 -0.02,0.06 -0.03,0.06 -0.02,0.06 -0.03,0.06 -0.03,0.06 -0.04,0.05 -0.03,0.06 c -0.41,0.61 -1.02,0.73 -1.38,0.73 -1.1,0 -1.99,-1.06 -1.99,-2.34 0,-1.31 0.95,-2.35 2.14,-2.35 0.63,0 1.2,0.23 1.59,0.51 l -0.06,0.65 c -0.63,-0.52 -1.29,-0.56 -1.52,-0.56 -0.79,0 -1.43,0.71 -1.46,1.68 l 0.05,0.55 c 0.16,0.75 0.69,1.25 1.25,1.25 0.52,0 1.08,-0.34 1.21,-1.25 h -2.46 l -0.05,-0.55 z"
   id="path4115"
   inkscape:connector-curvature="0"
   style="fill:#000000;stroke-width:0" />
<path
   d="m 244.75,710 0,0.09 0,0.09 -0.01,0.09 -0.02,0.09 -0.02,0.09 -0.02,0.08 -0.02,0.08 -0.03,0.08 -0.04,0.08 -0.03,0.07 -0.04,0.07 -0.04,0.07 -0.05,0.07 -0.05,0.06 -0.05,0.06 -0.05,0.06 -0.06,0.06 -0.06,0.05 -0.06,0.05 -0.07,0.04 -0.06,0.04 -0.07,0.04 -0.07,0.04 -0.08,0.03 -0.07,0.03 -0.08,0.02 -0.07,0.03 -0.08,0.01 -0.09,0.02 -0.08,0.01 -0.08,0 -0.09,0.01 c -0.65,0 -1.09,-0.16 -1.56,-0.43 l 0.06,-0.66 c 0.52,0.37 1.01,0.5 1.5,0.5 0.47,0 0.87,-0.4 0.87,-1.13 v -0.43 c -1.49,-0.02 -2.76,-0.44 -2.76,-1.31 0,-0.43 0.27,-1.23 1.14,-1.23 0.13,0 1.07,0.02 1.65,0.46 l -0.37,0.33 c -0.29,-0.18 -0.67,-0.19 -0.78,-0.19 -0.47,0 -0.92,0.23 -0.92,0.65 0,0.69 1.61,0.76 2.04,0.78 v -0.61 c 0,-0.19 0,-0.44 -0.34,-0.63 l 0.37,-0.33 v -0.35 h 0.74 z"
   id="path4117"
   inkscape:connector-curvature="0"
   style="fill:#000000;stroke-width:0" />
<path
   d="m 246.85,709.25 0.01,0.09 0,0.09 0.01,0.09 0.02,0.09 0.02,0.08 0.02,0.09 0.02,0.08 0.03,0.08 0.03,0.07 0.04,0.08 0.04,0.07 0.04,0.07 0.05,0.07 0.05,0.06 0.05,0.06 0.05,0.06 0.06,0.06 0.06,0.05 0.07,0.05 0.06,0.05 0.07,0.04 0.07,0.04 0.07,0.04 0.08,0.03 0.08,0.03 0.08,0.03 0.08,0.02 0.08,0.02 0.09,0.02 0.09,0.01 0.09,0.01 0.09,0 v 0.67 c -0.89,-0.01 -1.44,-0.5 -1.75,-0.96 v 0.9 h -0.69 v -4.46 h 0.74 z"
   id="path4119"
   inkscape:connector-curvature="0"
   style="fill:#000000;stroke-width:0" />
<path
   d="m 255.43,711.39 -0.05,0.02 -0.05,0.02 -0.09,0.04 -0.09,0.03 -0.09,0.04 -0.09,0.03 -0.09,0.02 -0.09,0.03 -0.08,0.02 -0.09,0.01 -0.09,0.02 -0.08,0.01 -0.09,0.01 -0.09,0.01 -0.09,0 -0.09,0 -0.1,0.01 c -0.24,0 -1.65,0 -1.65,-1.31 0,-0.48 0.29,-0.8 0.54,-0.99 0.31,-0.22 0.53,-0.26 1.08,-0.37 0.35,-0.07 0.93,-0.19 0.93,-0.71 0,-0.69 -0.79,-0.69 -0.93,-0.69 -0.81,0 -1.37,0.37 -1.55,0.49 l -0.12,-0.68 c 0.32,-0.16 0.87,-0.43 1.67,-0.43 0.18,0 0.73,0 1.16,0.31 0.31,0.24 0.48,0.64 0.48,1.07 0,0.54 -0.37,0.88 -0.39,0.91 -0.39,0.35 -0.66,0.41 -1.16,0.5 -0.54,0.11 -1,0.21 -1,0.69 0,0.62 0.72,0.62 0.85,0.62 0.31,0 0.84,-0.04 1.41,-0.38 z"
   id="path4121"
   inkscape:connector-curvature="0"
   style="fill:#000000;stroke-width:0" />
<path
   d="m 260.51,709.31 0,0.12 -0.01,0.13 -0.02,0.12 -0.02,0.12 -0.02,0.11 -0.03,0.12 -0.04,0.11 -0.03,0.11 -0.05,0.1 -0.05,0.11 -0.05,0.1 -0.06,0.09 -0.06,0.1 -0.06,0.09 -0.07,0.08 -0.08,0.09 -0.07,0.08 -0.08,0.07 -0.08,0.07 -0.09,0.07 -0.09,0.06 -0.09,0.06 -0.09,0.05 -0.1,0.05 -0.1,0.04 -0.1,0.04 -0.1,0.03 -0.11,0.03 -0.1,0.02 -0.11,0.01 -0.11,0.01 -0.11,0.01 -0.01,-0.61 c 0.7,0 1.41,-0.52 1.41,-1.69 0,-1.17 -0.67,-1.76 -1.41,-1.76 h 0 c -0.69,0 -1.4,0.56 -1.4,1.76 0,1.2 0.75,1.69 1.4,1.69 l 0.01,0.61 c -1.22,0 -2.19,-1.1 -2.19,-2.4 0,-1.31 1.02,-2.29 2.18,-2.29 1.19,0 2.19,1 2.19,2.29 z"
   id="path4123"
   inkscape:connector-curvature="0"
   style="fill:#000000;stroke-width:0" />
<polygon
   points="262.38,714.02 261.63,714.02 261.63,707.13 262.38,707.13 "
   id="polygon4125"
   style="fill:#000000;stroke-width:0" />
<path
   d="m 267.63,711.54 h -0.74 l -0.79,-2.07 c -0.21,-0.55 -0.52,-1.35 -0.6,-1.82 h -0.01 c -0.06,0.36 -0.32,1.04 -0.41,1.31 l -0.97,2.58 h -0.78 l 1.72,-4.41 h 0.87 z"
   id="path4127"
   inkscape:connector-curvature="0"
   style="fill:#000000;stroke-width:0" />
<path
   d="m 271.92,709.3 0,0.03 0,0.04 0,0.04 0,0.03 -0.01,0.05 0,0.04 0,0.04 0,0.05 0,0.05 -0.01,0.05 0,0.05 -0.01,0.05 0,0.06 -0.01,0.05 -0.01,0.06 -0.01,0.05 -0.01,0.06 -0.01,0.06 -0.01,0.06 -0.01,0.05 -0.02,0.06 -0.02,0.06 -0.02,0.06 -0.02,0.06 -0.02,0.06 -0.02,0.06 -0.03,0.06 -0.02,0.06 -0.03,0.06 -0.03,0.06 -0.04,0.05 -0.03,0.06 c -0.41,0.61 -1.01,0.73 -1.37,0.73 -1.11,0 -2,-1.06 -2,-2.34 0,-1.31 0.95,-2.35 2.15,-2.35 0.62,0 1.19,0.23 1.58,0.51 l -0.06,0.65 c -0.63,-0.52 -1.29,-0.56 -1.51,-0.56 -0.8,0 -1.44,0.71 -1.47,1.68 l 0.05,0.55 c 0.16,0.75 0.69,1.25 1.26,1.25 0.51,0 1.07,-0.34 1.2,-1.25 h -2.46 l -0.05,-0.55 z"
   id="path4129"
   inkscape:connector-curvature="0"
   style="fill:#000000;stroke-width:0" />
</g>  <g
     style="font-style:normal;font-variant:normal;font-weight:normal;font-stretch:normal;letter-spacing:normal;word-spacing:normal;text-anchor:start;fill:none;stroke:#000000;stroke-linecap:butt;stroke-linejoin:miter;stroke-miterlimit:10.43299961;stroke-opacity:1;stroke-dasharray:none;stroke-dashoffset:0"
     ns0:preamble=""
     ns0:text="\\textsf{Convergence check}"
     word-spacing="normal"
     letter-spacing="normal"
     font-size-adjust="none"
     font-stretch="normal"
     font-weight="normal"
     font-variant="normal"
     font-style="normal"
     stroke-miterlimit="10.433"
     xml:space="preserve"
     transform="matrix(7.1691347,0,0,-7.1691347,-1399.4945,5907.921)"
     id="g4371">
<path
   id="path4373"
   d="m 229.22,708.26 -0.05,-0.04 -0.06,-0.03 -0.05,-0.04 -0.05,-0.03 -0.1,-0.06 -0.1,-0.06 -0.09,-0.05 -0.1,-0.05 -0.1,-0.05 -0.05,-0.02 -0.05,-0.02 -0.06,-0.01 -0.05,-0.02 -0.06,-0.02 -0.06,-0.01 -0.06,-0.02 -0.06,-0.01 -0.06,-0.01 -0.07,-0.01 -0.07,-0.01 -0.07,-0.01 -0.07,0 -0.08,-0.01 -0.08,0 -0.08,-0.01 -0.09,0 -0.09,0 c -1.43,0 -2.33,1.49 -2.33,2.92 0,1.35 0.83,2.91 2.35,2.91 0.71,0 1.16,-0.17 1.7,-0.51 l 0.14,0.81 c -0.43,0.21 -1.19,0.34 -1.83,0.34 -1.84,0 -3.25,-1.55 -3.25,-3.64 0,-1.57 1.18,-3.47 3.25,-3.47 0.92,0 1.29,0.15 1.94,0.55 z"
   inkscape:connector-curvature="0"
   style="fill:#000000;stroke-width:0" />
<path
   id="path4375"
   d="m 234.46,709.31 0,0.12 -0.01,0.13 -0.01,0.12 -0.02,0.12 -0.03,0.11 -0.03,0.12 -0.03,0.11 -0.04,0.11 -0.05,0.1 -0.04,0.11 -0.06,0.1 -0.05,0.09 -0.07,0.1 -0.06,0.09 -0.07,0.08 -0.07,0.09 -0.08,0.08 -0.08,0.07 -0.08,0.07 -0.09,0.07 -0.08,0.06 -0.1,0.06 -0.09,0.05 -0.1,0.05 -0.09,0.04 -0.11,0.04 -0.1,0.03 -0.1,0.03 -0.11,0.02 -0.11,0.01 -0.11,0.01 -0.11,0.01 -0.01,-0.61 c 0.7,0 1.42,-0.52 1.42,-1.69 0,-1.17 -0.68,-1.76 -1.42,-1.76 h 0 c -0.68,0 -1.4,0.56 -1.4,1.76 0,1.2 0.76,1.69 1.4,1.69 l 0.01,0.61 c -1.22,0 -2.18,-1.1 -2.18,-2.4 0,-1.31 1.01,-2.29 2.17,-2.29 1.2,0 2.19,1 2.19,2.29 z"
   inkscape:connector-curvature="0"
   style="fill:#000000;stroke-width:0" />
<path
   id="path4377"
   d="m 239.11,710.09 0,0.06 -0.01,0.06 0,0.07 0,0.06 -0.01,0.07 -0.01,0.06 0,0.07 -0.02,0.07 -0.01,0.06 -0.02,0.07 -0.01,0.06 -0.03,0.07 -0.02,0.06 -0.03,0.06 -0.03,0.06 -0.03,0.06 -0.04,0.06 -0.04,0.05 -0.04,0.05 -0.05,0.05 -0.06,0.05 -0.05,0.05 -0.07,0.04 -0.06,0.03 -0.04,0.02 -0.03,0.02 -0.04,0.01 -0.04,0.02 -0.04,0.01 -0.04,0.01 -0.05,0.01 -0.04,0.01 -0.05,0.01 -0.04,0.01 -0.05,0.01 -0.05,0 -0.05,0.01 -0.06,0 -0.05,0 -0.06,0.01 c -0.89,0 -1.38,-0.68 -1.44,-0.76 v 0.7 h -0.72 v -4.46 h 0.78 v 2.43 c 0,0.65 0.25,1.48 1.01,1.48 0.95,0 0.96,-0.71 0.96,-1.02 v -2.89 h 0.78 z"
   inkscape:connector-curvature="0"
   style="fill:#000000;stroke-width:0" />
<path
   id="path4379"
   d="m 244.36,711.54 h -0.74 l -0.79,-2.07 c -0.21,-0.55 -0.52,-1.35 -0.6,-1.82 h -0.01 c -0.06,0.36 -0.31,1.04 -0.41,1.31 l -0.97,2.58 h -0.77 l 1.71,-4.41 h 0.87 z"
   inkscape:connector-curvature="0"
   style="fill:#000000;stroke-width:0" />
<path
   id="path4381"
   d="m 248.64,709.3 0,0.03 0,0.04 0,0.04 0,0.03 0,0.05 0,0.04 -0.01,0.04 0,0.05 0,0.05 -0.01,0.05 0,0.05 0,0.05 -0.01,0.06 -0.01,0.05 -0.01,0.06 0,0.05 -0.01,0.06 -0.02,0.06 -0.01,0.06 -0.01,0.05 -0.02,0.06 -0.01,0.06 -0.02,0.06 -0.02,0.06 -0.02,0.06 -0.03,0.06 -0.02,0.06 -0.03,0.06 -0.03,0.06 -0.03,0.06 -0.03,0.05 -0.04,0.06 c -0.41,0.61 -1.01,0.73 -1.37,0.73 -1.11,0 -2,-1.06 -2,-2.34 0,-1.31 0.95,-2.35 2.15,-2.35 0.62,0 1.19,0.23 1.58,0.51 l -0.06,0.65 c -0.63,-0.52 -1.28,-0.56 -1.51,-0.56 -0.8,0 -1.44,0.71 -1.47,1.68 l 0.05,0.55 c 0.16,0.75 0.69,1.25 1.26,1.25 0.51,0 1.07,-0.34 1.2,-1.25 h -2.46 l -0.05,-0.55 z"
   inkscape:connector-curvature="0"
   style="fill:#000000;stroke-width:0" />
<path
   id="path4383"
   d="m 250.51,709.25 0,0.09 0.01,0.09 0.01,0.09 0.01,0.09 0.02,0.08 0.02,0.09 0.03,0.08 0.03,0.08 0.03,0.07 0.04,0.08 0.03,0.07 0.05,0.07 0.04,0.07 0.05,0.06 0.05,0.06 0.06,0.06 0.06,0.06 0.06,0.05 0.06,0.05 0.07,0.05 0.07,0.04 0.07,0.04 0.07,0.04 0.08,0.03 0.07,0.03 0.08,0.03 0.08,0.02 0.09,0.02 0.08,0.02 0.09,0.01 0.09,0.01 0.09,0 v 0.67 c -0.88,-0.01 -1.43,-0.5 -1.74,-0.96 v 0.9 h -0.7 v -4.46 h 0.75 z"
   inkscape:connector-curvature="0"
   style="fill:#000000;stroke-width:0" />
<path
   id="path4385"
   d="m 255.85,711.01 0.05,0 0.04,0 0.04,0 0.05,0.01 0.04,0 0.05,0 0.05,0.01 0.04,0 0.1,0.01 0.05,0 0.04,0 0.05,0.01 0.05,0 0.04,0 0.05,0 c 0.18,0 0.57,-0.03 0.59,-0.03 l -0.11,0.63 c -0.7,0 -1.28,-0.19 -1.58,-0.32 -0.2,0.17 -0.54,0.32 -0.94,0.32 v -0.57 c 0.43,0 0.9,-0.28 0.9,-1.05 0,-0.78 -0.47,-1.06 -0.9,-1.06 h 0 c -0.37,0 -0.89,0.23 -0.89,1.06 0,0.82 0.52,1.05 0.89,1.05 v 0.57 c -0.86,0 -1.58,-0.72 -1.58,-1.62 0,-0.37 0.13,-0.73 0.33,-0.99 -0.29,-0.4 -0.29,-0.79 -0.29,-0.84 0,-0.26 0.09,-0.55 0.26,-0.76 -0.52,-0.3 -0.64,-0.76 -0.64,-1.02 0,-0.75 0.99,-1.34 2.2,-1.34 l 0.01,0.57 c -0.81,0 -1.51,0.3 -1.51,0.77 0,0.03 0,0.67 0.77,0.67 h 0.9 c 0.22,0 1.34,0 1.34,-0.68 0,-0.44 -0.69,-0.76 -1.5,-0.76 l -0.01,-0.57 c 1.22,0 2.21,0.58 2.21,1.35 0,1.38 -1.66,1.38 -2.05,1.38 h -0.88 c -0.13,0 -0.57,0 -0.57,0.53 0,0.11 0.03,0.26 0.11,0.35 0.2,-0.14 0.53,-0.28 0.9,-0.28 0.9,0 1.59,0.73 1.59,1.62 0,0.47 -0.22,0.84 -0.33,0.99 z"
   inkscape:connector-curvature="0"
   style="fill:#000000;stroke-width:0" />
<path
   id="path4387"
   d="m 261.45,709.3 0,0.03 0,0.04 0,0.04 0,0.03 0,0.05 0,0.04 0,0.04 -0.01,0.05 0,0.05 0,0.05 -0.01,0.05 0,0.05 -0.01,0.06 0,0.05 -0.01,0.06 -0.01,0.05 -0.01,0.06 -0.01,0.06 -0.02,0.06 -0.01,0.05 -0.01,0.06 -0.02,0.06 -0.02,0.06 -0.02,0.06 -0.02,0.06 -0.03,0.06 -0.02,0.06 -0.03,0.06 -0.03,0.06 -0.03,0.06 -0.03,0.05 -0.04,0.06 c -0.4,0.61 -1.01,0.73 -1.37,0.73 -1.1,0 -2,-1.06 -2,-2.34 0,-1.31 0.96,-2.35 2.15,-2.35 0.63,0 1.19,0.23 1.58,0.51 l -0.06,0.65 c -0.62,-0.52 -1.28,-0.56 -1.51,-0.56 -0.8,0 -1.43,0.71 -1.46,1.68 l 0.05,0.55 c 0.16,0.75 0.68,1.25 1.25,1.25 0.52,0 1.08,-0.34 1.21,-1.25 h -2.46 l -0.05,-0.55 z"
   inkscape:connector-curvature="0"
   style="fill:#000000;stroke-width:0" />
<path
   id="path4389"
   d="m 266.09,710.09 0,0.06 0,0.06 -0.01,0.07 0,0.06 -0.01,0.07 0,0.06 -0.01,0.07 -0.01,0.07 -0.02,0.06 -0.01,0.07 -0.02,0.06 -0.02,0.07 -0.03,0.06 -0.02,0.06 -0.03,0.06 -0.04,0.06 -0.04,0.06 -0.04,0.05 -0.04,0.05 -0.05,0.05 -0.05,0.05 -0.06,0.05 -0.06,0.04 -0.07,0.03 -0.04,0.02 -0.03,0.02 -0.04,0.01 -0.04,0.02 -0.04,0.01 -0.04,0.01 -0.04,0.01 -0.05,0.01 -0.04,0.01 -0.05,0.01 -0.05,0.01 -0.05,0 -0.05,0.01 -0.05,0 -0.06,0 -0.05,0.01 c -0.9,0 -1.39,-0.68 -1.45,-0.76 v 0.7 h -0.71 v -4.46 h 0.77 v 2.43 c 0,0.65 0.25,1.48 1.01,1.48 0.95,0 0.96,-0.71 0.96,-1.02 v -2.89 h 0.78 z"
   inkscape:connector-curvature="0"
   style="fill:#000000;stroke-width:0" />
<path
   id="path4391"
   d="m 270.99,711.28 -0.06,0.03 -0.05,0.03 -0.05,0.03 -0.05,0.02 -0.05,0.03 -0.05,0.02 -0.05,0.02 -0.04,0.03 -0.05,0.02 -0.05,0.02 -0.04,0.01 -0.05,0.02 -0.08,0.03 -0.09,0.03 -0.09,0.02 -0.09,0.02 -0.09,0.01 -0.09,0.02 -0.05,0 -0.05,0 -0.05,0.01 -0.05,0 -0.05,0 -0.05,0 -0.06,0 -0.06,0.01 c -1.38,0 -2.18,-1.21 -2.18,-2.38 0,-1.23 0.9,-2.31 2.15,-2.31 0.53,0 1.08,0.14 1.62,0.5 l -0.06,0.67 c -0.51,-0.4 -1.05,-0.54 -1.56,-0.54 -0.82,0 -1.38,0.72 -1.38,1.69 0,0.77 0.37,1.73 1.42,1.73 0.52,0 0.86,-0.08 1.41,-0.44 z"
   inkscape:connector-curvature="0"
   style="fill:#000000;stroke-width:0" />
<path
   id="path4393"
   d="m 275.45,709.3 0,0.03 0,0.04 0,0.04 0,0.03 0,0.05 0,0.04 0,0.04 0,0.05 -0.01,0.05 0,0.05 0,0.05 -0.01,0.05 -0.01,0.06 0,0.05 -0.01,0.06 -0.01,0.05 -0.01,0.06 -0.01,0.06 -0.01,0.06 -0.02,0.05 -0.01,0.06 -0.02,0.06 -0.02,0.06 -0.02,0.06 -0.02,0.06 -0.02,0.06 -0.03,0.06 -0.03,0.06 -0.02,0.06 -0.04,0.06 -0.03,0.05 -0.03,0.06 c -0.41,0.61 -1.02,0.73 -1.38,0.73 -1.1,0 -2,-1.06 -2,-2.34 0,-1.31 0.96,-2.35 2.15,-2.35 0.63,0 1.2,0.23 1.58,0.51 l -0.05,0.65 c -0.63,-0.52 -1.29,-0.56 -1.52,-0.56 -0.79,0 -1.43,0.71 -1.46,1.68 l 0.05,0.55 c 0.16,0.75 0.69,1.25 1.25,1.25 0.52,0 1.08,-0.34 1.21,-1.25 h -2.46 l -0.05,-0.55 z"
   inkscape:connector-curvature="0"
   style="fill:#000000;stroke-width:0" />
<path
   id="path4395"
   d="m 283.16,711.28 -0.06,0.03 -0.05,0.03 -0.05,0.03 -0.05,0.02 -0.05,0.03 -0.05,0.02 -0.05,0.02 -0.04,0.03 -0.05,0.02 -0.04,0.02 -0.05,0.01 -0.04,0.02 -0.09,0.03 -0.09,0.03 -0.09,0.02 -0.09,0.02 -0.09,0.01 -0.09,0.02 -0.05,0 -0.05,0 -0.05,0.01 -0.05,0 -0.05,0 -0.05,0 -0.06,0 -0.05,0.01 c -1.39,0 -2.19,-1.21 -2.19,-2.38 0,-1.23 0.9,-2.31 2.15,-2.31 0.53,0 1.08,0.14 1.62,0.5 l -0.06,0.67 c -0.51,-0.4 -1.04,-0.54 -1.55,-0.54 -0.83,0 -1.39,0.72 -1.39,1.69 0,0.77 0.37,1.73 1.43,1.73 0.51,0 0.85,-0.08 1.4,-0.44 z"
   inkscape:connector-curvature="0"
   style="fill:#000000;stroke-width:0" />
<path
   id="path4397"
   d="m 287.83,710.09 0,0.06 0,0.06 0,0.07 0,0.06 -0.01,0.07 -0.01,0.06 -0.01,0.07 -0.01,0.07 -0.01,0.06 -0.02,0.07 -0.02,0.06 -0.02,0.07 -0.02,0.06 -0.03,0.06 -0.03,0.06 -0.03,0.06 -0.04,0.06 -0.04,0.05 -0.04,0.05 -0.05,0.05 -0.06,0.05 -0.05,0.05 -0.07,0.04 -0.06,0.03 -0.04,0.02 -0.03,0.02 -0.04,0.01 -0.04,0.02 -0.04,0.01 -0.04,0.01 -0.05,0.01 -0.04,0.01 -0.05,0.01 -0.04,0.01 -0.05,0.01 -0.05,0 -0.05,0.01 -0.06,0 -0.05,0 -0.06,0.01 c -0.61,0 -1.09,-0.31 -1.41,-0.72 v 3.09 h -0.75 v -6.89 h 0.78 v 2.43 c 0,0.65 0.25,1.48 1,1.48 0.96,0 0.97,-0.71 0.97,-1.02 v -2.89 h 0.77 z"
   inkscape:connector-curvature="0"
   style="fill:#000000;stroke-width:0" />
<path
   id="path4399"
   d="m 292.77,709.3 0,0.03 0,0.04 0,0.04 0,0.03 0,0.05 0,0.04 0,0.04 0,0.05 -0.01,0.05 0,0.05 0,0.05 -0.01,0.05 -0.01,0.06 0,0.05 -0.01,0.06 -0.01,0.05 -0.01,0.06 -0.01,0.06 -0.01,0.06 -0.02,0.05 -0.01,0.06 -0.02,0.06 -0.02,0.06 -0.02,0.06 -0.02,0.06 -0.02,0.06 -0.03,0.06 -0.03,0.06 -0.02,0.06 -0.04,0.06 -0.03,0.05 -0.03,0.06 c -0.41,0.61 -1.02,0.73 -1.38,0.73 -1.1,0 -2,-1.06 -2,-2.34 0,-1.31 0.96,-2.35 2.15,-2.35 0.63,0 1.2,0.23 1.58,0.51 l -0.06,0.65 c -0.62,-0.52 -1.28,-0.56 -1.51,-0.56 -0.79,0 -1.43,0.71 -1.46,1.68 l 0.05,0.55 c 0.16,0.75 0.69,1.25 1.25,1.25 0.52,0 1.08,-0.34 1.21,-1.25 h -2.46 l -0.05,-0.55 z"
   inkscape:connector-curvature="0"
   style="fill:#000000;stroke-width:0" />
<path
   id="path4401"
   d="m 297.17,711.28 -0.05,0.03 -0.06,0.03 -0.05,0.03 -0.05,0.02 -0.05,0.03 -0.05,0.02 -0.04,0.02 -0.05,0.03 -0.05,0.02 -0.04,0.02 -0.05,0.01 -0.04,0.02 -0.09,0.03 -0.09,0.03 -0.08,0.02 -0.09,0.02 -0.09,0.01 -0.1,0.02 -0.05,0 -0.04,0 -0.05,0.01 -0.05,0 -0.06,0 -0.05,0 -0.05,0 -0.06,0.01 c -1.38,0 -2.19,-1.21 -2.19,-2.38 0,-1.23 0.91,-2.31 2.15,-2.31 0.54,0 1.08,0.14 1.62,0.5 l -0.06,0.67 c -0.51,-0.4 -1.04,-0.54 -1.55,-0.54 -0.83,0 -1.38,0.72 -1.38,1.69 0,0.77 0.37,1.73 1.42,1.73 0.52,0 0.86,-0.08 1.4,-0.44 z"
   inkscape:connector-curvature="0"
   style="fill:#000000;stroke-width:0" />
<polygon
   id="polygon4403"
   points="299.04,708.53 299.84,709.35 301.39,707.13 302.21,707.13 300.32,709.83 301.99,711.54 301.09,711.54 299.07,709.47 299.07,714.02 298.36,714.02 298.36,707.13 299.04,707.13 "
   style="fill:#000000;stroke-width:0" />
</g>  <g
     id="g4757"
     transform="matrix(7.1691347,0,0,-7.1691347,-1399.4945,6059.921)"
     xml:space="preserve"
     stroke-miterlimit="10.433"
     font-style="normal"
     font-variant="normal"
     font-weight="normal"
     font-stretch="normal"
     font-size-adjust="none"
     letter-spacing="normal"
     word-spacing="normal"
     ns0:text="\\textsf{Post-process}"
     ns0:preamble=""
     style="font-style:normal;font-variant:normal;font-weight:normal;font-stretch:normal;letter-spacing:normal;word-spacing:normal;text-anchor:start;fill:none;stroke:#000000;stroke-linecap:butt;stroke-linejoin:miter;stroke-miterlimit:10.43299961;stroke-opacity:1;stroke-dasharray:none;stroke-dashoffset:0">
<path
   d="m 226.93,710 0.12,0 0.11,0.01 0.12,0.01 0.11,0.02 0.11,0.02 0.1,0.03 0.11,0.03 0.1,0.03 0.1,0.05 0.1,0.04 0.1,0.05 0.09,0.05 0.09,0.06 0.09,0.06 0.08,0.06 0.08,0.07 0.08,0.07 0.07,0.07 0.07,0.08 0.06,0.08 0.06,0.08 0.06,0.08 0.05,0.09 0.05,0.09 0.04,0.09 0.04,0.09 0.03,0.1 0.02,0.1 0.02,0.1 0.02,0.1 0.01,0.1 0,0.1 c 0,1.07 -0.98,2.01 -2.36,2.01 h -2.47 v -6.89 h 0.88 V 710 l -0.03,0.57 v 2.89 h 1.41 c 1.09,0 1.77,-0.6 1.77,-1.45 0,-0.78 -0.63,-1.44 -1.77,-1.44 h -1.41 l 0.03,-0.57 z"
   id="path4759"
   inkscape:connector-curvature="0"
   style="fill:#000000;stroke-width:0" />
<path
   d="m 234.18,709.31 0,0.12 -0.01,0.13 -0.01,0.12 -0.02,0.12 -0.03,0.11 -0.03,0.12 -0.03,0.11 -0.04,0.11 -0.04,0.1 -0.05,0.11 -0.06,0.1 -0.05,0.09 -0.06,0.1 -0.07,0.09 -0.07,0.08 -0.07,0.09 -0.08,0.08 -0.08,0.07 -0.08,0.07 -0.09,0.07 -0.08,0.06 -0.09,0.06 -0.1,0.05 -0.1,0.05 -0.09,0.04 -0.1,0.04 -0.11,0.03 -0.1,0.03 -0.11,0.02 -0.11,0.01 -0.1,0.01 -0.11,0.01 -0.01,-0.61 c 0.69,0 1.41,-0.52 1.41,-1.69 0,-1.17 -0.68,-1.76 -1.41,-1.76 h 0 c -0.69,0 -1.41,0.56 -1.41,1.76 0,1.2 0.76,1.69 1.41,1.69 l 0.01,0.61 c -1.23,0 -2.19,-1.1 -2.19,-2.4 0,-1.31 1.01,-2.29 2.18,-2.29 1.19,0 2.18,1 2.18,2.29 z"
   id="path4761"
   inkscape:connector-curvature="0"
   style="fill:#000000;stroke-width:0" />
<path
   d="m 237.91,711.39 -0.05,0.02 -0.04,0.02 -0.1,0.04 -0.09,0.03 -0.09,0.04 -0.09,0.03 -0.08,0.02 -0.09,0.03 -0.09,0.02 -0.08,0.01 -0.09,0.02 -0.09,0.01 -0.09,0.01 -0.08,0.01 -0.09,0 -0.1,0 -0.09,0.01 c -0.25,0 -1.65,0 -1.65,-1.31 0,-0.48 0.29,-0.8 0.54,-0.99 0.3,-0.22 0.52,-0.26 1.07,-0.37 0.36,-0.07 0.94,-0.19 0.94,-0.71 0,-0.69 -0.79,-0.69 -0.94,-0.69 -0.81,0 -1.36,0.37 -1.54,0.49 l -0.12,-0.68 c 0.32,-0.16 0.86,-0.43 1.67,-0.43 0.18,0 0.73,0 1.15,0.31 0.31,0.24 0.48,0.64 0.48,1.07 0,0.54 -0.37,0.88 -0.39,0.91 -0.39,0.35 -0.65,0.41 -1.15,0.5 -0.55,0.11 -1.01,0.21 -1.01,0.69 0,0.62 0.72,0.62 0.85,0.62 0.32,0 0.85,-0.04 1.41,-0.38 z"
   id="path4763"
   inkscape:connector-curvature="0"
   style="fill:#000000;stroke-width:0" />
<path
   d="m 240.06,710.96 h 1.4 v 0.58 h -1.4 v 1.26 h -0.69 v -1.26 h -0.86 v -0.58 h 0.83 v -2.65 c 0,-0.6 0.14,-1.29 0.83,-1.29 0.7,0 1.2,0.24 1.45,0.37 l -0.16,0.59 c -0.26,-0.21 -0.58,-0.33 -0.89,-0.33 -0.37,0 -0.51,0.3 -0.51,0.83 z"
   id="path4765"
   inkscape:connector-curvature="0"
   style="fill:#000000;stroke-width:0" />
<polygon
   points="244.66,709.62 242.02,709.62 242.02,709.04 244.66,709.04 "
   id="polygon4767"
   style="fill:#000000;stroke-width:0" />
<path
   d="m 246.83,707.58 0.1,0.51 c -0.1,0.15 -0.1,0.17 -0.1,0.35 v 1.99 c 0.24,0.35 0.63,0.58 1.05,0.58 0.76,0 1.36,-0.76 1.36,-1.67 0,-1.02 -0.71,-1.72 -1.46,-1.72 -0.38,0 -0.65,0.2 -0.85,0.47 l -0.1,-0.51 c 0.31,-0.29 0.74,-0.56 1.34,-0.56 0.97,0 1.84,0.97 1.84,2.32 0,1.19 -0.63,2.31 -1.58,2.31 -0.6,0 -1.17,-0.21 -1.63,-0.6 v 0.49 h -0.75 v -6.34 h 0.78 z"
   id="path4769"
   inkscape:connector-curvature="0"
   style="fill:#000000;stroke-width:0" />
<path
   d="m 251.67,709.25 0,0.09 0.01,0.09 0.01,0.09 0.01,0.09 0.02,0.08 0.02,0.09 0.03,0.08 0.02,0.08 0.04,0.07 0.03,0.08 0.04,0.07 0.04,0.07 0.05,0.07 0.05,0.06 0.05,0.06 0.06,0.06 0.05,0.06 0.07,0.05 0.06,0.05 0.06,0.05 0.07,0.04 0.07,0.04 0.08,0.04 0.07,0.03 0.08,0.03 0.08,0.03 0.08,0.02 0.09,0.02 0.08,0.02 0.09,0.01 0.09,0.01 0.09,0 v 0.67 c -0.89,-0.01 -1.43,-0.5 -1.74,-0.96 v 0.9 h -0.7 v -4.46 h 0.75 z"
   id="path4771"
   inkscape:connector-curvature="0"
   style="fill:#000000;stroke-width:0" />
<path
   d="m 258.17,709.31 0,0.12 -0.01,0.13 -0.01,0.12 -0.02,0.12 -0.02,0.11 -0.03,0.12 -0.04,0.11 -0.04,0.11 -0.04,0.1 -0.05,0.11 -0.05,0.1 -0.06,0.09 -0.06,0.1 -0.07,0.09 -0.07,0.08 -0.07,0.09 -0.08,0.08 -0.08,0.07 -0.08,0.07 -0.08,0.07 -0.09,0.06 -0.09,0.06 -0.1,0.05 -0.09,0.05 -0.1,0.04 -0.1,0.04 -0.11,0.03 -0.1,0.03 -0.11,0.02 -0.1,0.01 -0.11,0.01 -0.11,0.01 -0.01,-0.61 c 0.69,0 1.41,-0.52 1.41,-1.69 0,-1.17 -0.68,-1.76 -1.41,-1.76 h 0 c -0.69,0 -1.41,0.56 -1.41,1.76 0,1.2 0.76,1.69 1.41,1.69 l 0.01,0.61 c -1.23,0 -2.19,-1.1 -2.19,-2.4 0,-1.31 1.01,-2.29 2.18,-2.29 1.19,0 2.18,1 2.18,2.29 z"
   id="path4773"
   inkscape:connector-curvature="0"
   style="fill:#000000;stroke-width:0" />
<path
   d="m 262.85,711.28 -0.06,0.03 -0.05,0.03 -0.05,0.03 -0.05,0.02 -0.05,0.03 -0.05,0.02 -0.05,0.02 -0.04,0.03 -0.05,0.02 -0.05,0.02 -0.04,0.01 -0.04,0.02 -0.09,0.03 -0.09,0.03 -0.09,0.02 -0.09,0.02 -0.09,0.01 -0.09,0.02 -0.05,0 -0.05,0 -0.05,0.01 -0.05,0 -0.05,0 -0.05,0 -0.06,0 -0.05,0.01 c -1.39,0 -2.19,-1.21 -2.19,-2.38 0,-1.23 0.9,-2.31 2.15,-2.31 0.53,0 1.08,0.14 1.62,0.5 l -0.06,0.67 c -0.51,-0.4 -1.05,-0.54 -1.55,-0.54 -0.83,0 -1.39,0.72 -1.39,1.69 0,0.77 0.37,1.73 1.43,1.73 0.51,0 0.85,-0.08 1.4,-0.44 z"
   id="path4775"
   inkscape:connector-curvature="0"
   style="fill:#000000;stroke-width:0" />
<path
   d="m 267.32,709.3 0,0.03 0,0.04 0,0.04 -0.01,0.03 0,0.05 0,0.04 0,0.04 0,0.05 0,0.05 -0.01,0.05 0,0.05 -0.01,0.05 0,0.06 -0.01,0.05 -0.01,0.06 -0.01,0.05 -0.01,0.06 -0.01,0.06 -0.01,0.06 -0.02,0.05 -0.01,0.06 -0.02,0.06 -0.02,0.06 -0.02,0.06 -0.02,0.06 -0.02,0.06 -0.03,0.06 -0.02,0.06 -0.03,0.06 -0.03,0.06 -0.04,0.05 -0.03,0.06 c -0.41,0.61 -1.02,0.73 -1.37,0.73 -1.11,0 -2,-1.06 -2,-2.34 0,-1.31 0.95,-2.35 2.14,-2.35 0.63,0 1.2,0.23 1.59,0.51 l -0.06,0.65 c -0.63,-0.52 -1.29,-0.56 -1.52,-0.56 -0.79,0 -1.43,0.71 -1.46,1.68 l 0.05,0.55 c 0.16,0.75 0.69,1.25 1.26,1.25 0.51,0 1.07,-0.34 1.2,-1.25 h -2.46 l -0.05,-0.55 z"
   id="path4777"
   inkscape:connector-curvature="0"
   style="fill:#000000;stroke-width:0" />
<path
   d="m 271.04,711.39 -0.05,0.02 -0.05,0.02 -0.09,0.04 -0.09,0.03 -0.09,0.04 -0.09,0.03 -0.09,0.02 -0.09,0.03 -0.08,0.02 -0.09,0.01 -0.09,0.02 -0.08,0.01 -0.09,0.01 -0.09,0.01 -0.09,0 -0.09,0 -0.1,0.01 c -0.24,0 -1.65,0 -1.65,-1.31 0,-0.48 0.29,-0.8 0.54,-0.99 0.31,-0.22 0.53,-0.26 1.07,-0.37 0.36,-0.07 0.94,-0.19 0.94,-0.71 0,-0.69 -0.79,-0.69 -0.94,-0.69 -0.8,0 -1.36,0.37 -1.54,0.49 l -0.12,-0.68 c 0.32,-0.16 0.87,-0.43 1.67,-0.43 0.18,0 0.73,0 1.16,0.31 0.31,0.24 0.48,0.64 0.48,1.07 0,0.54 -0.37,0.88 -0.39,0.91 -0.39,0.35 -0.66,0.41 -1.16,0.5 -0.54,0.11 -1,0.21 -1,0.69 0,0.62 0.72,0.62 0.84,0.62 0.32,0 0.85,-0.04 1.42,-0.38 z"
   id="path4779"
   inkscape:connector-curvature="0"
   style="fill:#000000;stroke-width:0" />
<path
   d="m 274.86,711.39 -0.05,0.02 -0.05,0.02 -0.09,0.04 -0.1,0.03 -0.09,0.04 -0.08,0.03 -0.09,0.02 -0.09,0.03 -0.08,0.02 -0.09,0.01 -0.09,0.02 -0.08,0.01 -0.09,0.01 -0.09,0.01 -0.09,0 -0.09,0 -0.1,0.01 c -0.25,0 -1.65,0 -1.65,-1.31 0,-0.48 0.29,-0.8 0.54,-0.99 0.31,-0.22 0.53,-0.26 1.07,-0.37 0.36,-0.07 0.94,-0.19 0.94,-0.71 0,-0.69 -0.79,-0.69 -0.94,-0.69 -0.8,0 -1.36,0.37 -1.54,0.49 l -0.12,-0.68 c 0.32,-0.16 0.87,-0.43 1.67,-0.43 0.18,0 0.73,0 1.16,0.31 0.31,0.24 0.47,0.64 0.47,1.07 0,0.54 -0.36,0.88 -0.38,0.91 -0.39,0.35 -0.66,0.41 -1.16,0.5 -0.55,0.11 -1,0.21 -1,0.69 0,0.62 0.71,0.62 0.84,0.62 0.32,0 0.85,-0.04 1.42,-0.38 z"
   id="path4781"
   inkscape:connector-curvature="0"
   style="fill:#000000;stroke-width:0" />
</g>  <g
     id="g5372"
     transform="matrix(7.1691347,0,0,-7.1691347,-1570.7283,5875.7696)"
     xml:space="preserve"
     stroke-miterlimit="10.433"
     font-style="normal"
     font-variant="normal"
     font-weight="normal"
     font-stretch="normal"
     font-size-adjust="none"
     letter-spacing="normal"
     word-spacing="normal"
     ns0:text="\\textbf{\\textsf{YES}}"
     ns0:preamble=""
     style="font-style:normal;font-variant:normal;font-weight:normal;font-stretch:normal;letter-spacing:normal;word-spacing:normal;text-anchor:start;fill:none;stroke:#000000;stroke-linecap:butt;stroke-linejoin:miter;stroke-miterlimit:10.43299961;stroke-opacity:1;stroke-dasharray:none;stroke-dashoffset:0">
<path
   style="fill:#000000;stroke-width:0"
   inkscape:connector-curvature="0"
   d="m 230.39,713.58 0,0.01 0,0 0.01,0.01 0,0 0.01,0.01 0,0 0.01,0.02 0,0.01 0.01,0.01 0.01,0.02 0.01,0.01 0,0.01 0.01,0.02 0,0 0,0.01 0.01,0.01 0,0.01 0,0 0,0.01 0,0.01 0,0 0,0.01 0.01,0.01 0,0 0,0.01 c 0,0.23 -0.22,0.23 -0.36,0.23 h -0.49 c -0.21,0 -0.52,0 -0.79,-0.38 l -0.97,-1.39 c -0.35,-0.5 -0.54,-0.76 -0.71,-1.12 -0.15,0.31 -0.34,0.59 -0.54,0.87 l -1.13,1.61 c -0.23,0.33 -0.45,0.41 -0.8,0.41 h -0.66 c -0.14,0 -0.36,0 -0.36,-0.23 0,-0.07 0.03,-0.12 0.09,-0.2 l 2.6,-3.7 v -2.29 c 0,-0.36 0.11,-0.47 0.48,-0.47 h 0.47 c 0.35,0 0.48,0.09 0.48,0.46 v 2.29 z"
   id="path5374" />
<path
   style="fill:#000000;stroke-width:0"
   inkscape:connector-curvature="0"
   d="m 233.1,710.21 h 2.62 c 0.31,0 0.48,0.07 0.48,0.47 0,0.37 -0.13,0.47 -0.48,0.47 h -2.62 v 1.84 h 0.49 c 0.78,0 1.56,-0.03 2.34,-0.03 0.35,0 0.58,0 0.58,0.47 v 0.08 c 0,0.32 -0.07,0.48 -0.48,0.48 h -3.91 c -0.36,0 -0.48,-0.11 -0.48,-0.48 v -5.91 c 0,-0.36 0.11,-0.47 0.48,-0.47 h 4.06 c 0.38,0 0.48,0.12 0.48,0.47 v 0.14 c 0,0.48 -0.23,0.48 -0.56,0.48 -0.52,0 -1.03,-0.02 -1.54,-0.02 -0.25,0 -1.27,-0.01 -1.46,-0.02 z"
   id="path5376" />
<path
   style="fill:#000000;stroke-width:0"
   inkscape:connector-curvature="0"
   d="m 239.82,711.51 -0.02,0 -0.03,0.01 -0.02,0 -0.03,0.01 -0.03,0.01 -0.03,0.01 -0.03,0.02 -0.04,0.01 -0.03,0.01 -0.03,0.02 -0.04,0.02 -0.03,0.02 -0.04,0.02 -0.03,0.02 -0.04,0.02 -0.03,0.02 -0.04,0.03 -0.03,0.03 -0.03,0.03 -0.03,0.03 -0.03,0.03 -0.03,0.03 -0.03,0.04 -0.02,0.04 -0.02,0.04 -0.02,0.04 -0.02,0.04 -0.01,0.04 -0.01,0.03 0,0.02 -0.01,0.02 0,0.03 -0.01,0.02 0,0.03 0,0.02 0,0.03 c 0,0.85 0.85,0.86 1.18,0.86 0.56,0 1.06,-0.12 1.55,-0.6 0.16,-0.15 0.17,-0.16 0.21,-0.16 0.06,0 0.11,0.03 0.13,0.18 l 0.16,0.86 c 0.02,0.08 0.02,0.1 0.02,0.13 0,0.08 -0.02,0.09 -0.26,0.22 -0.71,0.35 -1.3,0.4 -1.81,0.4 -0.88,0 -2.42,-0.21 -2.42,-2.07 0,-0.7 0.37,-1.16 0.55,-1.36 0.51,-0.52 0.98,-0.61 1.76,-0.79 0.55,-0.13 0.77,-0.18 0.99,-0.38 0.1,-0.1 0.31,-0.31 0.31,-0.69 0,-0.93 -0.86,-0.96 -1.19,-0.96 -0.83,0 -1.56,0.34 -2.05,0.78 -0.12,0.12 -0.14,0.12 -0.18,0.12 -0.06,0 -0.11,-0.03 -0.14,-0.18 l -0.15,-0.86 c -0.02,-0.08 -0.02,-0.1 -0.02,-0.13 0,-0.21 1.03,-0.56 1.08,-0.58 0.67,-0.21 1.21,-0.23 1.46,-0.23 1.5,0 2.43,0.66 2.43,2.2 0,1.11 -0.82,1.95 -1.82,2.18 z"
   id="path5378" />
</g>  <g
     style="font-style:normal;font-variant:normal;font-weight:normal;font-stretch:normal;letter-spacing:normal;word-spacing:normal;text-anchor:start;fill:none;stroke:#000000;stroke-linecap:butt;stroke-linejoin:miter;stroke-miterlimit:10.43299961;stroke-opacity:1;stroke-dasharray:none;stroke-dashoffset:0"
     ns0:preamble=""
     ns0:text="\\textbf{\\textsf{NO}}"
     word-spacing="normal"
     letter-spacing="normal"
     font-size-adjust="none"
     font-stretch="normal"
     font-weight="normal"
     font-variant="normal"
     font-style="normal"
     stroke-miterlimit="10.433"
     xml:space="preserve"
     transform="matrix(7.1691347,0,0,-7.1691347,-770.72829,5875.7696)"
     id="g5661">
<path
   id="path5663"
   d="m 226.45,713.62 -0.02,0.04 -0.02,0.03 -0.02,0.03 -0.03,0.03 -0.02,0.03 -0.02,0.03 -0.02,0.02 -0.02,0.02 -0.03,0.02 -0.02,0.02 -0.02,0.02 -0.03,0.01 -0.02,0.02 -0.02,0.01 -0.03,0.01 -0.02,0.01 -0.02,0.01 -0.03,0.01 -0.02,0 -0.02,0.01 -0.03,0 -0.02,0.01 -0.02,0 -0.02,0 -0.03,0 -0.02,0.01 -0.04,0 -0.04,0 -0.04,0 h -0.92 c -0.36,0 -0.48,-0.11 -0.48,-0.48 v -5.94 c 0,-0.36 0.11,-0.47 0.48,-0.47 h 0.26 c 0.38,0 0.48,0.12 0.48,0.47 v 5.22 h 0.01 l 2.74,-5.3 c 0.21,-0.39 0.51,-0.39 0.7,-0.39 h 0.93 c 0.38,0 0.48,0.12 0.48,0.47 v 5.94 c 0,0.32 -0.07,0.48 -0.48,0.48 h -0.27 c -0.38,0 -0.48,-0.13 -0.48,-0.48 v -5.21 h -0.01 z"
   inkscape:connector-curvature="0"
   style="fill:#000000;stroke-width:0" />
<path
   id="path5665"
   d="m 238.63,710.52 0,0.19 -0.01,0.18 -0.01,0.19 -0.02,0.18 -0.02,0.17 -0.02,0.18 -0.04,0.17 -0.03,0.17 -0.05,0.16 -0.05,0.16 -0.05,0.15 -0.07,0.16 -0.07,0.14 -0.07,0.14 -0.09,0.14 -0.09,0.13 -0.1,0.12 -0.1,0.12 -0.12,0.11 -0.12,0.11 -0.13,0.1 -0.14,0.09 -0.15,0.08 -0.16,0.08 -0.17,0.07 -0.18,0.06 -0.18,0.05 -0.2,0.04 -0.21,0.03 -0.22,0.03 -0.22,0.01 -0.24,0.01 -0.01,-0.78 c 1.88,0 1.88,-1.88 1.88,-2.78 0,-0.88 0,-2.98 -1.87,-2.98 h 0 c -1.88,0 -1.88,2.08 -1.88,2.98 0,0.87 0,2.78 1.87,2.78 l 0.01,0.78 c -2.76,0 -3.35,-1.9 -3.35,-3.72 0,-1.86 0.65,-3.61 3.34,-3.61 2.56,0 3.34,1.58 3.34,3.61 z"
   inkscape:connector-curvature="0"
   style="fill:#000000;stroke-width:0" />
</g>  <rect
     style="color:#000000;fill:none;stroke:#000000;stroke-width:5;stroke-linecap:round;stroke-linejoin:round;stroke-opacity:1;marker:none;visibility:visible;display:inline;overflow:visible;enable-background:accumulate"
     id="rect5796-8"
     width="424.66257"
     height="100.28931"
     x="185.59497"
     y="2.4980745" />
  <rect
     style="color:#000000;fill:none;stroke:#000000;stroke-width:5;stroke-linecap:round;stroke-linejoin:round;stroke-opacity:1;marker:none;visibility:visible;display:inline;overflow:visible;enable-background:accumulate"
     id="rect5796-5-0"
     width="424.66257"
     height="100.28931"
     x="185.59497"
     y="153.28159" />
  <rect
     style="color:#000000;fill:none;stroke:#000000;stroke-width:5;stroke-linecap:round;stroke-linejoin:round;stroke-miterlimit:4;stroke-opacity:1;stroke-dasharray:none;marker:none;visibility:visible;display:inline;overflow:visible;enable-background:accumulate"
     id="rect5796-5-4-8"
     width="749.96027"
     height="100.28931"
     x="185.59497"
     y="309.28159" />
  <rect
     style="color:#000000;fill:none;stroke:#000000;stroke-width:5;stroke-linecap:round;stroke-linejoin:round;stroke-opacity:1;marker:none;visibility:visible;display:inline;overflow:visible;enable-background:accumulate"
     id="rect5796-5-4-2-7"
     width="424.66257"
     height="100.28931"
     x="185.59497"
     y="461.28159" />
  <rect
     style="color:#000000;fill:none;stroke:#000000;stroke-width:5;stroke-linecap:round;stroke-linejoin:round;stroke-opacity:1;marker:none;visibility:visible;display:inline;overflow:visible;enable-background:accumulate"
     id="rect5796-5-4-2-0-7"
     width="424.66257"
     height="100.28931"
     x="185.59497"
     y="613.28156" />
  <rect
     style="color:#000000;fill:none;stroke:#000000;stroke-width:5;stroke-linecap:round;stroke-linejoin:round;stroke-miterlimit:4;stroke-opacity:1;stroke-dasharray:none;marker:none;visibility:visible;display:inline;overflow:visible;enable-background:accumulate"
     id="rect5796-5-4-2-0-9-8"
     width="592.69086"
     height="100.28931"
     x="185.59497"
     y="767.28156" />
  <rect
     style="color:#000000;fill:none;stroke:#000000;stroke-width:5;stroke-linecap:round;stroke-linejoin:round;stroke-opacity:1;marker:none;visibility:visible;display:inline;overflow:visible;enable-background:accumulate"
     id="rect5796-5-4-2-0-9-7-3"
     width="424.66257"
     height="100.28931"
     x="185.59497"
     y="921.28156" />
  <path
     style="fill:none;stroke:#000000;stroke-width:5;stroke-linecap:butt;stroke-linejoin:miter;stroke-miterlimit:4;stroke-opacity:1;stroke-dasharray:none;marker-end:url(#Arrow1Send)"
     d="m 397.6284,102.80063 0,42.84821"
     id="path6692-8"
     inkscape:path-effect="#path-effect6694-8"
     inkscape:original-d="m 397.6284,102.80063 0,42.84821"
     inkscape:connector-curvature="0" />
  <path
     style="fill:none;stroke:#000000;stroke-width:5;stroke-linecap:butt;stroke-linejoin:miter;stroke-miterlimit:4;stroke-opacity:1;stroke-dasharray:none;marker-end:url(#Arrow1Send)"
     d="m 397.6284,254.8006 0,42.84819"
     id="path6692-7-3"
     inkscape:path-effect="#path-effect6694-5-9"
     inkscape:original-d="m 397.6284,254.8006 0,42.84819"
     inkscape:connector-curvature="0" />
  <path
     style="fill:none;stroke:#000000;stroke-width:5;stroke-linecap:butt;stroke-linejoin:miter;stroke-miterlimit:4;stroke-opacity:1;stroke-dasharray:none;marker-end:url(#Arrow1Send)"
     d="m 397.6284,408.80059 0,42.8482"
     id="path6692-7-2-7"
     inkscape:path-effect="#path-effect6694-5-1-3"
     inkscape:original-d="m 397.6284,408.80059 0,42.8482"
     inkscape:connector-curvature="0" />
  <path
     style="fill:none;stroke:#000000;stroke-width:5;stroke-linecap:butt;stroke-linejoin:miter;stroke-miterlimit:4;stroke-opacity:1;stroke-dasharray:none;marker-end:url(#Arrow1Send)"
     d="m 397.6284,563.81429 0,42.84829"
     id="path6692-7-2-4-1"
     inkscape:path-effect="#path-effect6694-5-1-1-4"
     inkscape:original-d="m 397.6284,563.81429 0,42.84829"
     inkscape:connector-curvature="0" />
  <path
     style="fill:none;stroke:#000000;stroke-width:5;stroke-linecap:butt;stroke-linejoin:miter;stroke-miterlimit:4;stroke-opacity:1;stroke-dasharray:none;marker-end:url(#Arrow1Send)"
     d="m 397.6284,714.49018 0,42.8482"
     id="path6692-7-2-4-7-0"
     inkscape:path-effect="#path-effect6694-5-1-1-1-1"
     inkscape:original-d="m 397.6284,714.49018 0,42.8482"
     inkscape:connector-curvature="0" />
  <path
     style="fill:none;stroke:#000000;stroke-width:5;stroke-linecap:butt;stroke-linejoin:miter;stroke-miterlimit:4;stroke-opacity:1;stroke-dasharray:none;marker-end:url(#Arrow1Send)"
     d="m 397.6284,868.94989 0,42.8482"
     id="path6692-7-2-4-7-2-7"
     inkscape:path-effect="#path-effect6694-5-1-1-1-8-4"
     inkscape:original-d="m 397.6284,868.94989 0,42.8482"
     inkscape:connector-curvature="0" />
  <rect
     style="color:#000000;fill:none;stroke:#000000;stroke-width:5;stroke-linecap:round;stroke-linejoin:round;stroke-miterlimit:4;stroke-opacity:1;stroke-dasharray:none;marker:none;visibility:visible;display:inline;overflow:visible;enable-background:accumulate"
     id="rect5796-5-4-2-7-3"
     width="606.12085"
     height="100.28931"
     x="675.90552"
     y="461.28152" />
  <path
     style="fill:none;stroke:#000000;stroke-width:5;stroke-linecap:butt;stroke-linejoin:miter;stroke-miterlimit:4;stroke-opacity:1;stroke-dasharray:none;marker-end:url(#Arrow1Send)"
     d="m 618.7761,502.19058 42.8482,0"
     id="path6692-7-2-7-5"
     inkscape:path-effect="#path-effect6694-5-1-3-6"
     inkscape:original-d="m 618.7761,502.19058 42.8482,0"
     inkscape:connector-curvature="0" />
  <path
     style="fill:none;stroke:#000000;stroke-width:5;stroke-linecap:butt;stroke-linejoin:miter;stroke-miterlimit:4;stroke-opacity:1;stroke-dasharray:none;marker-end:url(#Arrow1Send)"
     d="m 666.2493,522.19056 -42.8482,0"
     id="path6692-7-2-7-5-9"
     inkscape:path-effect="#path-effect6694-5-1-3-6-9"
     inkscape:original-d="m 666.2493,522.19056 -42.8482,0"
     inkscape:connector-curvature="0" />
  <path
     style="fill:none;stroke:#000000;stroke-width:5;stroke-linecap:butt;stroke-linejoin:miter;stroke-miterlimit:4;stroke-opacity:1;stroke-dasharray:none;marker-start:url(#Arrow1Sstart)"
     d="m 176.43788,199.03248 -173.9392066,0 0,621.71541 182.9495766,0"
     id="path3194"
     inkscape:path-effect="#path-effect3196"
     inkscape:original-d="m 176.43788,199.03248 -173.9392066,0 0,621.71541 182.9495766,0"
     inkscape:connector-curvature="0"
     sodipodi:nodetypes="cccc" />
  <path
     style="fill:none;stroke:#000000;stroke-width:5;stroke-linecap:butt;stroke-linejoin:miter;stroke-miterlimit:4;stroke-opacity:1;stroke-dasharray:none;marker-start:url(#Arrow1Sstart)"
     d="m 939.96872,360.4356 398.02318,-0.78351 0,464.96756 -557.30545,0"
     id="path4599"
     inkscape:path-effect="#path-effect4601"
     inkscape:original-d="m 939.96872,360.4356 398.02318,-0.78351 0,464.96756 -557.30545,0"
     inkscape:connector-curvature="0" />
</svg>
